<svg width="307" height="333" viewBox="0 0 307 333" fill="none" xmlns="http://www.w3.org/2000/svg">
<path d="M141.841 333C171.753 333 196.001 331.436 196.001 329.506C196.001 327.576 171.753 326.012 141.841 326.012C111.929 326.012 87.6804 327.576 87.6804 329.506C87.6804 331.436 111.929 333 141.841 333Z" fill="#263238"/>
<path d="M157.292 254.787C157.292 254.787 127.389 259.246 109.533 260.482C91.6777 261.719 77.4283 257.96 69.0771 263.732C60.7259 269.505 59.9921 286.794 65.7855 299.205C71.579 311.617 76.4359 316.076 85.5279 319.395C94.6199 322.715 117.311 324.189 152.575 320.793C187.839 317.396 205.52 305.111 211.676 292.364C217.833 279.617 217.176 274.012 214.821 272.23C212.466 270.448 206.372 268.428 206.372 268.428C206.372 268.428 208.874 256.897 199.132 250.007C192.633 245.401 173.317 250.105 157.292 254.787Z" fill="white"/>
<path d="M72.6899 310.561C72.6899 310.561 76.1073 312.455 81.8658 312.085C87.6242 311.714 92.3484 305.096 98.4004 299.471C104.452 293.845 127.794 288.45 150.814 287.437C173.834 286.423 192.311 281.664 202.263 277.918C212.214 274.172 216.268 276.395 216.268 278.673C216.268 280.951 212.522 291.252 210.747 294.383C206.316 302.238 198.566 308.22 189.306 311.98C180.046 315.74 166.188 318.968 150.283 321.016C134.377 323.064 112.545 322.477 104.949 322.12C97.3522 321.764 82.8651 321.303 72.6899 310.561Z" fill="#CEFE8F"/>
<path opacity="0.5" d="M72.6899 310.561C72.6899 310.561 76.1073 312.455 81.8658 312.085C87.6242 311.714 92.3484 305.096 98.4004 299.471C104.452 293.845 127.794 288.45 150.814 287.437C173.834 286.423 192.311 281.664 202.263 277.918C212.214 274.172 216.268 276.395 216.268 278.673C216.268 280.951 212.92 291.42 210.747 294.383C205.422 301.665 198.566 308.22 189.306 311.98C180.046 315.74 166.188 318.968 150.283 321.016C134.377 323.064 112.545 322.477 104.949 322.12C97.3522 321.764 82.8651 321.303 72.6899 310.561Z" fill="white"/>
<path d="M157.292 254.787C157.292 254.787 127.389 259.246 109.533 260.482C91.6777 261.719 77.4283 257.96 69.0771 263.732C60.7259 269.505 59.9921 286.794 65.7855 299.205C71.579 311.617 76.4359 316.076 85.5279 319.395C94.6199 322.715 117.311 324.189 152.575 320.793C187.839 317.396 205.52 305.111 211.676 292.364C217.833 279.617 217.176 274.012 214.821 272.23C212.466 270.448 206.372 268.428 206.372 268.428C206.372 268.428 208.874 256.897 199.132 250.007C192.633 245.401 173.317 250.105 157.292 254.787Z" stroke="#263238" stroke-miterlimit="10"/>
<path d="M201.99 271.21C202.986 270.829 203.917 270.296 204.751 269.631L201.99 271.21Z" fill="white"/>
<path d="M201.99 271.21C202.986 270.829 203.917 270.296 204.751 269.631" stroke="#263238" stroke-miterlimit="10"/>
<path d="M70.37 274.599C70.4678 276.695 69.3986 280.686 69.9507 284.145C71.7886 295.711 75.0802 301.099 81.6982 301.462C88.3163 301.826 92.3137 289.924 99.4559 288.617C106.598 287.311 129.325 286.472 164.665 280.469C182.996 277.352 193.094 274.557 198.566 272.586" fill="white"/>
<path d="M70.37 274.599C70.4678 276.695 69.3986 280.686 69.9507 284.145C71.7886 295.711 75.0802 301.099 81.6982 301.462C88.3163 301.826 92.3137 289.924 99.4559 288.617C106.598 287.311 129.325 286.472 164.665 280.469C182.996 277.352 193.094 274.557 198.566 272.586" stroke="#263238" stroke-miterlimit="10"/>
<path d="M70.7822 268.01C70.4852 269.012 70.3369 270.053 70.3419 271.099L70.7822 268.01Z" fill="white"/>
<path d="M70.7822 268.01C70.4852 269.012 70.3369 270.053 70.3419 271.099" stroke="#263238" stroke-miterlimit="10"/>
<path d="M106.032 300.98C106.612 301.581 107.248 302.727 106.941 303.028C106.633 303.328 105.501 302.657 104.921 302.056C104.341 301.455 104.117 300.736 104.425 300.435C104.732 300.135 105.452 300.379 106.032 300.98Z" fill="white" stroke="#263238" stroke-miterlimit="10"/>
<path d="M118.318 301.231C118.017 302.007 117.241 303.069 116.843 302.915C116.445 302.762 116.571 301.455 116.843 300.679C117.116 299.903 117.71 299.393 118.108 299.547C118.506 299.701 118.611 300.455 118.318 301.231Z" fill="white" stroke="#263238" stroke-miterlimit="10"/>
<path d="M119.184 309.575C118.884 310.351 118.108 311.413 117.71 311.259C117.312 311.105 117.444 309.798 117.71 309.023C117.975 308.247 118.576 307.737 118.975 307.891C119.373 308.044 119.485 308.799 119.184 309.575Z" fill="white" stroke="#263238" stroke-miterlimit="10"/>
<path d="M112.496 305.915C112.196 306.698 111.42 307.753 111.022 307.599C110.623 307.445 110.756 306.146 111.022 305.363C111.287 304.58 111.888 304.077 112.287 304.231C112.685 304.384 112.797 305.139 112.496 305.915Z" fill="white" stroke="#263238" stroke-miterlimit="10"/>
<path d="M104.453 310.973C104.152 311.749 103.376 312.811 102.978 312.658C102.58 312.504 102.712 311.197 102.978 310.421C103.244 309.645 103.845 309.135 104.243 309.289C104.641 309.443 104.753 310.191 104.453 310.973Z" fill="white" stroke="#263238" stroke-miterlimit="10"/>
<path d="M126.997 292.741C127.577 293.342 128.213 294.488 127.906 294.788C127.598 295.089 126.466 294.418 125.886 293.817C125.306 293.216 125.083 292.496 125.39 292.196C125.698 291.895 126.417 292.147 126.997 292.741Z" fill="white" stroke="#263238" stroke-miterlimit="10"/>
<path d="M139.283 292.993C138.983 293.776 138.207 294.831 137.809 294.677C137.41 294.523 137.543 293.216 137.809 292.441C138.074 291.665 138.675 291.155 139.073 291.309C139.472 291.462 139.584 292.217 139.283 292.993Z" fill="white" stroke="#263238" stroke-miterlimit="10"/>
<path d="M140.15 301.337C139.849 302.119 139.073 303.175 138.675 303.021C138.277 302.867 138.409 301.56 138.675 300.784C138.941 300.009 139.542 299.499 139.94 299.652C140.338 299.806 140.45 300.561 140.15 301.337Z" fill="white" stroke="#263238" stroke-miterlimit="10"/>
<path d="M133.462 297.682C133.161 298.457 132.385 299.513 131.987 299.359C131.589 299.205 131.721 297.905 131.987 297.123C132.253 296.34 132.854 295.837 133.252 295.991C133.65 296.144 133.762 296.899 133.462 297.682Z" fill="white" stroke="#263238" stroke-miterlimit="10"/>
<path d="M125.418 302.735C125.117 303.518 124.342 304.573 123.943 304.419C123.545 304.265 123.678 302.959 123.943 302.183C124.209 301.407 124.81 300.897 125.208 301.051C125.607 301.205 125.718 301.959 125.418 302.735Z" fill="white" stroke="#263238" stroke-miterlimit="10"/>
<path d="M129.346 306.32C129.926 306.921 130.562 308.074 130.254 308.368C129.947 308.661 128.856 307.997 128.241 307.403C127.626 306.809 127.438 306.076 127.738 305.782C128.039 305.489 128.766 305.747 129.346 306.32Z" fill="white" stroke="#263238" stroke-miterlimit="10"/>
<path d="M141.631 306.578C141.33 307.354 140.555 308.409 140.156 308.255C139.758 308.102 139.891 306.802 140.156 306.019C140.422 305.236 141.023 304.733 141.421 304.887C141.82 305.041 141.932 305.796 141.631 306.578Z" fill="white" stroke="#263238" stroke-miterlimit="10"/>
<path d="M142.498 314.922C142.204 315.698 141.428 316.753 141.03 316.599C140.632 316.445 140.758 315.146 141.03 314.363C141.303 313.58 141.89 313.077 142.288 313.231C142.686 313.384 142.798 314.132 142.498 314.922Z" fill="white" stroke="#263238" stroke-miterlimit="10"/>
<path d="M135.81 311.26C135.516 312.036 134.74 313.098 134.342 312.945C133.944 312.791 134.07 311.484 134.342 310.708C134.615 309.933 135.202 309.422 135.6 309.576C135.998 309.73 136.11 310.478 135.81 311.26Z" fill="white" stroke="#263238" stroke-miterlimit="10"/>
<path d="M127.766 316.313C127.466 317.096 126.69 318.151 126.291 317.998C125.893 317.844 126.026 316.544 126.291 315.761C126.557 314.979 127.158 314.475 127.556 314.629C127.955 314.783 128.067 315.531 127.766 316.313Z" fill="white" stroke="#263238" stroke-miterlimit="10"/>
<path d="M149.332 298.002C149.913 298.603 150.541 299.75 150.234 300.05C149.927 300.351 148.836 299.68 148.221 299.086C147.606 298.492 147.418 297.758 147.725 297.457C148.033 297.157 148.745 297.408 149.332 298.002Z" fill="white" stroke="#263238" stroke-miterlimit="10"/>
<path d="M161.611 298.255C161.318 299.038 160.535 300.093 160.136 299.939C159.738 299.785 159.871 298.485 160.171 297.703C160.472 296.92 161.031 296.417 161.429 296.571C161.828 296.724 161.912 297.479 161.611 298.255Z" fill="white" stroke="#263238" stroke-miterlimit="10"/>
<path d="M162.457 306.601C162.163 307.383 161.387 308.438 160.989 308.285C160.591 308.131 160.717 306.831 160.989 306.048C161.262 305.266 161.849 304.763 162.247 304.916C162.645 305.07 162.778 305.825 162.457 306.601Z" fill="white" stroke="#263238" stroke-miterlimit="10"/>
<path d="M155.79 302.951C155.496 303.726 154.72 304.789 154.322 304.635C153.924 304.481 154.05 303.174 154.322 302.399C154.595 301.623 155.182 301.113 155.58 301.26C155.978 301.406 156.09 302.161 155.79 302.951Z" fill="white" stroke="#263238" stroke-miterlimit="10"/>
<path d="M147.781 307.997C147.487 308.78 146.712 309.835 146.313 309.681C145.915 309.527 146.041 308.228 146.313 307.445C146.586 306.662 147.173 306.159 147.571 306.313C147.97 306.467 148.046 307.221 147.781 307.997Z" fill="white" stroke="#263238" stroke-miterlimit="10"/>
<path d="M170.039 288.065C170.619 288.666 171.248 289.812 170.941 290.113C170.633 290.413 169.508 289.742 168.928 289.141C168.348 288.54 168.124 287.82 168.432 287.52C168.739 287.219 169.445 287.471 170.039 288.065Z" fill="white" stroke="#263238" stroke-miterlimit="10"/>
<path d="M182.318 288.317C182.024 289.1 181.249 290.155 180.85 290.001C180.452 289.848 180.578 288.541 180.85 287.765C181.123 286.989 181.71 286.479 182.108 286.633C182.506 286.787 182.618 287.576 182.318 288.317Z" fill="white" stroke="#263238" stroke-miterlimit="10"/>
<path d="M183.191 296.663C182.891 297.445 182.115 298.501 181.717 298.347C181.319 298.193 181.444 296.886 181.717 296.111C181.989 295.335 182.583 294.825 182.982 294.979C183.38 295.132 183.485 295.887 183.191 296.663Z" fill="white" stroke="#263238" stroke-miterlimit="10"/>
<path d="M176.503 293.006C176.203 293.782 175.427 294.837 175.029 294.683C174.631 294.529 174.756 293.23 175.029 292.447C175.301 291.664 175.895 291.161 176.294 291.315C176.692 291.468 176.797 292.223 176.503 293.006Z" fill="white" stroke="#263238" stroke-miterlimit="10"/>
<path d="M168.453 298.059C168.159 298.835 167.384 299.897 166.985 299.743C166.587 299.59 166.713 298.283 166.985 297.507C167.258 296.731 167.845 296.221 168.243 296.375C168.641 296.529 168.746 297.284 168.453 298.059Z" fill="white" stroke="#263238" stroke-miterlimit="10"/>
<path d="M176.601 300.785C177.181 301.379 177.817 302.532 177.51 302.826C177.202 303.119 176.077 302.455 175.49 301.861C174.903 301.267 174.686 300.533 174.994 300.24C175.301 299.946 176.021 300.156 176.601 300.785Z" fill="white" stroke="#263238" stroke-miterlimit="10"/>
<path d="M188.887 301.035C188.587 301.811 187.811 302.866 187.413 302.712C187.014 302.559 187.147 301.259 187.413 300.476C187.678 299.693 188.279 299.19 188.677 299.344C189.076 299.498 189.188 300.253 188.887 301.035Z" fill="white" stroke="#263238" stroke-miterlimit="10"/>
<path d="M189.754 309.381C189.46 310.157 188.677 311.212 188.279 311.065C187.881 310.918 188.013 309.605 188.314 308.822C188.614 308.039 189.174 307.536 189.572 307.69C189.97 307.843 190.054 308.598 189.754 309.381Z" fill="white" stroke="#263238" stroke-miterlimit="10"/>
<path d="M183.066 305.747C182.772 306.522 181.989 307.585 181.591 307.431C181.193 307.277 181.326 305.97 181.626 305.195C181.927 304.419 182.486 303.909 182.884 304.063C183.282 304.216 183.366 304.943 183.066 305.747Z" fill="white" stroke="#263238" stroke-miterlimit="10"/>
<path d="M175.036 310.77C174.736 311.553 173.96 312.608 173.561 312.455C173.163 312.301 173.296 311.001 173.561 310.218C173.827 309.436 174.428 308.932 174.826 309.086C175.225 309.24 175.323 309.995 175.036 310.77Z" fill="white" stroke="#263238" stroke-miterlimit="10"/>
<path d="M191.808 283.747C192.388 284.348 193.024 285.494 192.717 285.794C192.409 286.095 191.277 285.424 190.697 284.823C190.117 284.222 189.893 283.502 190.201 283.201C190.508 282.901 191.242 283.153 191.808 283.747Z" fill="white" stroke="#263238" stroke-miterlimit="10"/>
<path d="M204.108 283.999C203.807 284.782 203.031 285.837 202.633 285.683C202.235 285.529 202.361 284.23 202.633 283.447C202.906 282.664 203.5 282.161 203.898 282.315C204.296 282.468 204.387 283.223 204.108 283.999Z" fill="white" stroke="#263238" stroke-miterlimit="10"/>
<path d="M204.974 292.343C204.674 293.125 203.898 294.181 203.5 294.027C203.101 293.873 203.234 292.573 203.5 291.791C203.765 291.008 204.366 290.505 204.765 290.658C205.163 290.812 205.275 291.567 204.974 292.343Z" fill="white" stroke="#263238" stroke-miterlimit="10"/>
<path d="M198.287 288.688C197.986 289.463 197.21 290.519 196.812 290.372C196.414 290.225 196.546 288.911 196.812 288.128C197.078 287.346 197.679 286.843 198.077 286.996C198.475 287.15 198.587 287.905 198.287 288.688Z" fill="white" stroke="#263238" stroke-miterlimit="10"/>
<path d="M190.243 293.741C189.942 294.524 189.167 295.579 188.768 295.425C188.37 295.271 188.496 293.964 188.768 293.189C189.041 292.413 189.635 291.903 190.033 292.057C190.432 292.21 190.536 292.965 190.243 293.741Z" fill="white" stroke="#263238" stroke-miterlimit="10"/>
<path d="M158.69 306.992C158.613 307.816 158.166 309.088 157.74 309.011C157.313 308.935 157.076 307.691 157.146 306.859C157.216 306.027 157.621 305.384 158.047 305.419C158.473 305.454 158.76 306.16 158.69 306.992Z" fill="white" stroke="#263238" stroke-miterlimit="10"/>
<path d="M166.545 316.431C165.762 316.717 164.449 316.822 164.309 316.431C164.169 316.039 165.238 315.278 166.021 314.991C166.804 314.704 167.558 314.802 167.705 315.201C167.852 315.599 167.349 316.144 166.545 316.431Z" fill="white" stroke="#263238" stroke-miterlimit="10"/>
<path d="M198.014 301.652C197.413 302.225 196.253 302.847 195.959 302.54C195.666 302.232 196.344 301.107 196.945 300.534C197.546 299.961 198.279 299.744 198.573 300.052C198.867 300.359 198.622 301.079 198.014 301.652Z" fill="white" stroke="#263238" stroke-miterlimit="10"/>
<path d="M210.74 285.649C210.425 286.425 209.629 287.466 209.23 287.305C208.832 287.144 208.993 285.838 209.307 285.069C209.622 284.3 210.195 283.797 210.593 283.958C210.991 284.118 211.054 284.88 210.74 285.649Z" fill="white" stroke="#263238" stroke-miterlimit="10"/>
<path d="M182.674 312.191C182.073 312.764 180.92 313.386 180.62 313.071C180.319 312.757 181.004 311.638 181.612 311.065C182.22 310.492 182.94 310.276 183.24 310.583C183.541 310.891 183.282 311.611 182.674 312.191Z" fill="white" stroke="#263238" stroke-miterlimit="10"/>
<path d="M151.38 317.494C150.597 317.774 149.284 317.885 149.144 317.494C149.004 317.103 150.066 316.334 150.856 316.054C151.646 315.775 152.393 315.859 152.533 316.264C152.673 316.669 152.163 317.207 151.38 317.494Z" fill="white" stroke="#263238" stroke-miterlimit="10"/>
<path d="M113.992 319.591C113.16 319.626 111.895 319.333 111.86 318.892C111.825 318.452 113.097 318.075 113.957 318.04C114.816 318.005 115.48 318.319 115.494 318.739C115.508 319.158 114.823 319.556 113.992 319.591Z" fill="white" stroke="#263238" stroke-miterlimit="10"/>
<path d="M110.952 314.762C110.12 314.797 108.855 314.504 108.855 314.063C108.855 313.623 110.085 313.239 110.952 313.204C111.819 313.169 112.475 313.49 112.496 313.903C112.517 314.315 111.784 314.734 110.952 314.762Z" fill="white" stroke="#263238" stroke-miterlimit="10"/>
<path d="M96.346 318.487C95.5353 318.27 94.4032 317.613 94.515 317.201C94.6268 316.788 95.9127 316.781 96.7373 316.991C97.562 317.201 98.135 317.69 98.0022 318.13C97.8695 318.57 97.1497 318.703 96.346 318.487Z" fill="white" stroke="#263238" stroke-miterlimit="10"/>
<path d="M99.6025 308.647C98.9806 309.206 97.8065 309.793 97.506 309.479C97.2055 309.164 97.9253 308.081 98.5473 307.501C99.1693 306.921 99.903 306.746 100.19 307.068C100.476 307.389 100.259 308.095 99.6025 308.647Z" fill="white" stroke="#263238" stroke-miterlimit="10"/>
<path d="M135.251 318.632C134.468 318.918 133.154 319.023 133.014 318.632C132.875 318.24 133.937 317.479 134.727 317.192C135.516 316.906 136.264 317.003 136.404 317.402C136.544 317.8 136.033 318.324 135.251 318.632Z" fill="white" stroke="#263238" stroke-miterlimit="10"/>
<path d="M159.193 315.104C158.41 315.39 157.097 315.495 156.957 315.104C156.817 314.712 157.886 313.944 158.669 313.657C159.452 313.37 160.206 313.468 160.353 313.867C160.5 314.265 159.983 314.831 159.193 315.104Z" fill="white" stroke="#263238" stroke-miterlimit="10"/>
<path d="M156.803 293.623C156.021 293.902 154.707 294.014 154.567 293.623C154.427 293.232 155.489 292.463 156.272 292.183C157.055 291.904 157.81 291.988 157.956 292.393C158.103 292.798 157.565 293.336 156.803 293.623Z" fill="white" stroke="#263238" stroke-miterlimit="10"/>
<path d="M119.743 258.223C119.743 258.223 114.278 250.941 115.138 245.483C115.997 240.025 111.238 237.363 109.938 239.131C108.639 240.899 109.973 244.938 107.01 242.968C104.047 240.997 104.383 233.68 102.056 231.129C99.7284 228.578 97.4431 231.828 97.9952 233.079C98.5473 234.33 96.9539 235.783 94.5709 234.477C92.1878 233.17 89.7908 218.983 85.0107 223.337C80.2306 227.691 87.3658 231.723 84.8989 232.198C82.4319 232.674 74.528 225.301 72.3197 226.726C70.1113 228.152 76.0375 232.087 74.4721 232.932C72.9067 233.778 68.4341 231.43 67.3649 234.742C66.2956 238.055 74.3533 235.979 74.1926 239.033C74.0318 242.087 69.3775 244.002 70.4817 246.497C71.5859 248.992 79.5667 248.747 78.791 251.766C78.0152 254.785 77.8475 259.055 81.796 259.544C85.7445 260.033 90.9928 258.747 89.3435 261.424C87.6942 264.101 90.3079 266.966 94.8923 266.875C99.4768 266.784 103.055 268.769 102.021 271.501C100.986 274.234 105.801 275.653 108.31 274.541C110.819 273.43 114.257 271.459 115.04 274.248C115.823 277.036 118.297 276.533 120.505 275.107C122.713 273.682 125.173 273.186 125.991 275.366C126.809 277.546 132.141 274.43 132.141 274.43C132.141 274.43 137.892 275.611 139.129 275.058C140.366 274.506 139.556 272.326 137.494 270.705C135.432 269.083 131.072 264.296 130.505 263.052C129.939 261.808 126.753 258.293 125.795 259.167C124.838 260.04 120.267 260.096 119.743 258.223Z" fill="#CEFE8F" stroke="#263238" stroke-miterlimit="10"/>
<path d="M82.9492 242.709C81.9973 241.834 81.1011 240.901 80.2656 239.914" stroke="#263238" stroke-miterlimit="10"/>
<path d="M120.687 266.001C118.947 265.26 117.192 264.533 115.508 263.848C107.779 260.704 94.8224 252.576 86.4922 245.783" stroke="#263238" stroke-miterlimit="10"/>
<path d="M137.997 273.745C137.997 273.745 132.043 270.949 124.985 267.854" stroke="#263238" stroke-miterlimit="10"/>
<path d="M191.424 241.967C191.424 241.967 182.618 240.989 179.327 236.733C176.035 232.477 170.941 234.077 171.36 236.188C171.779 238.298 175.497 240.031 172.122 240.814C168.746 241.597 163.792 236.481 160.437 236.425C157.083 236.369 157.851 240.164 159.109 240.618C160.367 241.072 160.325 243.162 157.795 243.959C155.266 244.755 143.623 237.012 143.525 243.309C143.427 249.605 151.024 247.208 149.731 249.291C148.438 251.373 137.92 252.037 137.466 254.553C137.012 257.069 143.756 255.49 143.301 257.167C142.847 258.844 138.207 260.444 139.807 263.408C141.408 266.371 145.328 259.298 147.397 261.43C149.465 263.561 147.711 268.153 150.192 269.033C152.673 269.914 157.83 264.141 159.473 266.664C161.115 269.187 164.001 272.199 166.978 269.725C169.955 267.251 172.569 262.681 173.345 265.63C174.12 268.579 177.915 268.642 180.913 265.329C183.911 262.017 187.706 260.822 188.922 263.359C190.138 265.895 194.38 263.449 195.261 260.948C196.141 258.446 197.043 254.658 199.537 255.972C202.032 257.286 203.332 255.196 203.793 252.68C204.255 250.164 205.548 248.089 207.63 248.962C209.713 249.836 211.075 243.98 211.075 243.98C211.075 243.98 215.744 240.695 216.184 239.444C216.624 238.193 214.542 237.348 211.991 237.697C209.44 238.046 203.171 237.977 201.921 237.536C200.67 237.096 196.043 237.019 196.022 238.277C196.001 239.535 193.087 242.848 191.424 241.967Z" fill="#CEFE8F" stroke="#263238" stroke-miterlimit="10"/>
<path d="M155.881 257.678C154.626 257.757 153.368 257.757 152.114 257.678" stroke="#263238" stroke-miterlimit="10"/>
<path d="M197.553 246.482C195.868 247.216 194.184 247.971 192.577 248.705C185.19 252.094 170.794 255.847 160.43 257.217" stroke="#263238" stroke-miterlimit="10"/>
<path d="M214.563 239.404C214.563 239.404 208.608 241.759 201.704 244.695" stroke="#263238" stroke-miterlimit="10"/>
<path d="M129.24 69.207C129.24 69.207 127.927 59.8775 120.288 57.4665C112.65 55.0554 104.564 60.3177 101.056 64.993C97.5479 69.6683 97.1426 75.0564 99.2111 78.1942C101.28 81.332 107.234 87.1394 114.886 88.572C122.539 90.0047 126.403 85.9094 128.052 82.2475C129.977 78.1777 130.398 73.5576 129.24 69.207Z" fill="#CEFE8F" stroke="#263238" stroke-miterlimit="10"/>
<path d="M127.396 69.6401C127.396 69.6401 126.236 61.4357 119.52 59.3182C112.804 57.2007 105.697 61.827 102.615 65.9362C99.5327 70.0454 99.1693 74.7836 100.993 77.544C102.817 80.3045 108.045 85.4061 114.768 86.629C121.49 87.852 124.894 84.2949 126.347 81.0732C128.031 77.5042 128.402 73.4558 127.396 69.6401Z" fill="white"/>
<path d="M115.403 65.0691C115.403 65.0691 115.893 63.2241 114.523 62.2737C113.153 61.3233 109.631 62.4694 106.053 65.2787C102.475 68.0881 101.944 72.966 102.202 74.196C102.461 75.4259 106.353 75.0066 106.353 75.0066L106.891 76.3065C106.891 76.3065 104.914 78.403 105.081 79.4233C105.249 80.4437 110.288 83.6723 114.865 84.7695C119.443 85.8667 122.014 83.1272 121.854 82.1978C121.626 81.3071 121.33 80.4355 120.966 79.5911L121.267 78.2982C121.267 78.2982 124.23 78.3471 125.082 76.9704C125.935 75.5937 125.292 69.94 123.762 66.9559C122.231 63.9719 118.737 63.1752 118.08 63.5316C117.423 63.888 116.752 65.4534 116.752 65.4534C116.282 65.412 115.825 65.2816 115.403 65.0691Z" fill="#CEFE8F"/>
<path d="M118.38 69.5352C118.38 69.5352 116.92 68.2144 117.493 67.3898C118.066 66.5651 119.17 66.3974 118.541 65.2932C117.912 64.1891 115.047 64.217 114.572 64.7621C114.096 65.3072 115.208 65.6077 115.194 66.4394C115.18 67.271 114.802 67.7322 113.097 68.445C111.392 69.1579 109.889 72.1839 109.505 73.288C109.121 74.3922 108.548 75.126 107.534 74.6438C106.521 74.1616 105.606 73.8751 105.675 75.1749C105.745 76.4748 107.29 78.5294 107.94 78.173C108.59 77.8165 108.324 77.3413 108.694 77.3483C109.065 77.3553 113.118 78.8089 114.781 78.9277C116.445 79.0465 117.479 77.7676 118.122 78.152C118.765 78.5364 118.457 80.563 119.471 80.6678C120.484 80.7727 122.825 79.1513 122.378 78.124C121.931 77.0967 121.169 78.4735 120.086 76.8871C119.002 75.3007 119.981 72.072 119.54 70.7652C119.1 69.4584 118.38 69.5352 118.38 69.5352Z" fill="white"/>
<path d="M112.231 66.5291C112.811 67.1301 113.447 68.2762 113.139 68.5767C112.832 68.8772 111.7 68.2063 111.12 67.6053C110.54 67.0043 110.316 66.2845 110.623 65.984C110.931 65.6835 111.651 65.9281 112.231 66.5291Z" fill="white"/>
<path d="M120.023 68.2768C119.373 68.8009 118.171 69.325 117.926 68.9756C117.682 68.6262 118.429 67.5779 119.079 67.0608C119.729 66.5436 120.477 66.3619 120.736 66.7113C120.994 67.0608 120.673 67.7526 120.023 68.2768Z" fill="white"/>
<path d="M109.617 79.8371C109.841 79.0404 110.518 77.9153 110.931 78.0341C111.343 78.1529 111.329 79.4318 111.098 80.2634C110.868 81.095 110.358 81.6192 109.945 81.5003C109.533 81.3815 109.386 80.6408 109.617 79.8371Z" fill="white"/>
<path d="M112.566 80.5571C112.685 79.7324 113.202 78.5234 113.621 78.5863C114.041 78.6492 114.215 79.9421 114.104 80.7667C113.992 81.5914 113.551 82.2203 113.125 82.1644C112.699 82.1085 112.454 81.4167 112.566 80.5571Z" fill="white"/>
<path d="M116.577 80.9462C116.228 80.1914 116.011 78.8985 116.396 78.7168C116.78 78.5351 117.633 79.5415 117.982 80.2962C118.331 81.051 118.304 81.8127 117.912 81.9944C117.521 82.1761 116.927 81.7079 116.577 80.9462Z" fill="white"/>
<path d="M121.588 70.9329C120.819 71.2684 119.492 71.4501 119.352 71.0587C119.212 70.6673 120.204 69.8427 120.973 69.5143C121.742 69.1858 122.497 69.2347 122.664 69.6261C122.832 70.0174 122.35 70.5975 121.588 70.9329Z" fill="white"/>
<path d="M121.525 75.0566C120.687 75.0985 119.429 74.812 119.394 74.3577C119.359 73.9035 120.617 73.5261 121.49 73.4842C122.364 73.4422 123.014 73.7637 123.028 74.183C123.042 74.6023 122.357 75.0216 121.525 75.0566Z" fill="white"/>
<path d="M109.973 68.6196C110.553 69.2206 111.189 70.3667 110.882 70.6672C110.574 70.9677 109.484 70.2969 108.869 69.7028C108.254 69.1088 108.065 68.375 108.366 68.0745C108.666 67.774 109.393 68.0256 109.973 68.6196Z" fill="white"/>
<path d="M107.947 71.631C108.646 72.0992 109.498 73.0916 109.261 73.448C109.023 73.8044 107.779 73.3781 107.087 72.9169C106.395 72.4556 106.025 71.7848 106.263 71.4283C106.5 71.0719 107.283 71.1768 107.947 71.631Z" fill="white"/>
<path d="M172.122 122.543C172.122 122.543 179.872 118.532 179.641 111.117C179.411 103.702 172.345 98.2444 167.181 96.6091C162.016 94.9738 157.18 96.2667 155.077 99.0341C152.973 101.802 149.703 108.783 150.793 115.911C151.883 123.039 156.642 125.171 160.353 125.492C164.501 125.93 168.67 124.885 172.122 122.543Z" fill="#CEFE8F" stroke="#263238" stroke-miterlimit="10"/>
<path d="M171.171 121.055C171.171 121.055 177.992 117.561 177.789 111.012C177.587 104.464 171.367 99.6981 166.831 98.2585C162.296 96.8189 158.04 97.951 156.188 100.39C154.336 102.829 151.464 108.965 152.428 115.233C153.393 121.502 157.565 123.368 160.814 123.62C164.462 124.02 168.132 123.111 171.171 121.055Z" fill="white"/>
<path d="M171.5 109.174C171.5 109.174 173.261 109.041 173.673 107.552C174.085 106.064 171.996 103.317 168.446 101.067C164.896 98.8168 160.451 99.8371 159.473 100.431C158.494 101.025 160.039 104.31 160.039 104.31L159.06 105.169C159.06 105.169 156.628 104.086 155.783 104.547C154.937 105.009 153.686 110.397 154.119 114.764C154.553 119.132 157.746 120.516 158.501 120.083C159.213 119.613 159.886 119.087 160.514 118.51L161.73 118.377C161.73 118.377 162.596 120.977 164.057 121.306C165.518 121.634 170.27 119.335 172.443 117.113C174.617 114.89 174.211 111.522 173.694 111.095C173.177 110.669 171.598 110.522 171.598 110.522C171.48 110.083 171.447 109.625 171.5 109.174Z" fill="#CEFE8F"/>
<path d="M168.488 113.158C168.488 113.158 169.186 111.473 170.088 111.718C170.989 111.963 171.486 112.885 172.254 111.991C173.023 111.096 172.122 108.608 171.5 108.364C170.878 108.119 170.961 109.174 170.228 109.419C169.494 109.663 168.977 109.468 167.845 108.217C166.712 106.966 163.589 106.561 162.505 106.561C161.422 106.561 160.605 106.288 160.716 105.254C160.828 104.219 160.8 103.332 159.689 103.793C158.578 104.254 157.243 106.225 157.76 106.686C158.277 107.148 158.599 106.77 158.711 107.099C158.823 107.427 158.788 111.41 159.186 112.899C159.584 114.388 161.031 114.905 160.891 115.583C160.751 116.26 158.885 116.61 159.102 117.532C159.319 118.455 161.457 120.006 162.219 119.3C162.981 118.595 161.52 118.35 162.596 116.917C163.672 115.485 166.789 115.345 167.782 114.562C168.774 113.78 168.488 113.158 168.488 113.158Z" fill="white"/>
<path d="M169.256 106.848C168.907 107.547 168.096 108.448 167.74 108.245C167.383 108.043 167.628 106.848 167.97 106.191C168.313 105.534 168.886 105.08 169.235 105.254C169.585 105.429 169.599 106.156 169.256 106.848Z" fill="white"/>
<path d="M170.144 114.2C169.487 113.788 168.662 112.9 168.872 112.565C169.082 112.229 170.27 112.565 170.899 112.984C171.527 113.403 171.919 113.997 171.709 114.333C171.5 114.668 170.766 114.605 170.144 114.2Z" fill="white"/>
<path d="M156.817 108.628C157.586 108.586 158.781 108.837 158.802 109.229C158.823 109.62 157.677 110.018 156.901 110.06C156.125 110.102 155.503 109.823 155.461 109.431C155.419 109.04 156.048 108.67 156.817 108.628Z" fill="white"/>
<path d="M157.097 111.465C157.851 111.311 159.067 111.395 159.144 111.78C159.221 112.164 158.138 112.716 157.376 112.87C156.614 113.024 155.978 112.828 155.867 112.437C155.755 112.045 156.335 111.584 157.097 111.465Z" fill="white"/>
<path d="M157.977 115.066C158.529 114.528 159.598 113.941 159.871 114.221C160.144 114.5 159.529 115.555 158.976 116.093C158.424 116.632 157.746 116.834 157.474 116.555C157.201 116.275 157.425 115.604 157.977 115.066Z" fill="white"/>
<path d="M168.271 116.359C167.747 115.793 167.188 114.71 167.481 114.445C167.775 114.179 168.802 114.822 169.326 115.388C169.85 115.954 170.025 116.632 169.745 116.904C169.466 117.177 168.795 116.939 168.271 116.359Z" fill="white"/>
<path d="M164.637 117.582C164.351 116.883 164.211 115.66 164.581 115.485C164.952 115.31 165.678 116.303 165.979 117.023C166.279 117.742 166.202 118.42 165.832 118.588C165.462 118.756 164.931 118.301 164.637 117.582Z" fill="white"/>
<path d="M166.733 105.518C166.391 106.217 165.58 107.112 165.224 106.916C164.868 106.72 165.105 105.518 165.455 104.82C165.804 104.121 166.363 103.715 166.72 103.89C167.076 104.065 167.083 104.827 166.733 105.518Z" fill="white"/>
<path d="M163.484 104.694C163.288 105.442 162.68 106.49 162.303 106.392C161.925 106.295 161.904 105.079 162.1 104.296C162.296 103.513 162.764 103.024 163.141 103.122C163.519 103.22 163.68 103.946 163.484 104.694Z" fill="white"/>
<path d="M135.202 215.992C124.504 215.825 113.862 214.418 103.488 211.799C78.6794 205.51 63.0323 194.251 62.3754 193.776C59.1791 191.459 57.0341 187.968 56.4122 184.069C55.7904 180.171 56.7426 176.185 59.0594 172.989C61.3762 169.793 64.8678 167.648 68.7662 167.026C72.6645 166.404 76.6502 167.356 79.8465 169.673C80.154 169.89 92.5026 178.513 111.993 183.237C137.683 189.464 163.358 186.319 188.293 173.887C191.825 172.126 195.912 171.84 199.654 173.093C203.396 174.345 206.488 177.033 208.249 180.564C210.01 184.096 210.295 188.183 209.043 191.925C207.791 195.667 205.103 198.759 201.571 200.52C177.203 212.631 154.441 216.293 135.202 215.992Z" fill="#CEFE8F" stroke="#263238" stroke-miterlimit="10"/>
<path d="M206.065 190.604C205.518 192.376 204.617 194.018 203.416 195.431C202.214 196.844 200.738 197.998 199.076 198.822C188.691 204.047 177.682 207.924 166.314 210.36" stroke="#263238" stroke-miterlimit="10"/>
<path d="M205.715 181.506C206.226 182.791 206.54 184.146 206.645 185.524" stroke="#263238" stroke-miterlimit="10"/>
<path d="M89.5255 202.728C88.3468 202.225 87.2147 201.722 86.1292 201.219" stroke="#263238" stroke-miterlimit="10"/>
<path d="M161.059 211.358C143.63 214.301 125.778 213.573 108.646 209.22C103.181 207.826 97.812 206.079 92.5725 203.992" stroke="#263238" stroke-miterlimit="10"/>
<path opacity="0.2" d="M81.6424 172.267C81.6424 172.267 83.6761 175.698 81.2231 182.198C78.7702 188.697 77.7289 189.724 79.5319 189.759C81.3349 189.794 84.5846 184.609 85.1856 179.388C85.7866 174.168 83.4874 172.05 81.6424 172.267Z" fill="black"/>
<path opacity="0.2" d="M95.6684 178.555C95.6684 178.555 97.7021 181.986 95.2421 188.485C92.7822 194.985 91.7479 196.019 93.5509 196.047C95.3539 196.075 98.6036 190.896 99.2116 185.676C99.8195 180.456 97.4994 178.289 95.6684 178.555Z" fill="black"/>
<path opacity="0.2" d="M110.742 183.998C110.742 183.998 112.776 187.43 110.316 193.929C107.856 200.428 106.822 201.455 108.625 201.483C110.428 201.511 113.678 196.333 114.286 191.112C114.894 185.892 112.58 183.761 110.742 183.998Z" fill="black"/>
<path opacity="0.2" d="M125.628 186.711C125.628 186.711 128.06 189.876 126.383 196.62C124.705 203.364 123.769 204.51 125.593 204.308C127.417 204.105 130.003 198.598 129.989 193.343C129.975 188.087 127.424 186.242 125.628 186.711Z" fill="black"/>
<path opacity="0.2" d="M140.213 187.682C140.213 187.682 142.931 190.611 141.911 197.466C140.891 204.322 140.066 205.573 141.862 205.21C143.658 204.846 145.706 199.109 145.188 193.874C144.671 188.64 141.96 187.068 140.213 187.682Z" fill="black"/>
<path opacity="0.2" d="M157.474 186.803C157.474 186.803 160.612 189.27 160.668 196.223C160.724 203.177 160.102 204.511 161.821 203.91C163.54 203.309 164.672 197.278 163.351 192.191C162.031 187.103 159.102 185.929 157.474 186.803Z" fill="black"/>
<path opacity="0.2" d="M175.288 182.12C175.288 182.12 178.726 184.14 179.704 191.024C180.683 197.907 180.256 199.319 181.871 198.459C183.485 197.6 183.814 191.513 181.829 186.642C179.844 181.771 176.783 181.03 175.288 182.12Z" fill="black"/>
<path d="M90.8601 86.4045C83.3056 86.2787 77.0928 91.7087 76.981 98.5224C76.8692 105.336 82.9072 110.962 90.4617 111.102C98.0162 111.241 104.222 105.797 104.334 98.9837C104.446 92.17 98.4076 86.5233 90.8601 86.4045ZM89.5113 110.067C83.1308 109.963 78.0293 105.385 78.1201 99.8293C78.211 94.2735 83.4523 89.8638 89.8328 89.9686C96.2132 90.0734 101.308 94.6578 101.224 100.207C101.14 105.755 95.8848 110.165 89.5113 110.067Z" fill="white" stroke="#263238" stroke-linecap="round" stroke-linejoin="round"/>
<path d="M97.2195 88.1094L96.5137 89.1227" stroke="#263238" stroke-linecap="round" stroke-linejoin="round"/>
<path d="M100.672 90.7227L100.064 91.3167" stroke="#263238" stroke-linecap="round" stroke-linejoin="round"/>
<path d="M103.509 94.7012L102.475 95.3651" stroke="#263238" stroke-linecap="round" stroke-linejoin="round"/>
<path d="M91.6078 86.6562L91.5029 87.6766" stroke="#263238" stroke-linecap="round" stroke-linejoin="round"/>
<path d="M85.5347 87.4941L85.5208 88.0882" stroke="#263238" stroke-linecap="round" stroke-linejoin="round"/>
<path d="M104.089 101.283L102.894 101.178" stroke="#263238" stroke-linecap="round" stroke-linejoin="round"/>
<path d="M94.3125 109.488L94.8087 110.523" stroke="#263238" stroke-linecap="round" stroke-linejoin="round"/>
<path d="M100.169 106.336L100.923 106.86" stroke="#263238" stroke-linecap="round" stroke-linejoin="round"/>
<path d="M80.1819 91.1641L80.5173 91.4226" stroke="#263238" stroke-linecap="round" stroke-linejoin="round"/>
<path d="M126.431 169.006C135.817 167.203 142.099 158.873 140.464 150.41C138.829 141.947 129.912 136.552 120.526 138.355C111.141 140.158 104.872 148.502 106.5 156.951C108.129 165.4 117.032 170.809 126.431 169.006ZM121.973 139.375C129.898 137.852 137.396 142.171 138.745 149.096C140.094 156.022 134.727 162.808 126.809 164.331C118.891 165.855 111.392 161.536 110.036 154.617C108.681 147.699 114.055 140.899 121.973 139.375Z" fill="white" stroke="#263238" stroke-linecap="round" stroke-linejoin="round"/>
<path d="M118.122 168.54L118.723 167.107" stroke="#263238" stroke-linecap="round" stroke-linejoin="round"/>
<path d="M113.167 166.2L113.768 165.312" stroke="#263238" stroke-linecap="round" stroke-linejoin="round"/>
<path d="M108.625 162.012L109.736 160.922" stroke="#263238" stroke-linecap="round" stroke-linejoin="round"/>
<path d="M125.446 168.889L125.306 167.596" stroke="#263238" stroke-linecap="round" stroke-linejoin="round"/>
<path d="M132.742 166.276L132.602 165.535" stroke="#263238" stroke-linecap="round" stroke-linejoin="round"/>
<path d="M106.207 154.017L107.709 153.842" stroke="#263238" stroke-linecap="round" stroke-linejoin="round"/>
<path d="M116.179 141.326L115.299 140.18" stroke="#263238" stroke-linecap="round" stroke-linejoin="round"/>
<path d="M109.75 146.743L108.674 146.289" stroke="#263238" stroke-linecap="round" stroke-linejoin="round"/>
<path d="M138.416 160.349L137.927 160.111" stroke="#263238" stroke-linecap="round" stroke-linejoin="round"/>
<path d="M198.524 219.632C207.91 217.829 214.192 209.506 212.557 201.043C210.922 192.58 202.004 187.185 192.626 188.988C183.247 190.791 176.965 199.114 178.593 207.577C180.221 216.04 189.146 221.442 198.524 219.632ZM194.072 190.001C201.99 188.478 209.489 192.832 210.845 199.722C212.201 206.613 206.819 213.441 198.901 214.964C190.984 216.487 183.485 212.134 182.129 205.243C180.773 198.352 186.148 191.532 194.072 190.001Z" fill="white" stroke="#263238" stroke-linecap="round" stroke-linejoin="round"/>
<path d="M190.215 219.165L190.816 217.732" stroke="#263238" stroke-linecap="round" stroke-linejoin="round"/>
<path d="M185.26 216.824L185.861 215.943" stroke="#263238" stroke-linecap="round" stroke-linejoin="round"/>
<path d="M180.718 212.643L181.829 211.553" stroke="#263238" stroke-linecap="round" stroke-linejoin="round"/>
<path d="M197.539 219.512L197.399 218.227" stroke="#263238" stroke-linecap="round" stroke-linejoin="round"/>
<path d="M204.835 216.901L204.695 216.16" stroke="#263238" stroke-linecap="round" stroke-linejoin="round"/>
<path d="M178.3 204.649L179.802 204.467" stroke="#263238" stroke-linecap="round" stroke-linejoin="round"/>
<path d="M188.272 191.957L187.391 190.811" stroke="#263238" stroke-linecap="round" stroke-linejoin="round"/>
<path d="M181.843 197.374L180.767 196.92" stroke="#263238" stroke-linecap="round" stroke-linejoin="round"/>
<path d="M210.509 210.973L210.02 210.742" stroke="#263238" stroke-linecap="round" stroke-linejoin="round"/>
<path d="M212.361 146.023C212.361 147.19 210.677 148.19 210.481 149.308C210.286 150.426 211.509 151.957 211.138 153.033C210.768 154.109 208.874 154.556 208.343 155.57C207.812 156.583 208.504 158.365 207.812 159.308C207.12 160.252 205.184 160.056 204.36 160.86C203.535 161.663 203.661 163.592 202.703 164.256C201.746 164.92 199.985 164.158 198.943 164.669C197.902 165.179 197.427 167.045 196.323 167.387C195.219 167.729 193.772 166.444 192.619 166.604C191.466 166.765 190.446 168.393 189.278 168.379C188.111 168.365 187.112 166.695 186.001 166.499C184.89 166.304 183.352 167.527 182.276 167.156C181.2 166.786 180.746 164.892 179.739 164.361C178.733 163.83 176.909 164.522 175.993 163.83C175.078 163.138 175.246 161.202 174.449 160.378C173.652 159.553 171.709 159.679 171.053 158.721C170.396 157.764 171.15 156.003 170.64 154.969C170.13 153.934 168.264 153.445 167.922 152.341C167.579 151.237 168.858 149.79 168.697 148.637C168.537 147.484 166.908 146.464 166.929 145.297C166.95 144.129 168.614 143.13 168.802 142.019C168.991 140.908 167.782 139.37 168.145 138.294C168.509 137.218 170.417 136.764 170.941 135.757C171.465 134.751 170.787 132.927 171.472 132.011C172.157 131.096 174.1 131.264 174.924 130.467C175.749 129.67 175.623 127.728 176.58 127.071C177.538 126.414 179.306 127.168 180.34 126.658C181.375 126.148 181.864 124.282 182.968 123.94C184.072 123.597 185.519 124.876 186.665 124.716C187.811 124.555 188.838 122.927 190.005 122.947C191.172 122.968 192.172 124.632 193.29 124.827C194.408 125.023 195.938 123.8 197.015 124.129C198.091 124.457 198.538 126.4 199.551 126.924C200.565 127.448 202.347 126.763 203.29 127.455C204.234 128.147 204.038 130.076 204.842 130.9C205.645 131.725 207.574 131.599 208.238 132.557C208.902 133.514 208.14 135.282 208.643 136.316C209.147 137.351 211.026 137.84 211.369 138.944C211.711 140.048 210.425 141.495 210.586 142.641C210.747 143.787 212.375 144.856 212.361 146.023Z" fill="#CEFE8F" stroke="#263238" stroke-miterlimit="10"/>
<path d="M212.249 144.731C212.249 145.898 210.565 146.898 210.369 148.009C210.174 149.12 211.397 150.658 211.033 151.734C210.67 152.81 208.762 153.264 208.238 154.271C207.714 155.277 208.392 157.101 207.7 158.016C207.008 158.932 205.079 158.764 204.255 159.561C203.43 160.358 203.556 162.3 202.598 162.957C201.641 163.614 199.873 162.859 198.839 163.37C197.804 163.88 197.315 165.753 196.211 166.088C195.107 166.424 193.66 165.152 192.514 165.312C191.368 165.473 190.341 167.101 189.174 167.08C188.006 167.059 187.007 165.396 185.889 165.208C184.771 165.019 183.24 166.228 182.164 165.864C181.088 165.501 180.641 163.593 179.627 163.069C178.614 162.545 176.832 163.223 175.888 162.538C174.945 161.853 175.141 159.91 174.337 159.086C173.533 158.261 171.605 158.387 170.941 157.429C170.277 156.472 171.038 154.704 170.528 153.67C170.018 152.635 168.152 152.153 167.81 151.042C167.467 149.931 168.753 148.498 168.593 147.345C168.432 146.192 166.803 145.172 166.817 144.005C166.831 142.837 168.502 141.838 168.697 140.72C168.893 139.602 167.67 138.071 168.04 136.995C168.411 135.919 170.305 135.472 170.836 134.458C171.367 133.445 170.675 131.663 171.367 130.72C172.059 129.776 173.995 129.972 174.819 129.168C175.644 128.364 175.518 126.436 176.476 125.772C177.433 125.108 179.194 125.87 180.228 125.366C181.263 124.863 181.752 122.983 182.856 122.648C183.96 122.312 185.407 123.584 186.56 123.424C187.713 123.263 188.733 121.635 189.9 121.649C191.067 121.663 192.067 123.333 193.178 123.528C194.289 123.724 195.827 122.501 196.903 122.872C197.979 123.242 198.433 125.136 199.44 125.667C200.446 126.198 202.27 125.513 203.185 126.198C204.101 126.883 203.933 128.826 204.73 129.65C205.526 130.475 207.469 130.349 208.126 131.307C208.783 132.264 208.028 134.025 208.539 135.066C209.049 136.108 210.915 136.583 211.257 137.687C211.599 138.791 210.321 140.238 210.481 141.391C210.642 142.544 212.27 143.564 212.249 144.731Z" fill="#CEFE8F" stroke="#263238" stroke-miterlimit="10"/>
<path d="M209.734 144.689C209.734 145.731 208.238 146.618 208.063 147.61C207.889 148.603 208.979 149.966 208.65 150.916C208.322 151.866 206.638 152.314 206.156 153.173C205.673 154.033 206.295 155.689 205.687 156.507C205.079 157.324 203.353 157.206 202.619 157.904C201.886 158.603 201.983 160.343 201.145 160.93C200.306 161.517 198.72 160.84 197.804 161.294C196.889 161.748 196.449 163.39 195.463 163.712C194.478 164.033 193.199 162.873 192.179 163.013C191.158 163.153 190.243 164.606 189.209 164.585C188.174 164.564 187.28 163.09 186.287 162.915C185.295 162.74 183.932 163.831 182.975 163.502C182.017 163.174 181.619 161.489 180.718 161.007C179.816 160.525 178.202 161.154 177.391 160.539C176.58 159.924 176.727 158.205 175.993 157.471C175.26 156.737 173.561 156.835 172.974 155.997C172.387 155.158 173.058 153.579 172.611 152.656C172.164 151.734 170.514 151.3 170.193 150.322C169.872 149.344 171.025 148.051 170.892 147.03C170.759 146.01 169.305 145.095 169.319 144.06C169.333 143.026 170.815 142.131 170.99 141.139C171.164 140.147 170.081 138.784 170.403 137.827C170.724 136.869 172.422 136.471 172.898 135.569C173.373 134.668 172.758 133.053 173.373 132.243C173.988 131.432 175.707 131.579 176.441 130.845C177.174 130.111 177.077 128.413 177.915 127.826C178.754 127.239 180.333 127.91 181.256 127.463C182.178 127.015 182.604 125.366 183.59 125.045C184.575 124.723 185.854 125.876 186.881 125.744C187.909 125.611 188.81 124.15 189.851 124.164C190.893 124.178 191.78 125.667 192.766 125.834C193.751 126.002 195.121 124.926 196.078 125.254C197.036 125.583 197.441 127.267 198.335 127.742C199.23 128.217 200.851 127.602 201.662 128.217C202.473 128.832 202.361 130.552 203.06 131.285C203.759 132.019 205.492 131.921 206.086 132.76C206.68 133.599 205.995 135.178 206.449 136.1C206.903 137.023 208.546 137.449 208.867 138.435C209.189 139.42 208.028 140.699 208.168 141.726C208.308 142.753 209.755 143.648 209.734 144.689Z" fill="white"/>
<path d="M191.333 139.867C191.333 139.867 192.451 135.045 191.962 133.2C191.473 131.355 186.532 130.943 184.554 133.326C182.577 135.709 186.763 140.797 187.944 142.006C189.125 143.215 189.935 143.082 191.333 139.867Z" fill="#CEFE8F"/>
<path d="M193.15 147.401C193.15 147.401 197.126 150.364 199.006 150.658C200.886 150.951 203.255 146.583 201.858 143.816C200.46 141.048 194.128 142.844 192.549 143.445C190.97 144.047 190.767 144.836 193.15 147.401Z" fill="#CEFE8F"/>
<path d="M185.518 144.348C185.518 144.348 180.627 145.088 179.089 146.221C177.552 147.353 178.991 152.105 181.94 153.062C184.89 154.02 188.069 148.254 188.761 146.71C189.453 145.165 189.013 144.466 185.518 144.348Z" fill="#CEFE8F"/>
<path d="M102.566 143.18C102.971 142.774 103.384 142.362 103.377 142.041C103.543 141.555 103.526 141.025 103.328 140.552C103.083 140.084 101.657 140.552 101.553 140.119C101.522 139.641 101.65 139.167 101.916 138.77C102.14 138.323 102.524 136.967 102.37 136.673C102.216 136.38 102.23 136.289 101.671 136.128C101.112 135.968 99.7775 136.604 99.491 136.261C99.2432 135.874 99.1555 135.405 99.2464 134.954C99.2464 134.486 99.2953 134.053 99.0157 133.843C98.5283 133.628 97.9954 133.537 97.4643 133.578C96.8542 133.603 96.2453 133.503 95.6753 133.284C95.2747 133.028 94.9796 132.636 94.8436 132.18C94.6619 131.782 94.4802 131.369 94.1099 131.236C93.5444 131.158 92.9689 131.196 92.4186 131.348C91.7811 131.504 91.1211 131.547 90.4689 131.474C89.9527 131.347 89.4858 131.07 89.1271 130.677C88.8165 130.33 88.4067 130.086 87.953 129.979C87.58 129.987 87.2122 130.068 86.8698 130.216L86.2968 130.44C86.0871 130.524 85.8775 130.614 85.6678 130.691C85.253 130.859 84.8143 130.961 84.368 130.992C83.774 130.981 83.1895 130.84 82.6558 130.58C82.1913 130.342 81.6748 130.224 81.1533 130.237C81.051 130.254 80.9504 130.279 80.8528 130.314C80.4422 130.501 80.0552 130.735 79.6997 131.013C79.2704 131.347 78.8009 131.627 78.302 131.844L78.0085 131.935C77.3774 132.047 76.7316 132.047 76.1006 131.935C75.5429 131.818 74.9671 131.818 74.4094 131.935C73.9419 132.174 73.5427 132.527 73.2493 132.963C72.9058 133.439 72.4651 133.836 71.9565 134.13C71.8665 134.176 71.773 134.216 71.6769 134.248C71.1286 134.425 70.5606 134.533 69.9857 134.57C69.5123 134.604 69.0438 134.689 68.588 134.822C68.4921 134.854 68.4006 134.899 68.3155 134.954C67.9606 135.253 67.7148 135.661 67.6167 136.114C67.4865 136.624 67.2152 137.087 66.8339 137.449C66.4872 137.709 66.1 137.91 65.6878 138.043L65.0519 138.26L64.4579 138.469C64.1155 138.568 63.7985 138.74 63.5284 138.973C63.417 139.146 63.3427 139.34 63.3102 139.543C63.2778 139.747 63.2878 139.954 63.3397 140.154C63.4332 140.617 63.364 141.098 63.144 141.516C62.8575 141.95 60.9287 142.11 60.3487 142.446C59.7686 142.781 60.4046 143.571 60.2718 143.893C60.139 144.214 60.5653 144.312 60.8029 144.689C61.0914 145.043 61.2405 145.491 61.2222 145.947C61.1244 146.387 60.0412 146.73 59.6289 147.149C59.2165 147.568 59.4541 148.072 59.4611 148.393C59.4681 148.715 59.8665 148.973 60.2928 149.267C60.7191 149.56 61.1803 149.889 61.2921 150.308C61.4039 150.727 60.6492 150.72 60.4185 151.188C60.2877 151.752 60.3594 152.343 60.6212 152.859C60.775 153.145 61.3201 153.32 61.8931 153.481C62.4272 153.586 62.9253 153.827 63.3397 154.179C63.5852 154.57 63.6726 155.04 63.5843 155.493C63.5843 155.955 63.5354 156.388 63.801 156.598C64.2906 156.814 64.8255 156.907 65.3594 156.87C65.969 156.843 66.5779 156.94 67.1484 157.157C67.5464 157.421 67.8422 157.813 67.987 158.268C68.1617 158.659 68.3504 159.071 68.7208 159.197C69.2851 159.284 69.8615 159.251 70.412 159.099C71.0485 158.937 71.7092 158.892 72.3618 158.967C72.8724 159.103 73.3362 159.376 73.7036 159.756C74.0059 160.114 74.4192 160.36 74.8776 160.455C75.2484 160.452 75.6146 160.374 75.9539 160.225L76.5269 160.001L77.1279 159.763C77.5521 159.593 78 159.49 78.4557 159.456C79.0489 159.467 79.6328 159.605 80.1679 159.861C80.6317 160.101 81.1482 160.221 81.6704 160.211C81.7706 160.195 81.8689 160.169 81.9639 160.134C82.3779 159.949 82.7676 159.715 83.124 159.435C83.5673 159.104 84.0482 158.827 84.5566 158.61L84.8432 158.519C85.4719 158.407 86.1154 158.407 86.744 158.519C87.3037 158.64 87.8826 158.64 88.4422 158.519C88.9072 158.277 89.3056 157.924 89.6023 157.492C89.9449 157.013 90.3887 156.614 90.9022 156.325L91.1747 156.192C91.729 156.019 92.301 155.909 92.8799 155.864C93.3534 155.834 93.8222 155.752 94.2776 155.619C94.3705 155.587 94.4595 155.545 94.5431 155.493C94.8941 155.191 95.139 154.785 95.242 154.333C95.3762 153.825 95.6469 153.364 96.0247 152.998C96.3784 152.73 96.7755 152.524 97.1987 152.39L97.8137 152.174L98.4078 151.978C98.7488 151.872 99.0649 151.699 99.3372 151.468C99.4455 151.294 99.5175 151.099 99.5487 150.896C99.5799 150.693 99.5698 150.486 99.5189 150.287C99.4247 149.823 99.4964 149.341 99.7216 148.924C100.119 148.459 100.607 148.079 101.154 147.806C101.692 147.492 102.251 147.163 102.384 146.842C102.538 146.342 102.506 145.803 102.293 145.325C102.042 144.92 101.539 144.941 101.594 144.494C101.796 143.977 102.131 143.524 102.566 143.18Z" fill="#CEFE8F" stroke="#263238" stroke-miterlimit="10"/>
<path d="M102.454 141.873C102.866 141.468 103.279 141.049 103.265 140.734C103.251 140.42 102.859 140.147 102.44 139.854C102.021 139.56 101.546 139.232 101.441 138.812C101.409 138.335 101.537 137.861 101.804 137.464C102.035 137.016 102.265 136.548 102.112 136.262C101.958 135.975 101.413 135.807 100.84 135.64C100.305 135.536 99.8067 135.295 99.3931 134.941C99.1454 134.553 99.0577 134.085 99.1485 133.634C99.1485 133.166 99.1974 132.732 98.9249 132.523C98.4352 132.307 97.8999 132.216 97.3665 132.257C96.7586 132.283 96.1518 132.183 95.5844 131.964C95.1821 131.708 94.8846 131.316 94.7458 130.86C94.5641 130.461 94.3894 130.049 94.012 129.916C93.4488 129.839 92.8758 129.877 92.3278 130.028C91.688 130.185 91.0256 130.227 90.371 130.154C89.8572 130.021 89.3918 129.745 89.0292 129.357C88.7186 129.009 88.3088 128.766 87.8552 128.658C87.4844 128.666 87.1188 128.747 86.779 128.896L86.1989 129.119C85.9893 129.203 85.7796 129.294 85.57 129.371C85.1555 129.54 84.7167 129.641 84.2701 129.672C83.6782 129.662 83.0959 129.521 82.5649 129.259C82.1002 129.022 81.5839 128.905 81.0624 128.917C80.9598 128.932 80.8591 128.957 80.7619 128.994C80.3497 129.177 79.9622 129.412 79.6088 129.692C79.1793 130.027 78.7098 130.306 78.2111 130.524L77.9246 130.615C77.2936 130.727 76.6478 130.727 76.0168 130.615C75.4594 130.495 74.8829 130.495 74.3255 130.615C73.8572 130.855 73.4561 131.208 73.1585 131.642C72.8167 132.12 72.3757 132.518 71.8656 132.809C71.7762 132.857 71.6827 132.897 71.5861 132.928C71.0371 133.102 70.4694 133.21 69.8949 133.25C69.4215 133.285 68.9531 133.369 68.4972 133.501C68.4001 133.531 68.3082 133.576 68.2246 133.634C67.8698 133.933 67.624 134.341 67.5258 134.794C67.3985 135.303 67.1266 135.764 66.7431 136.122C66.4009 136.386 66.0155 136.59 65.604 136.723L64.961 136.94L64.374 137.149C64.0297 137.248 63.7104 137.42 63.4375 137.652C63.328 137.826 63.2549 138.021 63.2225 138.224C63.19 138.427 63.199 138.634 63.2489 138.833C63.3489 139.296 63.2795 139.78 63.0532 140.196C62.6674 140.657 62.1919 141.035 61.6555 141.307C61.1174 141.636 60.5653 141.964 60.4255 142.286C60.2858 142.607 60.5234 142.985 60.768 143.369C61.0575 143.722 61.2045 144.171 61.1803 144.627C60.9802 145.136 60.653 145.586 60.2299 145.934C59.8315 146.332 59.4192 146.751 59.4192 147.066C59.4192 147.38 59.8245 147.653 60.2578 147.946C60.6911 148.24 61.1383 148.568 61.2502 148.988C61.2868 149.466 61.1585 149.942 60.8868 150.336C60.6631 150.791 60.4325 151.252 60.5793 151.538C60.726 151.825 61.2781 152 61.8512 152.16C62.3857 152.264 62.8842 152.505 63.2978 152.859C63.5424 153.25 63.6321 153.719 63.5494 154.173C63.5144 154.634 63.4935 155.068 63.766 155.277C64.2542 155.49 64.786 155.583 65.3174 155.55C65.9271 155.522 66.5361 155.619 67.1065 155.836C67.5058 156.097 67.8041 156.487 67.9521 156.94C68.1198 157.339 68.3085 157.751 68.6509 157.877C69.2152 157.964 69.7917 157.931 70.3421 157.779C70.9788 157.618 71.6388 157.571 72.2919 157.639C72.8026 157.78 73.2661 158.055 73.6337 158.436C73.936 158.793 74.3493 159.04 74.8078 159.135C75.1785 159.132 75.5447 159.054 75.884 158.904L76.457 158.681L77.058 158.443C77.4844 158.272 77.9347 158.168 78.3928 158.135C78.9838 158.146 79.5654 158.285 80.098 158.541C80.5632 158.777 81.0788 158.897 81.6005 158.89C81.7028 158.874 81.8034 158.848 81.901 158.813C82.3142 158.627 82.7037 158.393 83.0611 158.115C83.4931 157.786 83.9622 157.509 84.4588 157.29L84.7523 157.199C85.381 157.087 86.0245 157.087 86.6532 157.199C87.2128 157.319 87.7917 157.319 88.3514 157.199C88.8155 156.958 89.2119 156.605 89.5045 156.172C89.8489 155.694 90.2923 155.296 90.8043 155.005C90.8927 154.96 90.9837 154.92 91.0769 154.886C91.6288 154.713 92.1984 154.603 92.775 154.557C93.2486 154.528 93.7173 154.446 94.1727 154.313C94.2693 154.281 94.361 154.237 94.4453 154.18C94.7957 153.88 95.0407 153.476 95.1441 153.027C95.281 152.518 95.554 152.057 95.9338 151.692C96.2875 151.424 96.6846 151.218 97.1079 151.084C97.3036 151.007 97.5132 150.937 97.7159 150.867L98.3099 150.665C98.6516 150.564 98.9683 150.393 99.2394 150.162C99.3477 149.987 99.4196 149.793 99.4508 149.59C99.4821 149.387 99.4719 149.18 99.4211 148.981C99.3332 148.516 99.4046 148.036 99.6237 147.618C100.024 147.153 100.514 146.773 101.063 146.5C101.546 146.284 101.969 145.953 102.293 145.535C102.426 145.214 102.181 144.836 101.951 144.445C101.655 144.095 101.504 143.645 101.532 143.187C101.719 142.676 102.037 142.223 102.454 141.873Z" fill="#CEFE8F" stroke="#263238" stroke-miterlimit="10"/>
<path d="M99.8681 142.124C100.225 141.768 100.567 141.426 100.567 141.125C100.567 140.825 100.211 140.608 99.8681 140.349C99.5257 140.091 99.0854 139.811 98.9946 139.441C98.9681 139.02 99.0811 138.603 99.316 138.253C99.5117 137.862 99.7214 137.449 99.5816 137.198C99.4418 136.946 98.9527 136.799 98.4704 136.66C98.0022 136.567 97.5648 136.358 97.1985 136.052C96.9807 135.712 96.903 135.301 96.9819 134.905C96.9819 134.5 97.0308 134.116 96.7862 133.934C96.3591 133.742 95.8905 133.66 95.4235 133.696C94.8899 133.721 94.3571 133.635 93.8581 133.445C93.5064 133.216 93.2447 132.873 93.1173 132.473C92.9636 132.124 92.8028 131.775 92.4744 131.649C91.982 131.574 91.4792 131.605 90.9998 131.74C90.4379 131.878 89.8558 131.916 89.2806 131.851C88.8296 131.738 88.4216 131.495 88.1066 131.153C87.8298 130.855 87.4692 130.648 87.0723 130.559C86.7472 130.567 86.4269 130.638 86.1288 130.768L85.6187 130.964C85.437 131.041 85.2553 131.118 85.0666 131.181C84.7042 131.331 84.3193 131.421 83.9275 131.446C83.4095 131.433 82.9001 131.312 82.432 131.09C82.0236 130.88 81.57 130.775 81.1111 130.782C81.0205 130.797 80.9316 130.82 80.8456 130.852C80.4858 131.013 80.1458 131.214 79.8323 131.453C79.4494 131.742 79.0284 131.978 78.5813 132.152C78.4997 132.186 78.4156 132.214 78.3297 132.236C77.7749 132.334 77.2073 132.334 76.6525 132.236C76.1637 132.136 75.6598 132.136 75.171 132.236C74.7569 132.446 74.4033 132.759 74.1437 133.144C73.8449 133.563 73.4586 133.911 73.0115 134.165C72.9338 134.208 72.8519 134.243 72.7669 134.269C72.2861 134.422 71.7887 134.516 71.2854 134.549C70.8733 134.58 70.4657 134.655 70.0694 134.773C69.9859 134.8 69.9061 134.838 69.8318 134.884C69.5182 135.147 69.2997 135.506 69.2098 135.905C69.0895 136.351 68.8475 136.755 68.511 137.072C68.2096 137.301 67.8717 137.478 67.5116 137.596L66.9456 137.792L66.4284 137.966C66.1272 138.056 65.8484 138.208 65.6108 138.414C65.5137 138.565 65.4488 138.736 65.42 138.913C65.3911 139.091 65.399 139.273 65.443 139.448C65.5293 139.854 65.4674 140.278 65.2683 140.643C64.9232 141.055 64.4944 141.388 64.0104 141.621C63.5422 141.908 63.053 142.194 62.9342 142.474C62.8154 142.753 63.025 143.096 63.2347 143.431C63.4893 143.741 63.619 144.135 63.5981 144.535C63.4204 144.979 63.1345 145.37 62.7665 145.675C62.417 146.031 62.0676 146.373 62.0676 146.674C62.0676 146.974 62.424 147.191 62.7665 147.45C63.1089 147.708 63.5422 147.988 63.64 148.358C63.6671 148.779 63.554 149.197 63.3186 149.546C63.1229 149.938 62.9202 150.35 63.053 150.601C63.1858 150.853 63.682 151 64.1642 151.147C64.6318 151.233 65.0695 151.438 65.4361 151.741C65.6497 152.084 65.727 152.496 65.6527 152.894C65.6527 153.299 65.6108 153.683 65.8414 153.865C66.28 154.06 66.7606 154.142 67.2391 154.103C67.7731 154.081 68.3058 154.169 68.8045 154.361C69.159 154.587 69.4216 154.931 69.5453 155.333C69.699 155.675 69.8597 156.031 70.1882 156.15C70.6829 156.226 71.1881 156.195 71.6698 156.059C72.2295 155.922 72.8086 155.882 73.3819 155.941C73.8302 156.061 74.2366 156.303 74.556 156.639C74.829 156.942 75.1912 157.15 75.5903 157.233C75.9153 157.231 76.2365 157.162 76.5337 157.031C76.7014 156.975 76.8692 156.905 77.0369 156.835L77.561 156.625C77.9367 156.477 78.3324 156.385 78.7351 156.353C79.2541 156.364 79.7644 156.488 80.2306 156.716C80.6396 156.923 81.0932 157.026 81.5514 157.017C81.6398 157.003 81.7264 156.979 81.81 156.947C82.1744 156.788 82.5172 156.584 82.8303 156.339C83.2183 156.058 83.6382 155.823 84.0812 155.64L84.3398 155.563C84.8899 155.465 85.453 155.465 86.0031 155.563C86.4962 155.666 87.0054 155.666 87.4986 155.563C87.9085 155.355 88.2576 155.045 88.5119 154.662C88.8133 154.243 89.202 153.895 89.651 153.641C89.7283 153.602 89.8076 153.567 89.8886 153.537C90.3725 153.386 90.8718 153.29 91.3772 153.25C91.7917 153.224 92.202 153.152 92.6001 153.033C92.6836 153.006 92.7635 152.969 92.8378 152.922C93.1483 152.658 93.3643 152.299 93.4527 151.901C93.5757 151.456 93.8173 151.053 94.1516 150.734C94.4611 150.5 94.8086 150.32 95.1789 150.203C95.3536 150.133 95.5353 150.077 95.717 150.014L96.2341 149.84C96.5354 149.75 96.8142 149.598 97.0518 149.392C97.1492 149.241 97.2138 149.07 97.2415 148.892C97.2692 148.714 97.2593 148.532 97.2125 148.358C97.1291 147.949 97.1935 147.523 97.3942 147.156C97.7447 146.75 98.1722 146.417 98.6521 146.178C99.1204 145.898 99.6096 145.612 99.7284 145.332C99.8472 145.053 99.6375 144.71 99.4349 144.382C99.1723 144.073 99.0395 143.675 99.0645 143.271C99.2283 142.825 99.5053 142.43 99.8681 142.124Z" fill="white"/>
<path d="M81.7612 145.542C81.7612 145.598 81.1043 150.608 77.9176 151.782C77.6852 151.878 77.4442 151.95 77.1978 151.999C76.3049 152.144 75.3907 152.082 74.5255 151.818C73.6604 151.554 72.8675 151.095 72.208 150.475C71.614 149.812 71.5092 149.134 71.9704 148.617C73.0606 147.359 77.2746 145.234 77.4493 145.122H77.4843C79.5808 144.389 80.65 144.186 81.258 144.423C81.866 144.661 81.8031 145.122 81.7612 145.542ZM80.692 143.242L80.4823 143.333C79.9537 143.476 79.3966 143.476 78.868 143.333C78.7981 143.333 71.3554 141.775 72.6762 139.14C73.2283 138.015 74.7728 137.044 76.2823 136.492C76.6884 136.341 77.104 136.218 77.5262 136.121C78.7562 135.842 79.7206 135.912 80.1748 136.296C81.272 137.246 81.8241 140.419 81.8521 140.552V140.601C81.7263 142.124 81.3908 142.914 80.692 143.242ZM93.97 142.844C93.8328 143.211 93.6201 143.545 93.3456 143.824C93.0711 144.103 92.741 144.322 92.3767 144.465C92.314 144.494 92.2484 144.515 92.181 144.528C90.2592 145.045 85.6957 144.717 85.5 144.703H85.4301C83.5013 144.277 82.6837 143.899 82.5928 143.382C82.502 142.865 83.0331 142.495 83.4943 142.159C85.1487 141.038 86.9202 140.101 88.7776 139.364C90.2662 138.812 91.7547 138.546 92.761 139.07C93.4086 139.424 93.8987 140.01 94.1332 140.709C94.3677 141.409 94.3294 142.171 94.0259 142.844H93.97Z" fill="#CEFE8F"/>
<path d="M145.964 239.446C146.53 239.516 147.117 239.586 147.362 239.383C147.606 239.181 148.179 239.146 148.508 238.426C148.732 237.944 147.488 237.098 147.753 236.756C148.111 236.44 148.563 236.251 149.039 236.217C149.748 236.062 150.41 235.744 150.975 235.288C151.101 234.987 151.191 234.939 150.975 234.407C150.758 233.876 149.437 233.205 149.521 232.772C149.674 232.337 149.99 231.979 150.402 231.773C150.779 231.5 151.143 231.256 151.136 230.913C151.011 230.391 150.754 229.909 150.388 229.515C149.994 229.051 149.7 228.511 149.521 227.929C149.477 227.454 149.603 226.978 149.878 226.587C150.123 226.254 150.226 225.837 150.164 225.427C149.882 224.934 149.498 224.505 149.039 224.169C148.522 223.761 148.08 223.267 147.732 222.709C147.521 222.221 147.453 221.683 147.537 221.157C147.61 220.701 147.542 220.232 147.341 219.816C147.106 219.53 146.819 219.293 146.495 219.117L145.964 218.802C145.768 218.69 145.566 218.579 145.377 218.46C144.99 218.235 144.638 217.952 144.336 217.621C143.994 217.145 143.756 216.602 143.637 216.028C143.537 215.516 143.314 215.036 142.987 214.63C142.911 214.558 142.826 214.495 142.735 214.441C142.34 214.228 141.92 214.063 141.485 213.952C140.951 213.814 140.437 213.61 139.954 213.344L139.702 213.169C139.221 212.746 138.818 212.239 138.514 211.674C138.261 211.163 137.902 210.713 137.459 210.353C136.98 210.134 136.454 210.038 135.929 210.074C135.343 210.098 134.759 209.996 134.217 209.773C134.124 209.731 134.036 209.682 133.951 209.626C133.476 209.3 133.04 208.92 132.651 208.494C132.34 208.141 131.988 207.827 131.603 207.558C131.519 207.5 131.428 207.455 131.33 207.425C130.876 207.325 130.402 207.379 129.982 207.579C129.498 207.79 128.965 207.86 128.444 207.781C128.026 207.67 127.63 207.49 127.27 207.25L126.704 206.88L126.18 206.537C125.889 206.331 125.558 206.188 125.208 206.118C125.003 206.139 124.805 206.201 124.625 206.3C124.444 206.4 124.286 206.535 124.16 206.698C123.857 207.065 123.433 207.312 122.965 207.397C122.455 207.439 121.134 205.999 120.526 205.776C119.918 205.552 119.674 206.517 119.338 206.607C119.003 206.698 119.184 207.097 119.038 207.523C118.936 207.968 118.675 208.361 118.304 208.627C117.892 208.823 116.962 208.18 116.375 208.11C115.788 208.04 115.543 208.543 115.292 208.746C115.04 208.948 115.082 209.445 115.117 209.941C115.199 210.416 115.128 210.906 114.914 211.339C114.656 211.674 114.216 211.087 113.684 211.192C113.153 211.297 112.622 212.086 112.489 212.38C112.357 212.673 112.573 213.232 112.783 213.777C113.032 214.258 113.152 214.795 113.132 215.336C112.98 215.773 112.664 216.133 112.252 216.342C111.874 216.601 111.518 216.852 111.518 217.195C111.649 217.714 111.903 218.193 112.259 218.593C112.661 219.052 112.959 219.593 113.132 220.179C113.171 220.653 113.048 221.126 112.783 221.521C112.658 221.683 112.568 221.869 112.519 222.067C112.47 222.266 112.462 222.472 112.496 222.674C112.775 223.17 113.157 223.601 113.615 223.939C114.135 224.338 114.582 224.825 114.935 225.378C115.14 225.866 115.208 226.4 115.131 226.923C115.051 227.379 115.117 227.848 115.32 228.265C115.554 228.55 115.841 228.787 116.165 228.963L116.697 229.271L117.256 229.599C117.653 229.828 118.011 230.118 118.318 230.459C118.675 230.933 118.926 231.479 119.052 232.059C119.15 232.572 119.373 233.052 119.702 233.457C119.778 233.525 119.859 233.585 119.946 233.639C120.345 233.855 120.77 234.019 121.211 234.128C121.745 234.268 122.259 234.475 122.742 234.743L122.993 234.911C123.471 235.337 123.87 235.843 124.174 236.406C124.427 236.919 124.79 237.37 125.236 237.727C125.713 237.946 126.237 238.042 126.76 238.006C127.348 237.982 127.934 238.085 128.479 238.307L128.738 238.447C129.213 238.776 129.649 239.158 130.037 239.586C130.354 239.94 130.708 240.258 131.093 240.536C131.176 240.588 131.265 240.63 131.358 240.662C131.813 240.756 132.287 240.7 132.707 240.501C133.189 240.294 133.719 240.226 134.238 240.306C134.67 240.415 135.079 240.599 135.447 240.851L135.985 241.2L136.509 241.543C136.801 241.751 137.135 241.894 137.487 241.962C137.691 241.941 137.889 241.879 138.068 241.78C138.247 241.68 138.404 241.544 138.528 241.382C138.833 241.013 139.259 240.765 139.73 240.683C140.341 240.709 140.94 240.859 141.492 241.123C141.958 241.371 142.48 241.498 143.008 241.494C143.495 241.305 143.899 240.948 144.147 240.487C144.308 240.04 143.986 239.656 144.392 239.453C144.907 239.316 145.448 239.314 145.964 239.446Z" fill="#CEFE8F" stroke="#263238" stroke-miterlimit="10"/>
<path d="M146.922 238.551C147.495 238.621 148.075 238.691 148.319 238.488C148.564 238.285 148.536 237.789 148.501 237.293C148.41 237.062 148.379 236.811 148.413 236.564C148.447 236.318 148.544 236.085 148.694 235.886C148.844 235.688 149.043 235.532 149.271 235.434C149.499 235.335 149.749 235.296 149.997 235.322C150.493 235.224 151.003 235.12 151.136 234.819C151.268 234.519 151.045 233.973 150.835 233.421C150.585 232.939 150.465 232.399 150.486 231.856C150.577 231.402 150.982 231.157 151.366 230.857C151.751 230.556 152.107 230.339 152.1 229.997C151.971 229.476 151.714 228.996 151.352 228.599C150.957 228.135 150.66 227.595 150.479 227.013C150.438 226.538 150.564 226.064 150.835 225.671C150.958 225.508 151.047 225.322 151.097 225.124C151.148 224.926 151.158 224.72 151.129 224.518C150.845 224.024 150.461 223.593 150.004 223.253C149.484 222.849 149.041 222.354 148.697 221.793C148.484 221.307 148.414 220.772 148.494 220.248C148.574 219.792 148.508 219.322 148.305 218.906C148.072 218.62 147.785 218.382 147.46 218.207L146.922 217.893C146.726 217.781 146.53 217.669 146.342 217.551C145.953 217.327 145.602 217.044 145.3 216.712C144.955 216.235 144.717 215.689 144.601 215.112C144.502 214.598 144.277 214.118 143.945 213.714C143.871 213.642 143.789 213.578 143.7 213.525C143.303 213.317 142.883 213.155 142.449 213.043C141.915 212.904 141.4 212.697 140.919 212.428C140.831 212.375 140.747 212.317 140.667 212.253C140.184 211.831 139.781 211.324 139.479 210.758C139.221 210.25 138.859 209.802 138.417 209.444C137.942 209.219 137.417 209.12 136.893 209.157C136.308 209.182 135.725 209.082 135.181 208.864L134.915 208.717C134.44 208.388 134.004 208.006 133.616 207.578C133.3 207.23 132.948 206.916 132.567 206.642C132.482 206.586 132.391 206.542 132.295 206.509C131.838 206.407 131.361 206.462 130.939 206.663C130.458 206.872 129.928 206.943 129.409 206.865C128.989 206.758 128.592 206.578 128.235 206.334L127.668 205.964L127.144 205.628C126.855 205.419 126.524 205.275 126.173 205.209C125.968 205.227 125.769 205.286 125.588 205.385C125.408 205.484 125.25 205.619 125.125 205.782C124.822 206.15 124.399 206.398 123.93 206.481C123.319 206.455 122.72 206.306 122.169 206.041C121.698 205.796 121.175 205.669 120.645 205.67C120.31 205.761 120.149 206.187 120.002 206.607C119.901 207.054 119.637 207.448 119.261 207.711C118.739 207.866 118.186 207.885 117.654 207.767C117.088 207.697 116.508 207.627 116.256 207.83C116.005 208.032 116.047 208.528 116.082 209.025C116.164 209.5 116.093 209.99 115.879 210.422C115.521 210.745 115.066 210.939 114.586 210.974C114.09 211.072 113.58 211.177 113.454 211.471C113.328 211.764 113.538 212.323 113.747 212.868C113.993 213.35 114.114 213.886 114.097 214.427C113.94 214.861 113.626 215.22 113.216 215.433C112.832 215.692 112.483 215.943 112.476 216.286C112.609 216.805 112.866 217.284 113.223 217.683C113.619 218.148 113.916 218.687 114.097 219.27C114.138 219.746 114.014 220.222 113.747 220.618C113.623 220.779 113.533 220.964 113.484 221.161C113.434 221.359 113.427 221.564 113.461 221.765C113.741 222.262 114.122 222.695 114.579 223.036C115.097 223.441 115.539 223.933 115.886 224.49C116.096 224.976 116.166 225.511 116.089 226.035C116.004 226.49 116.071 226.961 116.277 227.376C116.508 227.665 116.796 227.903 117.123 228.075L117.654 228.39C117.843 228.494 118.024 228.606 118.206 228.718C118.604 228.946 118.964 229.234 119.275 229.571C119.623 230.046 119.862 230.593 119.974 231.171C120.075 231.684 120.3 232.164 120.631 232.569C120.707 232.639 120.789 232.702 120.876 232.757C121.274 232.967 121.697 233.129 122.134 233.24C122.669 233.382 123.185 233.588 123.671 233.855C123.755 233.911 123.839 233.966 123.916 234.029C124.395 234.451 124.795 234.955 125.097 235.518C125.355 236.03 125.719 236.48 126.166 236.839C126.642 237.059 127.166 237.155 127.689 237.118C128.277 237.098 128.863 237.2 129.409 237.419C129.492 237.468 129.576 237.51 129.66 237.565C130.141 237.89 130.58 238.273 130.967 238.705C131.282 239.058 131.636 239.375 132.022 239.648C132.107 239.699 132.196 239.744 132.288 239.781C132.743 239.868 133.214 239.812 133.637 239.62C134.118 239.41 134.648 239.34 135.167 239.417C135.594 239.534 136 239.718 136.369 239.963L136.914 240.319L137.438 240.654C137.729 240.867 138.063 241.013 138.417 241.081C138.808 241.081 139.116 240.794 139.458 240.494C139.761 240.126 140.184 239.879 140.653 239.795C141.264 239.821 141.863 239.971 142.414 240.235C142.885 240.481 143.407 240.61 143.938 240.612C144.273 240.522 144.427 240.088 144.581 239.676C144.675 239.224 144.94 238.826 145.321 238.565C145.845 238.423 146.396 238.419 146.922 238.551Z" fill="#CEFE8F" stroke="#263238" stroke-miterlimit="10"/>
<path d="M145.133 236.672C145.629 236.728 146.139 236.791 146.356 236.616C146.572 236.441 146.544 236.015 146.516 235.561C146.435 235.358 146.408 235.138 146.438 234.921C146.467 234.705 146.552 234.5 146.685 234.326C146.817 234.152 146.992 234.015 147.193 233.929C147.393 233.843 147.613 233.811 147.83 233.835C148.256 233.751 148.704 233.66 148.822 233.394C148.941 233.129 148.746 232.654 148.564 232.185C148.343 231.753 148.237 231.272 148.256 230.788C148.333 230.396 148.69 230.152 149.025 229.914C149.361 229.676 149.675 229.46 149.668 229.159C149.555 228.705 149.332 228.285 149.018 227.936C148.667 227.529 148.406 227.053 148.249 226.539C148.212 226.122 148.324 225.707 148.564 225.365C148.777 225.07 148.868 224.704 148.815 224.344C148.567 223.912 148.232 223.536 147.83 223.24C147.378 222.882 146.991 222.45 146.684 221.961C146.5 221.532 146.44 221.06 146.509 220.598C146.578 220.199 146.519 219.789 146.342 219.424C146.137 219.171 145.886 218.96 145.601 218.802L145.133 218.53L144.615 218.229C144.278 218.031 143.972 217.784 143.707 217.496C143.397 217.08 143.178 216.604 143.064 216.098C142.98 215.646 142.783 215.223 142.491 214.868C142.424 214.807 142.352 214.753 142.274 214.707C141.928 214.52 141.559 214.377 141.177 214.281C140.708 214.16 140.257 213.98 139.835 213.743C139.758 213.696 139.683 213.644 139.612 213.589C139.188 213.217 138.836 212.772 138.57 212.275C138.347 211.829 138.03 211.436 137.641 211.122C137.222 210.927 136.76 210.84 136.299 210.871C135.786 210.892 135.274 210.804 134.797 210.612L134.566 210.486C134.151 210.196 133.769 209.861 133.427 209.487C133.151 209.179 132.841 208.902 132.504 208.662C132.431 208.614 132.351 208.576 132.267 208.55C131.867 208.46 131.449 208.507 131.079 208.683C130.658 208.869 130.192 208.93 129.737 208.858C129.369 208.761 129.02 208.606 128.703 208.397L128.207 208.068L127.745 207.775C127.491 207.591 127.2 207.464 126.893 207.404C126.714 207.421 126.54 207.474 126.383 207.561C126.225 207.648 126.087 207.765 125.977 207.907C125.712 208.228 125.339 208.441 124.929 208.508C124.393 208.491 123.866 208.36 123.385 208.124C122.97 207.908 122.51 207.798 122.043 207.803C121.749 207.88 121.609 208.25 121.477 208.62C121.388 209.012 121.16 209.357 120.834 209.592C120.379 209.724 119.899 209.741 119.436 209.641C119.03 209.531 118.6 209.55 118.206 209.697C117.996 209.864 118.024 210.291 118.052 210.745C118.131 211.17 118.07 211.609 117.878 211.996C117.562 212.279 117.161 212.449 116.739 212.478C116.312 212.562 115.865 212.653 115.746 212.911C115.627 213.17 115.823 213.659 116.005 214.127C116.227 214.559 116.333 215.04 116.312 215.525C116.172 215.905 115.896 216.219 115.536 216.405C115.208 216.629 114.894 216.853 114.894 217.153C115.01 217.607 115.233 218.026 115.543 218.376C115.896 218.783 116.157 219.259 116.312 219.774C116.347 220.191 116.239 220.608 116.005 220.955C115.897 221.098 115.819 221.262 115.776 221.436C115.733 221.61 115.725 221.791 115.753 221.968C116.001 222.403 116.336 222.782 116.739 223.079C117.19 223.435 117.577 223.865 117.885 224.351C118.068 224.781 118.129 225.252 118.059 225.714C117.987 226.113 118.046 226.525 118.227 226.888C118.428 227.145 118.68 227.356 118.968 227.51L119.436 227.783L119.918 228.069C120.268 228.271 120.584 228.525 120.855 228.824C121.169 229.237 121.389 229.714 121.498 230.222C121.583 230.673 121.78 231.096 122.071 231.452C122.137 231.512 122.21 231.566 122.287 231.612C122.637 231.799 123.008 231.942 123.392 232.039C123.859 232.165 124.31 232.348 124.733 232.584C124.81 232.629 124.885 232.677 124.957 232.73C125.376 233.102 125.726 233.544 125.991 234.037C126.216 234.487 126.536 234.883 126.928 235.197C127.344 235.394 127.804 235.478 128.262 235.442C128.779 235.423 129.293 235.514 129.772 235.708C129.85 235.742 129.925 235.785 129.996 235.833C130.416 236.119 130.801 236.455 131.142 236.833C131.418 237.143 131.727 237.422 132.064 237.664C132.14 237.709 132.219 237.746 132.302 237.776C132.7 237.857 133.114 237.808 133.483 237.636C133.905 237.455 134.37 237.394 134.825 237.462C135.211 237.559 135.576 237.727 135.901 237.958L136.383 238.265L136.844 238.559C137.096 238.747 137.388 238.874 137.697 238.929C138.046 238.929 138.333 238.685 138.612 238.419C138.881 238.104 139.252 237.894 139.661 237.825C140.198 237.851 140.725 237.981 141.212 238.209C141.621 238.427 142.077 238.54 142.54 238.538C142.84 238.461 142.973 238.077 143.113 237.713C143.194 237.32 143.424 236.975 143.756 236.749C144.2 236.604 144.675 236.577 145.133 236.672Z" fill="white"/>
<path d="M131.281 224.51C131.232 224.51 126.886 227.117 123.999 225.328C123.778 225.192 123.572 225.033 123.384 224.853C122.714 224.238 122.195 223.477 121.869 222.628C121.543 221.779 121.418 220.866 121.504 219.961C121.665 219.087 122.14 218.598 122.825 218.633C124.488 218.717 128.751 220.729 128.933 220.806H128.968C130.827 221.98 131.659 222.721 131.84 223.35C132.022 223.979 131.638 224.287 131.281 224.51ZM132.455 222.274C132.386 222.241 132.318 222.204 132.253 222.162C131.806 221.844 131.454 221.412 131.232 220.911C131.232 220.848 127.829 214.035 130.729 213.441C131.959 213.189 133.657 213.79 135.041 214.65C135.409 214.875 135.762 215.125 136.096 215.397C137.075 216.201 137.62 216.998 137.592 217.599C137.522 219.045 135.363 221.435 135.272 221.54C133.958 222.379 133.154 222.581 132.455 222.274ZM140.96 232.512C140.587 232.627 140.194 232.665 139.805 232.621C139.417 232.578 139.042 232.455 138.703 232.26L138.528 232.142C136.942 230.947 134.391 227.145 134.279 226.984L134.244 226.928C133.392 225.146 133.182 224.266 133.546 223.874C133.909 223.483 134.517 223.679 135.062 223.832C136.974 224.435 138.813 225.246 140.548 226.25C141.897 227.082 143.022 228.095 143.232 229.206C143.343 229.943 143.17 230.694 142.748 231.308C142.327 231.921 141.688 232.352 140.96 232.512Z" fill="#CEFE8F"/>
<path d="M276.543 23.1602C272.245 9.43493 264.656 -0.418779 259.596 1.1676C259.15 1.3087 258.735 1.53407 258.373 1.8315L162.331 43.0633L177.894 92.7931L275.159 50.8624C280.219 49.311 280.841 36.8925 276.543 23.1602Z" fill="#6E479F" stroke="#263238" stroke-miterlimit="10"/>
<path d="M177.896 92.8021C182.957 91.218 183.576 78.8021 179.278 65.0704C174.98 51.3387 167.393 41.4911 162.332 43.0751C157.271 44.6592 156.652 57.0751 160.95 70.8068C165.248 84.5385 172.835 94.3862 177.896 92.8021Z" fill="#263238" stroke="#263238" stroke-miterlimit="10"/>
<path d="M175.427 67.0126C172.632 57.9765 167.607 51.4983 164.281 52.5395C163.986 52.6333 163.712 52.7801 163.47 52.9728L156.866 55.9848L157.97 59.528C157.712 62.8894 158.306 67.404 159.794 72.1561C161.283 76.9082 163.365 80.9546 165.497 83.5682L167.104 88.7047L174.533 85.2594C177.831 84.2112 178.258 76.0417 175.427 67.0126Z" fill="#CEFE8F" stroke="#263238" stroke-miterlimit="10"/>
<path d="M167.999 70.4579C170.829 79.494 170.424 87.6635 167.09 88.7048C163.757 89.746 158.767 83.2677 155.909 74.2317C153.05 65.1956 153.519 57.0261 156.866 55.9849C160.213 54.9436 165.175 61.4219 167.999 70.4579Z" fill="#263238" stroke="#263238" stroke-miterlimit="10"/>
<path d="M163.568 57.0469L162.506 57.557" stroke="#263238" stroke-miterlimit="10"/>
<path d="M168.383 54.7344L164.518 56.5933" stroke="#263238" stroke-miterlimit="10"/>
<path d="M171.521 58.2578L165.644 61.0811" stroke="#263238" stroke-miterlimit="10"/>
<path d="M173.533 62.7363L167.656 65.5597" stroke="#263238" stroke-miterlimit="10"/>
<path d="M171.234 70.7305L169.501 71.5621" stroke="#263238" stroke-miterlimit="10"/>
<path d="M175.378 68.7402L172.639 70.0541" stroke="#263238" stroke-miterlimit="10"/>
<path d="M163.107 72.4928C162.044 69.1034 160.172 66.6715 158.914 67.0628C158.803 67.0977 158.701 67.1548 158.613 67.2305L146.034 77.0633L147.369 81.3192L162.764 79.3205C164.015 78.9572 164.169 75.8892 163.107 72.4928Z" fill="#CEFE8F" stroke="#263238" stroke-miterlimit="10"/>
<path d="M147.466 78.9425C147.837 80.1236 147.781 81.1858 147.348 81.3186C146.914 81.4514 146.264 80.6198 145.894 79.4387C145.524 78.2577 145.579 77.1954 146.013 77.0627C146.446 76.9299 147.082 77.7685 147.466 78.9425Z" fill="#CEFE8F" stroke="#263238" stroke-miterlimit="10"/>
<path d="M93.3829 185.635C93.3829 185.635 93.4318 182.84 96.1783 183.42C98.9248 184 100.371 189.269 101.811 192.561C103.251 195.853 108.716 201.22 113.761 199.794C118.807 198.368 118.409 192.323 122.448 191.408C126.487 190.492 128.444 193.77 130.135 197.069C131.826 200.367 132.539 205.112 136.599 204.686C140.66 204.26 141.925 201.751 141.925 201.751C141.925 201.751 135.53 204.197 133.965 196.593C131.931 186.761 124.37 184.44 121.805 187.669C119.24 190.898 118.919 194.091 115.872 195.804C112.825 197.516 108.827 196.44 106.612 193.393C104.397 190.346 100.812 179.954 98.4705 178.556C96.1294 177.158 95.6751 178.521 95.6751 178.521C95.6751 178.521 91.1746 181.072 93.3829 185.635Z" fill="#263238" stroke="#263238" stroke-linecap="round" stroke-linejoin="round"/>
<path d="M138.598 205.503C137.599 205.499 136.615 205.26 135.726 204.804C133.734 203.77 133.022 201.31 132.113 198.214C130.659 193.217 129.248 189.374 125.446 189.08C124.048 188.968 123.412 189.779 121.952 192.574C120.554 195.23 118.611 198.864 114.034 198.941C106.039 199.102 103.397 192.595 101.455 187.878C100.141 184.67 99.0087 181.903 96.8843 181.302C95.4866 180.911 95.1371 180.806 93.8932 184.719C93.1175 187.158 92.2369 189.919 89.763 191.414C87.4918 192.812 84.7034 192.525 82.3133 190.715C79.0777 188.283 76.3941 182.679 78.1203 176.131C78.2001 175.832 78.3379 175.553 78.5258 175.308C78.7137 175.063 78.9481 174.857 79.2154 174.703C79.4828 174.548 79.7779 174.448 80.0841 174.408C80.3902 174.367 80.7013 174.387 80.9995 174.467C81.2978 174.547 81.5774 174.685 81.8224 174.873C82.0674 175.061 82.273 175.295 82.4274 175.562C82.5819 175.83 82.6822 176.125 82.7225 176.431C82.7629 176.737 82.7426 177.048 82.6628 177.347C81.5237 181.589 83.0401 185.397 85.1157 186.956C85.7027 187.403 86.5623 187.829 87.3171 187.375C88.2745 186.795 88.8475 185.006 89.4136 183.28C90.3361 180.401 92.0413 175.033 98.1631 176.767C102.489 177.99 104.25 182.287 105.808 186.082C107.905 191.177 109.408 194.308 113.957 194.224C115.585 194.224 116.375 193.029 117.794 190.352C119.212 187.675 121.169 183.986 125.837 184.356C133.182 184.922 135.272 192.106 136.656 196.858C137.033 198.165 137.606 200.122 138.053 200.646C138.356 200.773 138.685 200.819 139.011 200.781C139.337 200.743 139.647 200.622 139.912 200.429C140.611 199.954 142.833 197.802 142.009 190.003C140.765 177.724 144.86 85.4835 144.895 83.2402C144.895 82.5902 145.195 80.1233 146.293 79.683L146.754 79.5293C147.397 79.5293 147.306 79.6551 147.299 80.305C147.299 80.8501 145.475 177.521 146.691 189.527C147.627 198.78 144.944 202.68 142.498 204.322C141.351 205.109 139.989 205.521 138.598 205.503Z" fill="white" stroke="#263238" stroke-linecap="round" stroke-linejoin="round"/>
<path d="M137.913 203.866C137.913 203.866 140.499 205.264 143.504 201.658C145.601 199.058 145.601 195.557 145.601 193.271" stroke="#263238" stroke-linecap="round" stroke-linejoin="round"/>
<path d="M145.629 191.114L145.384 187.131" stroke="#263238" stroke-linecap="round" stroke-linejoin="round"/>
<path d="M84.5635 190.38C85.0354 190.552 85.5219 190.68 86.0171 190.764C89.7349 191.414 91.6078 187.969 91.6078 187.969" stroke="#263238" stroke-linecap="round" stroke-linejoin="round"/>
<path d="M80.6919 187.312C81.0396 187.865 81.463 188.366 81.9498 188.801" stroke="#263238" stroke-linecap="round" stroke-linejoin="round"/>
<path d="M112.035 197.376C112.392 197.439 112.776 197.495 113.202 197.53C116.193 197.803 117.647 196.51 117.647 196.51" stroke="#263238" stroke-linecap="round" stroke-linejoin="round"/>
<path d="M108.918 196.195C109.233 196.427 109.576 196.617 109.939 196.761" stroke="#263238" stroke-linecap="round" stroke-linejoin="round"/>
<path d="M252.817 120.656C252.817 120.656 257.443 119.258 259.03 119.028C260.616 118.797 264.362 118.965 264.816 117.539C265.27 116.113 258.527 113.688 256.961 113.667C256.378 113.62 255.794 113.757 255.292 114.059C254.791 114.361 254.397 114.813 254.166 115.352C253.726 116.204 251.489 120.775 251.489 120.775L252.817 120.656Z" fill="#CEFE8F" stroke="#263238" stroke-miterlimit="10"/>
<path d="M290.813 156.683C290.254 155.809 283.231 153.971 282.518 153.671C281.805 153.37 276.103 149.534 273.545 147.626C270.987 145.718 261.741 138.506 258.618 135.745C255.494 132.985 249.057 130.413 249.057 130.413C249.057 130.413 258.261 113.138 261.008 103.857C263.754 94.5764 263.44 86.9031 262.908 84.1636C262.908 84.1636 252.426 82.9826 245.829 80.8651C241.847 79.5747 238.161 77.5082 234.983 74.7852L232.795 76.6231C232.795 76.6231 227.973 81.0049 220.146 93.3954C215.111 101.343 211.826 110.272 210.509 119.588C210.334 121.314 215.031 124.557 217.498 124.885C219.965 125.214 229.909 122.789 230.349 122.642C230.79 122.495 234.815 122.139 234.815 122.139C234.815 122.139 232.453 134.914 233.858 137.094C235.262 139.275 238.84 140.344 238.84 140.344C238.84 140.344 273.412 156.885 275.411 158.213C277.41 159.541 281.078 163.804 281.078 163.804C281.078 163.804 284.125 171.191 285.272 173.944C286.418 176.698 286.62 179.297 288.067 178.885C289.514 178.473 291.324 173.294 291.561 169.01C291.799 164.726 291.379 157.591 290.813 156.683ZM236.359 114.487L228.162 113.788L238.575 101.858L239.972 103.899L236.359 114.487Z" fill="#263238" stroke="#263238" stroke-linecap="round" stroke-linejoin="round"/>
<path d="M237.61 101.152L233.173 96.1484" stroke="#6E6E6E" stroke-linecap="round" stroke-linejoin="round"/>
<path d="M236.36 114.486L235.109 120.657" stroke="#6E6E6E" stroke-linecap="round" stroke-linejoin="round"/>
<path d="M228.148 113.781C228.148 113.781 224.185 118.757 222.557 119.882" stroke="#6E6E6E" stroke-linecap="round" stroke-linejoin="round"/>
<path d="M290.813 156.681C290.254 155.808 283.231 153.97 282.518 153.669C281.959 153.439 278.416 151.083 275.655 149.141C275.6 151.945 274.516 154.631 272.608 156.688C274.097 157.443 275.096 157.967 275.404 158.163C277.395 159.491 281.071 163.753 281.071 163.753C281.071 163.753 284.118 171.14 285.264 173.894C286.411 176.647 286.613 179.247 288.06 178.835C289.506 178.422 291.316 173.244 291.554 168.96C291.792 164.676 291.379 157.59 290.813 156.681Z" fill="white" stroke="#263238" stroke-linecap="round" stroke-linejoin="round"/>
<path d="M283.573 154.006C284.132 155.557 284.915 158.094 284.587 159.031C284.132 160.316 282.833 160.876 281.519 162.008C281.094 162.34 280.814 162.823 280.736 163.356L281.058 163.727C281.058 163.727 284.105 171.114 285.251 173.867C286.397 176.62 286.599 179.22 288.046 178.808C289.493 178.396 291.303 173.217 291.54 168.933C291.778 164.649 291.435 157.556 290.841 156.682C290.345 155.984 285.747 154.656 283.573 154.006Z" fill="#CEFE8F" stroke="#263238" stroke-miterlimit="10"/>
<path d="M246.605 14.7403C246.605 14.7403 238.959 7.91255 237.163 7.24166C235.367 6.57077 230.874 8.57645 226.422 10.4494C221.97 12.3223 206.854 22.2039 206.854 22.2039C206.854 22.2039 199.775 25.181 198.112 25.6981C197.214 26.0201 196.406 26.5513 195.755 27.2477C195.103 27.944 194.627 28.7855 194.366 29.7025C193.995 31.3937 193.101 31.5614 194.562 31.4706C196.022 31.3797 198.314 29.4999 198.755 29.416C199.195 29.3321 204.779 28.9128 204.779 28.9128C204.779 28.9128 202.717 31.254 202.605 32.1065C202.493 32.9591 204.275 32.6237 205.813 30.9395C207.35 29.2553 208.72 28.7171 209.447 27.6549C210.05 26.6519 210.578 25.6054 211.026 24.5241C211.026 24.5241 225.765 19.6322 226.841 19.2338C227.917 18.8355 233.536 16.9346 233.536 16.9346C233.536 16.9346 237.68 23.2242 240.07 27.0259C242.46 30.8277 242.698 33.5462 242.698 33.5462C242.698 33.5462 239.253 41.7017 238.009 47.4392C236.765 53.1767 237.729 64.7076 237.694 67.1536C237.659 69.5996 232.956 75.1414 232.802 76.581C232.649 78.0206 235.318 81.2283 239.309 83.7372C243.299 86.246 250.176 88.2308 253.635 88.2867C257.094 88.3426 263.153 87.0008 263.761 85.1419C264.369 83.2829 264.502 74.785 264.537 72.6256C264.572 70.4661 264.083 65.4205 264.858 61.9822C265.634 58.5438 267.172 52.373 264.949 47.1527C262.727 41.9323 260.519 36.2856 260.519 36.2856C260.519 36.2856 248.401 19.9676 248.268 19.5134C248.135 19.0591 246.605 14.7403 246.605 14.7403Z" fill="white" stroke="#263238" stroke-linecap="round" stroke-linejoin="round"/>
<path d="M194.485 30.1504C194.485 30.1504 196.812 27.6556 197.329 27.2782C197.846 26.9008 201.277 26.0762 201.277 26.0762" stroke="#263238" stroke-linecap="round" stroke-linejoin="round"/>
<path d="M264.942 47.1742C262.727 41.9538 260.511 36.3071 260.511 36.3071C260.511 36.3071 248.393 19.9891 248.261 19.5349C248.128 19.0806 246.604 14.7617 246.604 14.7617C246.604 14.7617 238.959 7.93403 237.163 7.26314C235.367 6.59225 230.873 8.59793 226.422 10.4708C224.06 11.4632 218.734 14.6988 214.199 17.5222L217.099 22.5259C221.292 21.1282 226.24 19.4859 226.848 19.2413C227.924 18.8011 233.543 16.9421 233.543 16.9421C233.543 16.9421 237.687 23.2317 240.077 27.0335C242.467 30.8352 242.705 33.5537 242.705 33.5537C242.705 33.5537 239.26 41.7092 238.016 47.4467C236.772 53.1842 237.736 64.7152 237.701 67.1611C237.666 69.6071 232.963 75.1489 232.809 76.5885C232.655 78.0282 235.325 81.2358 239.315 83.7447C243.306 86.2536 250.182 88.2383 253.642 88.2942C257.101 88.3501 263.16 87.0083 263.768 85.1494C264.376 83.2905 264.509 74.7925 264.544 72.6331C264.579 70.4736 264.089 65.428 264.865 61.9897C265.641 58.5513 267.164 52.3596 264.942 47.1742Z" fill="#8F8F8F" stroke="#263238" stroke-linecap="round" stroke-linejoin="round"/>
<path d="M239.93 61.584C239.93 61.584 244.424 69.8723 247.066 73.052L239.93 61.584Z" fill="white"/>
<path d="M239.93 61.584C239.93 61.584 244.424 69.8723 247.066 73.052" stroke="#263238" stroke-linecap="round" stroke-linejoin="round"/>
<path d="M247.017 75.5879C247.352 75.9163 247.716 76.2238 248.03 76.5034L247.017 75.5879Z" fill="white"/>
<path d="M247.017 75.5879C247.352 75.9163 247.716 76.2238 248.03 76.5034" stroke="#263238" stroke-linecap="round" stroke-linejoin="round"/>
<path d="M242.782 69.998C243.774 71.6456 244.906 73.2051 246.164 74.6593L242.782 69.998Z" fill="white"/>
<path d="M242.782 69.998C243.774 71.6456 244.906 73.2051 246.164 74.6593" stroke="#263238" stroke-linecap="round" stroke-linejoin="round"/>
<path d="M244.781 29.9691C244.781 29.9691 245.409 26.384 244.291 24.3783C243.173 22.3727 242.258 16.5723 244.291 13.721C246.325 10.8697 251.811 11.8271 251.811 11.8271C251.811 11.8271 254.18 7.55017 258.932 7.63403C263.684 7.71789 266.487 12.3582 266.487 12.3582C266.487 12.3582 273.23 4.67093 282.651 9.74454C292.071 14.8182 290.415 28.2989 290.415 28.2989C290.415 28.2989 298.032 32.1285 297.334 38.8794C296.635 45.6302 294.405 50.7597 285.908 50.9344C277.41 51.1091 279.387 44.3793 275.851 40.1163C272.315 35.8534 267.591 34.6584 265.11 36.6221C263.562 37.9011 262.31 39.501 261.441 41.3114C261.441 41.3114 262.14 34.1272 257.555 32.1775C252.971 30.2277 248.47 31.5974 248.051 32.1775C247.524 32.7086 246.938 33.1776 246.304 33.5751L244.781 29.9691Z" fill="#263238" stroke="#263238" stroke-linecap="round" stroke-linejoin="round"/>
<path d="M254.453 26.0488C255.054 26.934 255.443 27.9454 255.592 29.0049" stroke="#787878" stroke-linecap="round" stroke-linejoin="round"/>
<path d="M251.839 11.7988C250.463 13.9313 249.768 16.4322 249.847 18.969C249.994 21.5198 252 23.0083 253.614 24.9301" stroke="#787878" stroke-linecap="round" stroke-linejoin="round"/>
<path d="M280.408 31.6452C280.561 31.8199 280.722 31.9806 280.876 32.1344C283.713 34.9297 289.045 34.4266 289.961 30.4082" stroke="#787878" stroke-linecap="round" stroke-linejoin="round"/>
<path d="M258.792 26.9072C258.792 26.9072 261.448 22.777 268.36 23.0286C273.846 23.2313 276.746 27.1169 279.101 30.1009" stroke="#787878" stroke-linecap="round" stroke-linejoin="round"/>
<path d="M294.846 36.6917C294.678 36.1532 294.415 35.6491 294.07 35.2031" stroke="#787878" stroke-linecap="round" stroke-linejoin="round"/>
<path d="M265.942 29.8775C265.942 29.8775 272.336 26.3832 277.256 33.3717C282.176 40.3601 279.807 45.252 287.997 45.9509C293.253 46.4051 295.132 42.9598 295.251 39.7382" stroke="#787878" stroke-linecap="round" stroke-linejoin="round"/>
<path d="M259.407 19.5628C259.216 19.3898 259.051 19.1896 258.918 18.9688C257.8 17.0819 258.156 12.9098 261.714 13.5458" stroke="#787878" stroke-linecap="round" stroke-linejoin="round"/>
<path d="M266.787 13.1973C266.787 13.1973 268.185 16.384 265.977 18.788C265.419 19.4012 264.722 19.872 263.946 20.1614C263.169 20.4507 262.334 20.5501 261.511 20.4513" stroke="#787878" stroke-linecap="round" stroke-linejoin="round"/>
<path d="M246.318 42.8066C246.318 42.8066 244.767 49.6903 247.464 52.1851C250.162 54.68 254.383 51.5771 256.766 46.5944L246.318 42.8066Z" fill="white" stroke="#263238" stroke-linecap="round" stroke-linejoin="round"/>
<path d="M263.041 38.4869C263.041 38.4869 264.9 35.7963 265.795 36.3903C266.689 36.9844 265.152 39.1019 263.915 40.4436C262.678 41.7854 262.084 41.7714 262.084 41.7714L263.041 38.4869Z" fill="white" stroke="#263238" stroke-linecap="round" stroke-linejoin="round"/>
<path d="M262.328 35.9011L263.614 31.1C263.656 28.5283 260.98 27.9133 259.002 28.3047C257.844 28.5495 256.722 28.9392 255.661 29.4647C255.661 29.4647 253.257 26.7532 251.175 26.3689C248.778 25.9216 246.905 26.872 246.877 28.3815C246.792 29.523 246.518 30.6424 246.066 31.6941L245.507 29.1153C245.507 29.1153 245.067 37.5783 245.332 39.8496C245.598 42.1208 246.898 50.1436 251.972 50.0807C256.2 50.0317 261.462 42.6799 262.245 41.1774C262.699 40.3038 263.069 37.8928 263.314 35.5237L262.328 35.9011Z" fill="white" stroke="#263238" stroke-linecap="round" stroke-linejoin="round"/>
<path d="M245.479 30.7924C245.479 30.7924 244.941 26.5505 243.851 28.8007C242.761 31.051 245.249 34.72 245.249 34.72L245.479 30.7924Z" fill="white" stroke="#263238" stroke-linecap="round" stroke-linejoin="round"/>
<path d="M250.882 42.6738C250.882 42.6738 251.161 43.8898 254.04 43.6312" stroke="#263238" stroke-linecap="round" stroke-linejoin="round"/>
<path d="M249.644 44.3164C250.152 45.002 250.902 45.4691 251.741 45.6235C252.58 45.7779 253.447 45.6079 254.166 45.148" stroke="#263238" stroke-linecap="round" stroke-linejoin="round"/>
<path d="M247.813 36.125C248.195 36.8324 248.796 37.3975 249.525 37.7362C250.254 38.075 251.073 38.1692 251.86 38.0049" stroke="#263238" stroke-linecap="round" stroke-linejoin="round"/>
<path d="M255.941 39.3535C256.444 39.9908 257.142 40.4458 257.929 40.6489C258.715 40.8521 259.546 40.7923 260.295 40.4787" stroke="#263238" stroke-linecap="round" stroke-linejoin="round"/>
<path d="M252.971 35.461C252.971 35.461 251.713 32.9941 248.352 33.5532" stroke="#263238" stroke-linecap="round" stroke-linejoin="round"/>
<path d="M256.312 36.2715C256.312 36.2715 259.526 35.6425 261.238 38.2562" stroke="#263238" stroke-linecap="round" stroke-linejoin="round"/>
<path d="M255.172 63.8268L250.043 78.4257C250.043 78.4257 228.057 75.7701 226.625 75.4556C225.192 75.1411 218.581 74.0579 217.148 73.8622C215.716 73.6666 213.256 73.9461 212.529 74.3654C211.802 74.7847 209.188 76.4619 208.336 76.6017C207.483 76.7415 205.743 76.8463 206.302 77.5801C206.861 78.3139 208.888 78.1951 208.888 78.1951C208.328 78.702 207.609 78.9963 206.854 79.0267C205.708 79.0267 202.088 80.2427 203.36 80.4244C204.632 80.6061 208.252 81.0743 210.111 81.249C211.97 81.4237 219.091 78.0833 219.091 78.0833C219.091 78.0833 230.272 82.0108 236.842 83.9885C243.411 85.9662 253.614 88.2864 255.347 88.3143C257.08 88.3423 263.824 71.612 265.173 68.0478C266.522 64.4837 268.38 56.8663 267.696 54.6999C267.011 52.5335 264.488 50.7305 264.488 50.7305" fill="#8F8F8F"/>
<path d="M255.172 63.8268L250.043 78.4257C250.043 78.4257 228.057 75.7701 226.625 75.4556C225.192 75.1411 218.581 74.0579 217.148 73.8622C215.716 73.6666 213.256 73.9461 212.529 74.3654C211.802 74.7847 209.188 76.4619 208.336 76.6017C207.483 76.7415 205.743 76.8463 206.302 77.5801C206.861 78.3139 208.888 78.1951 208.888 78.1951C208.328 78.702 207.609 78.9963 206.854 79.0267C205.708 79.0267 202.088 80.2427 203.36 80.4244C204.632 80.6061 208.252 81.0743 210.111 81.249C211.97 81.4237 219.091 78.0833 219.091 78.0833C219.091 78.0833 230.272 82.0108 236.842 83.9885C243.411 85.9662 253.614 88.2864 255.347 88.3143C257.08 88.3423 263.824 71.612 265.173 68.0478C266.522 64.4837 268.38 56.8663 267.696 54.6999C267.011 52.5335 264.488 50.7305 264.488 50.7305" stroke="#263238" stroke-linecap="round" stroke-linejoin="round"/>
<path d="M232.565 82.6331L234.333 76.4902C230.405 76.001 227.149 75.5747 226.646 75.4559C225.213 75.1484 218.602 74.0582 217.169 73.8626C215.737 73.6669 213.277 73.9464 212.55 74.3657C211.823 74.785 209.209 76.4623 208.357 76.602C207.504 76.7418 205.764 76.8466 206.323 77.5804C206.882 78.3142 208.909 78.1954 208.909 78.1954C208.349 78.7023 207.63 78.9967 206.875 79.027C205.729 79.027 202.109 80.243 203.381 80.4247C204.653 80.6064 208.273 81.0746 210.132 81.2493C211.991 81.4241 219.112 78.0836 219.112 78.0836C219.112 78.0836 226.31 80.6064 232.565 82.6331Z" fill="white" stroke="#263238" stroke-linecap="round" stroke-linejoin="round"/>
<path d="M208.874 78.1949C208.874 78.1949 209.726 78.6422 211.62 77.4961L208.874 78.1949Z" fill="white"/>
<path d="M208.874 78.1949C208.874 78.1949 209.726 78.6422 211.62 77.4961" stroke="#263238" stroke-linecap="round" stroke-linejoin="round"/>
</svg>
