<svg width="370" height="326" viewBox="0 0 370 326" fill="none" xmlns="http://www.w3.org/2000/svg">
<g clip-path="url(#clip0_2078_9810)">
<path d="M344.693 149.102C341.856 117.421 331.225 86.5168 312.457 59.4056C282.99 16.8424 234.898 -6.16698 182.57 6.3819C133.098 18.2471 120.54 70.5779 79.3217 93.7558C47.6984 111.549 -0.23034 140.58 7.43825 192.087C9.94013 208.868 21.3184 221.136 36.924 228.019C58.2618 237.431 88.1118 233.601 107.13 247.339C129.177 263.259 147.39 285.735 195.319 302.592C233.221 315.927 275.983 299.97 304.635 274.731C339.891 243.668 348.671 193.576 344.693 149.102Z" fill="#CEFE8F"/>
<path opacity="0.7" d="M344.693 157.993C341.856 126.311 331.225 95.4074 312.457 68.2962C282.99 25.733 234.898 2.72364 182.57 15.2725C133.098 27.1378 120.54 79.4685 79.3217 102.646C47.6984 120.44 -0.23034 149.471 7.43825 200.977C9.94013 217.759 21.3184 230.027 36.924 236.91C58.2618 246.322 88.1118 242.492 107.13 256.23C129.177 272.15 147.39 294.626 195.319 311.482C233.221 324.818 275.983 308.86 304.635 283.622C339.891 252.559 348.671 202.466 344.693 157.993Z" fill="#CEFE8F"/>
<path d="M307.664 242.114L165.268 281.268C162.277 282.092 158.635 280.622 157.13 277.99L49.1368 88.1372C47.6414 85.5057 48.8588 82.7056 51.8495 81.8815L194.246 42.7271C197.236 41.903 200.879 43.3733 202.384 46.0048L310.377 235.867C311.872 238.499 310.655 241.299 307.664 242.123V242.114Z" fill="#363636" stroke="black" stroke-opacity="0.91" stroke-miterlimit="10"/>
<path d="M163.264 272.943C163.264 272.943 245.548 253.829 300.935 235.09L163.264 272.943Z" fill="#CEFE8F"/>
<path d="M300.935 235.089L163.265 272.942L56.7766 85.7296L194.447 47.877L300.935 235.089Z" fill="white" stroke="#363636" stroke-miterlimit="10"/>
<path d="M153.669 87.5191L164.357 84.5879" stroke="#363636" stroke-miterlimit="10"/>
<path d="M79.5234 107.907L145.397 89.7949" stroke="#363636" stroke-miterlimit="10"/>
<path d="M141.946 99.16L168.498 91.8555" stroke="#363636" stroke-miterlimit="10"/>
<path d="M101.254 110.35L134.699 101.145" stroke="#363636" stroke-miterlimit="10"/>
<path d="M83.6646 115.183L95.0428 112.055" stroke="#363636" stroke-miterlimit="10"/>
<path d="M120.905 113.356L172.63 99.1309" stroke="#363636" stroke-miterlimit="10"/>
<path d="M87.8054 122.459L109.527 116.484" stroke="#363636" stroke-miterlimit="10"/>
<path d="M201.598 82.0505C199.125 77.6959 193.105 75.2798 188.149 76.6377C183.193 77.9956 181.19 82.6312 183.663 86.9858C186.136 91.3405 192.156 93.7566 197.112 92.3987C202.068 91.0408 204.071 86.4052 201.598 82.0505Z" fill="white" stroke="#363636" stroke-miterlimit="10"/>
<path d="M108.664 137.395L97.9668 140.335" stroke="#363636" stroke-miterlimit="10"/>
<path d="M182.801 117.008L116.937 135.119" stroke="#363636" stroke-miterlimit="10"/>
<path d="M128.66 140.307L102.108 147.602" stroke="#363636" stroke-miterlimit="10"/>
<path d="M169.352 129.117L135.897 138.313" stroke="#363636" stroke-miterlimit="10"/>
<path d="M186.942 124.275L175.563 127.413" stroke="#363636" stroke-miterlimit="10"/>
<path d="M157.973 140.654L106.249 154.879" stroke="#363636" stroke-miterlimit="10"/>
<path d="M191.073 131.551L169.352 137.526" stroke="#363636" stroke-miterlimit="10"/>
<path d="M220.041 114.48C217.568 110.126 211.548 107.709 206.592 109.067C201.637 110.425 199.633 115.061 202.106 119.415C204.579 123.77 210.599 126.186 215.555 124.828C220.511 123.47 222.514 118.835 220.041 114.48Z" fill="white" stroke="#363636" stroke-miterlimit="10"/>
<path d="M190.556 152.368L201.244 149.428" stroke="#363636" stroke-miterlimit="10"/>
<path d="M116.41 172.756L182.274 154.645" stroke="#363636" stroke-miterlimit="10"/>
<path d="M178.832 164.01L205.385 156.705" stroke="#363636" stroke-miterlimit="10"/>
<path d="M138.141 175.19L171.585 165.994" stroke="#363636" stroke-miterlimit="10"/>
<path d="M120.551 180.032L131.929 176.904" stroke="#363636" stroke-miterlimit="10"/>
<path d="M157.792 178.196L209.516 163.971" stroke="#363636" stroke-miterlimit="10"/>
<path d="M124.682 187.299L146.413 181.324" stroke="#363636" stroke-miterlimit="10"/>
<path d="M238.484 146.9C236.011 142.545 229.991 140.129 225.035 141.487C220.08 142.845 218.076 147.481 220.549 151.835C223.022 156.19 229.042 158.606 233.998 157.248C238.954 155.89 240.957 151.255 238.484 146.9Z" fill="white" stroke="#363636" stroke-miterlimit="10"/>
<path d="M145.55 202.246L134.852 205.177" stroke="#363636" stroke-miterlimit="10"/>
<path d="M219.686 181.859L153.822 199.971" stroke="#363636" stroke-miterlimit="10"/>
<path d="M165.546 205.15L138.993 212.455" stroke="#363636" stroke-miterlimit="10"/>
<path d="M206.237 193.969L172.783 203.165" stroke="#363636" stroke-miterlimit="10"/>
<path d="M223.827 189.127L212.439 192.255" stroke="#363636" stroke-miterlimit="10"/>
<path d="M194.859 205.506L143.125 219.731" stroke="#363636" stroke-miterlimit="10"/>
<path d="M227.958 196.402L206.237 202.377" stroke="#363636" stroke-miterlimit="10"/>
<path d="M256.926 179.322C254.453 174.967 248.433 172.551 243.478 173.909C238.522 175.267 236.518 179.903 238.991 184.257C241.465 188.612 247.484 191.028 252.44 189.67C257.396 188.312 259.4 183.677 256.926 179.322Z" fill="white" stroke="#363636" stroke-miterlimit="10"/>
<path d="M227.441 217.222L238.129 214.281" stroke="#363636" stroke-miterlimit="10"/>
<path d="M153.295 237.61L219.159 219.498" stroke="#363636" stroke-miterlimit="10"/>
<path d="M215.718 228.854L242.27 221.559" stroke="#363636" stroke-miterlimit="10"/>
<path d="M175.026 240.044L208.471 230.848" stroke="#363636" stroke-miterlimit="10"/>
<path d="M157.437 244.876L168.815 241.748" stroke="#363636" stroke-miterlimit="10"/>
<path d="M194.677 243.049L246.402 228.824" stroke="#363636" stroke-miterlimit="10"/>
<path d="M161.568 252.153L183.299 246.178" stroke="#363636" stroke-miterlimit="10"/>
<path d="M275.969 217.878C277.611 213.796 274.657 208.841 269.37 206.811C264.084 204.78 258.466 206.443 256.824 210.525C255.182 214.607 258.136 219.562 263.423 221.592C268.709 223.623 274.326 221.96 275.969 217.878Z" fill="white" stroke="#363636" stroke-miterlimit="10"/>
<path d="M147.832 51.0431L129.734 56.0159C128.363 56.0721 126.829 55.969 126.436 55.2854C125.439 53.5342 126.705 51.8766 127.088 50.322C127.519 48.5895 127.289 46.8477 126.264 45.059C123.723 40.592 117.55 38.1103 112.47 39.5057C107.389 40.901 105.328 45.649 107.869 50.116C109.028 52.1669 110.965 53.787 113.189 54.8172C113.189 54.8172 116.87 56.4185 117.598 57.7109C117.982 58.3945 116.965 59.1999 115.911 59.8086L96.404 65.1747C93.1065 66.0831 91.7741 69.1641 93.4229 72.0578L96.059 76.6934L159.392 59.2748L156.756 54.6392C155.107 51.7455 151.1 50.1347 147.812 51.0431H147.832ZM115.604 45.0028C117.234 44.5533 119.209 45.3493 120.014 46.7821C120.829 48.2056 120.167 49.7321 118.538 50.1722C116.908 50.6217 114.933 49.8257 114.128 48.3929C113.313 46.9694 113.975 45.443 115.604 44.9934V45.0028Z" fill="#6E479F" stroke="#363636" stroke-miterlimit="10"/>
<path d="M186.884 82.5925L194.706 87.9211L202.748 70.2871" stroke="#6E479F" stroke-linecap="round" stroke-linejoin="round"/>
<path d="M205.039 114.509L212.861 119.837L220.903 102.203" stroke="#6E479F" stroke-linecap="round" stroke-linejoin="round"/>
<path d="M333.172 110.154C333.172 110.154 335.261 105.827 333.958 102.512C332.654 99.1969 308.661 93.8496 308.661 93.8496C308.661 93.8496 303.188 93.8496 303.446 96.9025C303.705 99.9555 323.529 111.68 325.091 112.701C326.653 113.722 332.654 116.016 333.172 110.154Z" fill="#F2F5F9" stroke="#363636" stroke-linecap="round" stroke-linejoin="round"/>
<path d="M310.645 89.5698C310.645 89.5698 308.364 88.7644 306.293 87.753C304.223 86.7416 306.504 91.3959 307.328 91.5926C308.153 91.7893 310.223 92.2013 310.223 92.2013L310.635 89.5698H310.645Z" fill="#F2F5F9" stroke="#363636" stroke-linecap="round" stroke-linejoin="round"/>
<path d="M239.04 134.867L227.048 149.13L228.093 151.172L245.04 147.098L364.392 79.2216C369.434 76.356 371.045 69.9879 367.968 65.1463C364.91 60.3421 358.401 58.9374 353.551 62.0278L239.049 134.867H239.04Z" fill="#6E479F" stroke="#363636" stroke-linecap="round" stroke-linejoin="round"/>
<path d="M299.008 108.43L295.116 110.874" stroke="#363636" stroke-linecap="round" stroke-linejoin="round"/>
<path d="M332.51 87.3691L303.762 105.443" stroke="#363636" stroke-linecap="round" stroke-linejoin="round"/>
<path d="M228.16 148.83C228.16 148.83 225.188 150.048 225.639 151.265C226.089 152.482 230.383 149.532 230.383 149.532L228.16 148.83Z" fill="#6E479F" stroke="#363636" stroke-linecap="round" stroke-linejoin="round"/>
<path d="M227.038 149.13L228.083 151.171L245.03 147.098C235.646 143.53 239.03 134.867 239.03 134.867L227.038 149.13Z" fill="#F2F5F9" stroke="#363636" stroke-linecap="round" stroke-linejoin="round"/>
<path d="M367.958 65.1463C364.9 60.3421 358.392 58.9374 353.541 62.0278L332.721 75.279C332.175 76.6275 331.868 78.1072 331.868 79.6618C331.868 86.0486 336.948 91.2273 343.237 91.2554L364.383 79.231C369.425 76.3653 371.035 69.9972 367.958 65.1556V65.1463Z" fill="#F2F5F9" stroke="#363636" stroke-linecap="round" stroke-linejoin="round"/>
<path d="M367.958 65.1463C364.9 60.3421 358.392 58.9374 353.541 62.0278L337.715 72.095C336.977 73.584 336.565 75.2696 336.565 77.0396C336.565 83.2298 341.588 88.2493 347.78 88.2493C348.039 88.2493 348.307 88.2399 348.557 88.2212L364.383 79.2216C369.425 76.356 371.035 69.9879 367.958 65.1463Z" fill="#363636" stroke="#363636" stroke-linecap="round" stroke-linejoin="round"/>
<path d="M297.397 94.2246C297.397 94.2246 295.077 94.2246 295.077 95.2547C295.077 96.2849 294.464 99.9465 295.806 99.8342C297.148 99.7218 297.023 97.4274 297.148 96.6314C297.273 95.826 297.388 94.2246 297.388 94.2246H297.397Z" fill="#F2F5F9" stroke="#363636" stroke-linecap="round" stroke-linejoin="round"/>
<path d="M299.938 90.4963C299.938 90.4963 297.867 89.8782 297.388 91.1144C296.908 92.3599 296.429 98.2785 297.867 98.1193C299.305 97.9601 299.621 92.669 299.938 90.4963Z" fill="#F2F5F9" stroke="#363636" stroke-linecap="round" stroke-linejoin="round"/>
<path d="M303.12 90.8067C303.12 90.8067 300.733 88.7839 299.938 90.4976C299.142 92.2114 298.979 97.0343 299.938 97.0343C300.896 97.0343 302.324 95.0115 302.65 93.9252C302.967 92.8389 303.13 90.816 303.13 90.816L303.12 90.8067Z" fill="#F2F5F9" stroke="#363636" stroke-linecap="round" stroke-linejoin="round"/>
<path d="M306.475 91.7416C306.475 91.7416 303.446 89.2505 302.967 89.7188C302.488 90.187 300.571 94.9818 302.008 95.9464C303.446 96.911 305.258 92.6125 305.258 92.6125L306.466 91.7509L306.475 91.7416Z" fill="#F2F5F9" stroke="#363636" stroke-linecap="round" stroke-linejoin="round"/>
<path d="M262.726 106.52C262.726 106.52 263.071 111.512 264.432 112.682C265.793 113.844 266.646 115.014 266.646 115.014C266.646 115.014 266.991 117.346 266.991 118.844C266.991 120.343 268.017 120.174 268.87 120.174C269.723 120.174 271.257 123.002 272.11 124.342C272.963 125.671 276.376 128.509 277.909 129.333C279.443 130.167 282.003 127.001 282.003 127.001L283.191 130.335L295.298 122.675L289.336 111.353C289.336 111.353 289.163 106.193 285.76 100.199C282.348 94.2056 277.746 90.8717 270.078 93.035C262.409 95.1983 262.745 106.52 262.745 106.52H262.726Z" fill="#F2F5F9" stroke="#363636" stroke-linecap="round" stroke-linejoin="round"/>
<path d="M276.74 84.3262C276.74 84.3262 273.117 84.3262 268.372 85.965C263.895 87.5102 262.793 93.5974 258.891 95.7794C254.99 97.9614 256.658 93.8689 254.702 94.9646C252.747 96.0509 250.801 105.594 254.98 108.319C259.169 111.044 265.304 107.504 265.304 107.504C265.304 107.504 264.748 109.415 266.416 109.958C268.084 110.501 269.484 110.772 269.484 110.772C269.484 110.772 269.206 114.041 271.717 113.769C274.228 113.498 271.995 109.677 271.995 109.677C271.995 109.677 276.74 118.667 280.363 119.763C283.987 120.849 289.288 115.951 290.687 113.769C292.087 111.587 290.965 96.0509 287.898 90.0575C284.83 84.064 276.74 84.3355 276.74 84.3355V84.3262Z" fill="#363636" stroke="#363636" stroke-linecap="round" stroke-linejoin="round"/>
<path d="M272.101 115.51C272.101 115.51 270.394 109.18 273.126 110.013C275.858 110.847 277.392 116.512 277.219 117.177C277.047 117.842 275.686 118.179 275.005 118.011" fill="#F2F5F9"/>
<path d="M272.101 115.51C272.101 115.51 270.394 109.18 273.126 110.013C275.858 110.847 277.392 116.512 277.219 117.177C277.047 117.842 275.686 118.179 275.005 118.011" stroke="#363636" stroke-linecap="round" stroke-linejoin="round"/>
<path d="M291.809 117.804C291.809 117.804 285.617 121.222 282.722 123.723C279.827 126.223 277.268 133.715 277.268 133.715C277.268 133.715 294.829 122.056 297.896 120.389C300.964 118.722 301.644 117.889 301.644 117.889C301.644 117.889 295.222 116.961 291.809 117.795V117.804Z" fill="#F2F5F9" stroke="#363636" stroke-linecap="round" stroke-linejoin="round"/>
<path d="M315.438 107.607C315.438 107.607 317.527 103.533 322.474 102.512C327.429 101.492 333.948 104.807 334.734 110.154C335.52 115.501 331.34 118.049 328.733 118.049C326.126 118.049 323.777 114.481 323.777 114.481C323.777 114.481 315.428 111.428 315.428 107.597L315.438 107.607Z" fill="#F2F5F9" stroke="#363636" stroke-linecap="round" stroke-linejoin="round"/>
<path d="M245.558 164.414L253.907 142.762C253.907 142.762 252.603 144.036 250.514 144.036C248.424 144.036 243.478 143.268 244.781 142.51C246.085 141.751 251.041 138.436 251.041 138.436C251.041 138.436 247.389 139.204 246.344 138.436C245.299 137.668 244.781 136.657 245.558 136.394C246.334 136.132 247.906 136.394 250.772 135.374C253.639 134.353 254.942 133.332 257.291 133.332C259.639 133.332 261.719 137.406 261.719 138.679C261.719 139.953 259.898 164.152 259.898 165.172C259.898 166.193 259.898 167.214 253.121 167.973C246.344 168.74 245.299 167.205 245.558 164.405V164.414Z" fill="#F2F5F9" stroke="#363636" stroke-linecap="round" stroke-linejoin="round"/>
<path d="M253.897 142.761L255.134 138.004" stroke="#363636" stroke-linecap="round" stroke-linejoin="round"/>
<path d="M253.639 159.066C253.639 159.066 245.289 161.361 243.727 164.929C242.164 168.497 242.423 173.844 245.548 176.906C248.673 179.959 249.977 180.727 253.37 179.454C256.764 178.18 257.54 176.139 257.799 174.106C258.058 172.065 259.888 165.191 253.629 159.076L253.639 159.066Z" fill="#F2F5F9" stroke="#363636" stroke-linecap="round" stroke-linejoin="round"/>
<path d="M250.255 267.091C250.255 267.091 242.951 263.775 240.084 265.049C237.218 266.323 237.218 267.596 240.87 273.206C244.523 278.815 254.693 285.689 258.077 284.163C261.47 282.636 258.336 272.447 258.336 272.447L250.255 267.1V267.091Z" fill="#F2F5F9" stroke="#363636" stroke-linecap="round" stroke-linejoin="round"/>
<path d="M245.031 274.984C241.714 271.407 239.691 267.829 238.704 265.854C237.362 267.015 237.937 268.719 240.851 273.205C244.503 278.805 254.674 285.688 258.058 284.162C258.92 283.778 259.361 282.823 259.534 281.624C254.76 283.6 249.766 280.126 245.021 274.994L245.031 274.984Z" fill="#F2F5F9" stroke="#363636" stroke-linecap="round" stroke-linejoin="round"/>
<path d="M287.802 189.127L288.061 196.769C288.061 196.769 272.158 202.631 264.326 207.979C256.504 213.326 251.29 217.409 250.504 222.504C249.718 227.598 250.245 267.09 250.245 267.09C250.245 267.09 247.896 267.595 248.682 269.131C249.468 270.658 251.031 276.267 253.111 276.773C255.191 277.278 257.808 278.299 258.326 277.026C258.843 275.752 260.415 268.11 261.451 265.563C262.495 263.016 264.317 251.038 265.879 242.638C267.442 234.228 267.442 228.375 267.442 228.375C267.442 228.375 274.478 227.607 283.613 224.554C292.738 221.502 306.043 215.892 306.043 215.892C306.043 215.892 316.732 242.132 319.08 247.227C321.429 252.321 330.554 263.784 332.376 267.099C334.197 270.414 345.671 284.677 345.671 284.677C345.671 284.677 350.1 280.856 352.975 280.856H356.886C356.886 280.856 352.189 268.12 348.278 260.478C344.367 252.836 336.287 240.353 336.287 240.353C336.287 240.353 328.992 195.776 328.723 192.714C328.215 186.833 324.362 177.955 324.362 177.955C324.362 177.955 311.776 175.389 287.783 189.146L287.802 189.127Z" fill="#363636" stroke="#363636" stroke-linecap="round" stroke-linejoin="round"/>
<path d="M345.69 284.667C345.69 284.667 344.128 287.214 343.869 287.982C343.61 288.75 337.868 289.509 338.654 292.056C339.44 294.603 345.431 296.645 348.307 296.898C351.173 297.15 356.915 293.33 357.96 292.309C358.573 291.71 359.494 287.748 359.005 284.667C358.66 282.532 356.915 280.846 356.915 280.846C356.915 280.846 351.959 273.457 345.7 284.667H345.69Z" fill="#F2F5F9" stroke="#363636" stroke-linecap="round" stroke-linejoin="round"/>
<path d="M358.986 284.667C358.736 283.103 357.73 281.783 357.212 281.184C355.238 281.305 352.937 281.867 351.422 283.647C348.815 286.699 350.119 293.583 346.994 294.603C344.664 295.362 340.591 292.581 338.664 291.12C338.558 291.401 338.539 291.71 338.645 292.056C339.431 294.603 345.422 296.645 348.297 296.898C351.164 297.151 356.905 293.33 357.95 292.309C358.564 291.71 359.484 287.748 358.995 284.667H358.986Z" fill="#F2F5F9" stroke="#363636" stroke-linecap="round" stroke-linejoin="round"/>
<path d="M352.208 286.446C351.163 291.034 352.467 294.087 348.297 296.887C351.163 297.14 356.905 293.319 357.95 292.299C358.564 291.699 359.484 287.738 358.995 284.657C358.89 283.992 358.64 283.374 358.353 282.831L357.95 282.868C357.95 282.868 353.253 281.847 352.218 286.436L352.208 286.446Z" fill="#363636" stroke="#363636" stroke-linecap="round" stroke-linejoin="round"/>
<path d="M308.661 215.367L324.046 207.979" stroke="#F2F5F9" stroke-linecap="round" stroke-linejoin="round"/>
<path d="M315.706 212.062L329.001 210.273" stroke="#F2F5F9" stroke-linecap="round" stroke-linejoin="round"/>
<path d="M320.921 105.827C316.492 106.333 305.018 113.984 304.232 114.742C303.446 115.501 300.321 117.289 299.017 118.31C299.017 118.31 272.158 134.614 269.81 136.141C267.461 137.667 262.774 140.73 263.033 141.741C263.291 142.762 249.21 165.181 249.21 165.181C249.21 165.181 245.04 170.529 248.951 175.37C252.862 180.212 256.514 176.897 258.336 175.876C260.157 174.855 274.507 161.613 274.507 161.613L287.745 192.47C287.745 192.47 306.063 180.465 325.618 181.233L312.581 131.299C312.581 131.299 330.574 118.048 331.091 113.469C331.609 108.88 325.359 105.312 320.921 105.827Z" fill="#F2F5F9"/>
<path d="M320.921 105.827C316.492 106.333 305.018 113.984 304.232 114.742C303.446 115.501 300.321 117.289 299.017 118.31C299.017 118.31 272.158 134.614 269.81 136.141C267.461 137.667 262.774 140.73 263.033 141.741C263.291 142.762 249.21 165.181 249.21 165.181C249.21 165.181 245.04 170.529 248.951 175.37C252.862 180.212 256.514 176.897 258.336 175.876C260.157 174.855 274.507 161.613 274.507 161.613L287.745 192.47C287.745 192.47 306.063 180.465 325.618 181.233L312.581 131.299C312.581 131.299 330.574 118.048 331.091 113.469C331.609 108.88 325.359 105.312 320.921 105.827Z" stroke="#363636" stroke-linecap="round" stroke-linejoin="round"/>
<path d="M287.735 192.471C287.735 192.471 286.355 183.583 288.837 171.475L287.735 192.471Z" fill="#F2F5F9"/>
<path d="M287.735 192.471C287.735 192.471 286.355 183.583 288.837 171.475" stroke="#363636" stroke-linecap="round" stroke-linejoin="round"/>
<path d="M285.252 176.859C285.252 176.859 285.252 172.551 290.208 159.094L285.252 176.859Z" fill="#F2F5F9"/>
<path d="M285.252 176.859C285.252 176.859 285.252 172.551 290.208 159.094" stroke="#363636" stroke-linecap="round" stroke-linejoin="round"/>
<path d="M264.336 150.404L274.497 161.614L264.068 154.225" fill="#F2F5F9"/>
<path d="M264.336 150.404L274.497 161.614L264.068 154.225" stroke="#363636" stroke-linecap="round" stroke-linejoin="round"/>
<path d="M312.572 117.036V131.299L315.965 112.953" fill="#F2F5F9"/>
<path d="M312.572 117.036V131.299L315.965 112.953" stroke="#363636" stroke-linecap="round" stroke-linejoin="round"/>
<path d="M291.924 160.284C291.895 160.34 291.866 160.462 291.838 160.602C291.953 160.256 291.991 160.125 291.924 160.284Z" fill="#363636"/>
</g>
<defs>
<clipPath id="clip0_2078_9810">
<rect width="370" height="326" fill="white"/>
</clipPath>
</defs>
</svg>
