<svg width="35" height="36" viewBox="0 0 35 36" fill="none" xmlns="http://www.w3.org/2000/svg">
<path d="M17.4999 34.0397C23.5404 34.0397 28.4374 29.1428 28.4374 23.1022C28.4374 21.84 28.1015 20.6277 27.7082 19.4995C25.2776 21.9013 23.4305 23.1022 22.1665 23.1022C27.9932 12.8939 24.7915 8.51888 16.0415 2.68555C16.7707 9.9765 11.9641 13.2931 10.0067 15.1348C7.88634 17.1296 6.56238 19.9613 6.56238 23.1022C6.56238 29.1428 11.4593 34.0397 17.4999 34.0397ZM18.5344 8.13239C23.2619 12.1432 23.2845 15.2597 19.6334 21.6564C18.5236 23.6008 19.9277 26.0189 22.1665 26.0189C23.1705 26.0189 24.185 25.726 25.2566 25.1513C24.351 28.5885 21.2214 31.123 17.4999 31.123C13.0701 31.123 9.47904 27.532 9.47904 23.1022C9.47904 20.8575 10.4019 18.7675 12.0052 17.259C12.189 17.0862 13.1212 16.2599 13.161 16.2241C13.7791 15.6678 14.2883 15.1781 14.7916 14.6392C16.5859 12.7179 17.8748 10.5843 18.5344 8.13239Z" fill="#9E95E6"/>
</svg>
