<svg width="35" height="36" viewBox="0 0 35 36" fill="none" xmlns="http://www.w3.org/2000/svg">
<path d="M17.5 3.41797C25.55 3.41797 32.0834 9.9513 32.0834 18.0013C32.0834 26.0513 25.55 32.5846 17.5 32.5846C9.45002 32.5846 2.91669 26.0513 2.91669 18.0013C2.91669 9.9513 9.45002 3.41797 17.5 3.41797ZM17.5 29.668C23.9459 29.668 29.1667 24.4471 29.1667 18.0013C29.1667 11.5555 23.9459 6.33464 17.5 6.33464C11.0542 6.33464 5.83335 11.5555 5.83335 18.0013C5.83335 24.4471 11.0542 29.668 17.5 29.668ZM22.656 10.7829L24.7183 12.8453L17.5 20.0637L15.4376 18.0013L22.656 10.7829Z" fill="#9E95E6"/>
</svg>
