<svg width="922" height="279" viewBox="0 0 922 279" fill="none" xmlns="http://www.w3.org/2000/svg">
<path d="M518 119.566C518 119.566 429.878 170.897 495.687 227.066C582.065 300.792 895.506 299.672 919 188.566C933.123 121.778 861.5 68.5664 861.5 68.5664" stroke="#9E95E6" stroke-dasharray="6 6"/>
<path d="M518.5 42.0667C518.5 42.0667 374.5 154.067 312 115.067C209.097 50.8551 295.5 -23.9334 353.5 9.06677C435.961 55.9842 432.5 185.067 397.5 207.567C286.271 279.071 17.9999 123.067 17.9999 123.067" stroke="#9E95E6" stroke-linecap="round" stroke-dasharray="6 6"/>
<path d="M33.3329 110.067C33.3329 110.067 25.4928 117.903 17.9241 118.936C11.6573 119.792 0.999974 116.754 0.999974 116.754" stroke="#9E95E6" stroke-linecap="round" stroke-dasharray="6 6"/>
<path d="M21.9787 144.823C21.9787 144.823 21.4796 132.649 16.2134 126.547C11.8531 121.495 1.14626 116.792 1.14626 116.792" stroke="#9E95E6" stroke-linecap="round" stroke-dasharray="6 6"/>
</svg>
