<svg width="18" height="19" viewBox="0 0 18 19" fill="none" xmlns="http://www.w3.org/2000/svg">
<g clip-path="url(#clip0_2618_8028)">
<path d="M17.9913 9.66765C17.9913 8.9302 17.9301 8.39205 17.7975 7.83398H9.1792V11.1625H14.238C14.136 11.9896 13.5853 13.2354 12.3613 14.0724L12.3442 14.1839L15.0691 16.2465L15.2579 16.2649C16.9918 14.7003 17.9913 12.3982 17.9913 9.66765Z" fill="#4285F4"/>
<path d="M9.1792 18.4374C11.6576 18.4374 13.7382 17.6401 15.2579 16.2649L12.3613 14.0724C11.5862 14.6006 10.5459 14.9693 9.1792 14.9693C6.7518 14.9693 4.69157 13.4047 3.95716 11.2422L3.84951 11.2511L1.01606 13.3937L0.979004 13.4944C2.48847 16.4243 5.58904 18.4374 9.1792 18.4374Z" fill="#34A853"/>
<path d="M3.95726 11.2421C3.76348 10.684 3.65133 10.0861 3.65133 9.46822C3.65133 8.85032 3.76348 8.2524 3.94706 7.69433L3.94193 7.57548L1.07297 5.39844L0.979102 5.44206C0.356977 6.65789 0 8.02321 0 9.46822C0 10.9132 0.356977 12.2785 0.979102 13.4943L3.95726 11.2421Z" fill="#FBBC05"/>
<path d="M9.1792 3.96802C10.9028 3.96802 12.0655 4.69551 12.7285 5.30346L15.3191 2.83196C13.7281 1.38695 11.6576 0.5 9.1792 0.5C5.58904 0.5 2.48847 2.51305 0.979004 5.44292L3.94696 7.69519C4.69157 5.53265 6.7518 3.96802 9.1792 3.96802Z" fill="#EB4335"/>
</g>
<defs>
<clipPath id="clip0_2618_8028">
<rect width="18" height="18" fill="white" transform="translate(0 0.5)"/>
</clipPath>
</defs>
</svg>
