<svg width="385" height="352" viewBox="0 0 385 352" fill="none" xmlns="http://www.w3.org/2000/svg">
<path d="M342.829 117.505C333.572 92.84 317.999 70.5024 296.479 52.975C262.694 25.458 217.667 17.6282 176.854 39.1079C138.269 59.4162 139.211 103.936 109.956 131.465C87.5144 152.595 53.9504 186.266 71.5434 225.697C77.2783 238.543 89.4169 245.842 103.901 247.918C123.706 250.755 147.711 241.159 166.528 247.958C188.339 255.835 208.387 269.784 251.94 272.739C286.382 275.079 318.493 252.974 336.841 226.553C359.417 194.036 355.82 152.131 342.829 117.505Z" fill="#CEFE8F"/>
<path opacity="0.7" d="M344.765 124.601C335.508 99.9357 319.934 77.5981 298.415 60.0707C264.63 32.5537 219.602 24.7239 178.789 46.2036C140.205 66.5119 141.146 111.031 111.892 138.561C89.45 159.691 55.886 193.362 73.4789 232.792C79.2138 245.639 91.3525 252.938 105.837 255.013C125.641 257.851 149.647 248.254 168.463 255.053C190.275 262.93 210.323 276.88 253.875 279.834C288.318 282.175 320.428 260.07 338.777 233.649C361.353 201.132 357.756 159.227 344.765 124.601Z" fill="#CEFE8F"/>
<path d="M103.459 159.367C103.459 159.367 98.811 173.893 98.5621 180.181C98.3133 186.469 107.378 194.918 112.488 199.783C117.598 204.648 126.708 206.809 139.425 206.317C152.143 205.825 163.18 200.029 163.18 200.029C163.18 200.029 162.94 238.504 163.18 247.454C163.42 256.403 164.167 350.796 164.167 350.796H250.861C250.861 350.796 248.657 262.217 249.385 251.81C250.114 241.403 254.78 211.156 254.78 211.156C254.78 211.156 287.351 226.156 294.692 226.156C302.032 226.156 319.673 206.835 318.945 201.715C318.216 196.595 292.737 181.867 283.921 174.604C275.105 167.341 271.674 160.333 265.551 157.426C259.428 154.519 231.78 148.468 225.63 147.765C219.48 147.062 186.207 148.968 177.142 149.451C168.077 149.934 152.898 165.189 149.228 167.85C146.4 169.803 143.453 171.581 140.403 173.172C140.403 173.172 141.878 171.477 139.425 170.994C138.218 170.727 136.99 170.566 135.755 170.511C135.755 170.511 134.528 156.46 133.551 155.019C132.573 153.579 118.123 150.18 112.737 150.628C107.351 151.076 103.459 159.367 103.459 159.367Z" fill="white"/>
<mask id="mask0_2156_11080" style="mask-type:luminance" maskUnits="userSpaceOnUse" x="98" y="147" width="221" height="204">
<path d="M103.459 159.363C103.459 159.363 98.8115 173.889 98.5626 180.177C98.3138 186.465 107.379 194.914 112.489 199.779C117.599 204.644 126.708 206.805 139.426 206.313C152.143 205.821 163.181 200.025 163.181 200.025C163.181 200.025 162.941 238.5 163.181 247.45C163.421 256.399 164.167 350.792 164.167 350.792H250.861C250.861 350.792 248.657 262.213 249.386 251.806C250.114 241.399 254.78 211.152 254.78 211.152C254.78 211.152 287.351 226.152 294.692 226.152C302.033 226.152 319.674 206.831 318.945 201.711C318.216 196.591 292.737 181.863 283.921 174.6C275.105 167.337 271.675 160.329 265.551 157.422C259.428 154.515 231.78 148.464 225.631 147.761C219.481 147.059 186.207 148.964 177.142 149.447C168.078 149.93 152.898 165.185 149.228 167.846C146.401 169.799 143.454 171.577 140.403 173.169C140.403 173.169 141.878 171.474 139.426 170.99C138.219 170.724 136.991 170.562 135.755 170.507C135.755 170.507 134.529 156.456 133.551 155.015C132.574 153.575 118.123 150.176 112.738 150.624C107.352 151.072 103.459 159.363 103.459 159.363Z" fill="white"/>
</mask>
<g mask="url(#mask0_2156_11080)">
<path d="M317.07 206.836C318.394 204.675 319.14 202.849 318.98 201.724C318.243 196.639 292.772 181.876 283.956 174.613C275.14 167.35 271.71 160.342 265.587 157.435C259.463 154.528 231.816 148.477 225.666 147.774C222.411 147.569 219.148 147.537 215.89 147.678C223.133 155.055 203.27 168.343 207.527 168.694C211.784 169.045 230.891 166.173 241.84 161.484C241.84 161.484 254.984 161.115 265.942 167.631C275.265 173.112 299.304 192.67 317.07 206.836Z" fill="#6E479F"/>
<path d="M273.994 219.507C273.994 219.507 264.138 209.768 263.045 207.212C261.952 204.657 269.266 176.913 265.231 183.763C262.865 187.76 261.39 192.209 260.903 196.814C260.903 196.814 256.148 178.775 255.784 183.105C255.42 187.434 255.42 198.263 255.42 198.263C255.42 198.263 238.267 178.775 241.2 187.434C244.133 196.094 247.421 206.193 247.421 206.193L223.986 370.344L233.842 367.095L255.739 213.052L273.994 219.507Z" fill="#6E479F"/>
<path d="M163.384 208.363C163.384 208.363 163.748 169.72 162.646 171.565C161.544 173.409 160.46 181.664 160.46 181.664C160.46 181.664 154.986 169.035 154.239 173.365C153.493 177.695 155.332 187.074 155.332 187.074C155.332 187.074 148.756 189.604 130.875 192.484C112.994 195.365 116.656 192.484 127.222 187.434C137.789 182.385 145.885 170.845 145.885 165.426C145.885 160.007 142.233 144.805 130.919 142.671C119.606 140.537 95.8687 162.545 94.0468 166.875C92.225 171.205 107.893 165.057 107.893 165.057C107.893 165.057 110.079 175.165 110.808 178.406C111.537 181.647 106.8 187.066 106.427 188.506C106.053 189.946 115.189 186.705 114.425 187.786C113.661 188.866 104.934 195.69 106.764 198.974C108.595 202.259 123.588 208.003 137.096 209.847C145.88 210.836 154.771 210.334 163.384 208.363Z" fill="#6E479F"/>
<path opacity="0.5" d="M163.384 208.363C163.384 208.363 163.748 169.72 162.646 171.565C161.544 173.409 160.46 181.664 160.46 181.664C160.46 181.664 154.986 169.035 154.239 173.365C153.493 177.695 155.332 187.074 155.332 187.074C155.332 187.074 148.756 189.604 130.875 192.484C112.994 195.365 116.656 192.484 127.222 187.434C137.789 182.385 145.885 170.845 145.885 165.426C145.885 160.007 142.233 144.805 130.919 142.671C119.606 140.537 95.8687 162.545 94.0468 166.875C92.225 171.205 107.893 165.057 107.893 165.057C107.893 165.057 110.079 175.165 110.808 178.406C111.537 181.647 106.8 187.066 106.427 188.506C106.053 189.946 115.189 186.705 114.425 187.786C113.661 188.866 104.934 195.69 106.764 198.974C108.595 202.259 123.588 208.003 137.096 209.847C145.88 210.836 154.771 210.334 163.384 208.363Z" fill="white"/>
<path opacity="0.5" d="M273.994 219.507C273.994 219.507 264.138 209.768 263.045 207.212C261.952 204.657 269.266 176.913 265.231 183.763C262.865 187.76 261.39 192.209 260.903 196.814C260.903 196.814 256.148 178.775 255.784 183.105C255.42 187.434 255.42 198.263 255.42 198.263C255.42 198.263 238.267 178.775 241.2 187.434C244.133 196.094 247.421 206.193 247.421 206.193L223.986 370.344L233.842 367.095L255.739 213.052L273.994 219.507Z" fill="white"/>
<path d="M164.193 350.805H250.896C250.896 350.805 250.212 323.491 249.732 297.425L163.705 291.752C163.953 319.882 164.193 350.805 164.193 350.805Z" fill="#263238"/>
<path opacity="0.5" d="M317.07 206.836C318.394 204.675 319.14 202.849 318.98 201.724C318.243 196.639 292.772 181.876 283.956 174.613C275.14 167.35 271.71 160.342 265.587 157.435C259.463 154.528 231.816 148.477 225.666 147.774C222.411 147.569 219.148 147.537 215.89 147.678C223.133 155.055 203.27 168.343 207.527 168.694C211.784 169.045 230.891 166.173 241.84 161.484C241.84 161.484 254.984 161.115 265.942 167.631C275.265 173.112 299.304 192.67 317.07 206.836Z" fill="white"/>
</g>
<path d="M103.459 159.367C103.459 159.367 98.811 173.893 98.5621 180.181C98.3133 186.469 107.378 194.918 112.488 199.783C117.598 204.648 126.708 206.809 139.425 206.317C152.143 205.825 163.18 200.029 163.18 200.029C163.18 200.029 162.94 238.504 163.18 247.454C163.42 256.403 164.167 350.796 164.167 350.796H250.861C250.861 350.796 248.657 262.217 249.385 251.81C250.114 241.403 254.78 211.156 254.78 211.156C254.78 211.156 287.351 226.156 294.692 226.156C302.032 226.156 319.673 206.835 318.945 201.715C318.216 196.595 292.737 181.867 283.921 174.604C275.105 167.341 271.674 160.333 265.551 157.426C259.428 154.519 231.78 148.468 225.63 147.765C219.48 147.062 186.207 148.968 177.142 149.451C168.077 149.934 152.898 165.189 149.228 167.85C146.4 169.803 143.453 171.581 140.403 173.172C140.403 173.172 141.878 171.477 139.425 170.994C138.218 170.727 136.99 170.566 135.755 170.511C135.755 170.511 134.528 156.46 133.551 155.019C132.573 153.579 118.123 150.18 112.737 150.628C107.351 151.076 103.459 159.367 103.459 159.367Z" stroke="#263238" stroke-width="0.959325" stroke-linecap="round" stroke-linejoin="round"/>
<path d="M163.705 177.518L163.216 200.027L156.853 175.34" stroke="#263238" stroke-width="0.959325" stroke-linecap="round" stroke-linejoin="round"/>
<path d="M135.79 170.5C135.79 170.5 126.237 182.839 119.598 184.051" stroke="#263238" stroke-width="0.959325" stroke-linecap="round" stroke-linejoin="round"/>
<path d="M140.439 173.16C140.439 173.16 137.257 179.457 133.827 180.186" stroke="#263238" stroke-width="0.959325" stroke-linecap="round" stroke-linejoin="round"/>
<path d="M258.974 195.907L254.815 211.162L252.362 195.67" stroke="#263238" stroke-width="0.959325" stroke-linecap="round" stroke-linejoin="round"/>
<path d="M203.385 167.594L194.809 174.611L187.459 349.59" stroke="#263238" stroke-width="0.959325" stroke-linecap="round" stroke-linejoin="round"/>
<path d="M198.692 188.285C198.692 188.596 198.599 188.9 198.424 189.158C198.249 189.417 198.001 189.618 197.71 189.737C197.42 189.856 197.1 189.887 196.791 189.827C196.483 189.766 196.199 189.616 195.977 189.397C195.754 189.177 195.603 188.897 195.541 188.592C195.48 188.287 195.511 187.971 195.632 187.683C195.752 187.396 195.956 187.151 196.218 186.978C196.479 186.805 196.787 186.713 197.102 186.713C197.523 186.715 197.926 186.882 198.224 187.176C198.522 187.47 198.69 187.869 198.692 188.285Z" fill="#263238"/>
<path d="M216.36 188.285C216.36 188.596 216.267 188.9 216.092 189.158C215.917 189.417 215.669 189.618 215.378 189.737C215.088 189.856 214.768 189.887 214.459 189.827C214.151 189.766 213.867 189.616 213.645 189.397C213.422 189.177 213.271 188.897 213.209 188.592C213.148 188.287 213.179 187.971 213.3 187.683C213.42 187.396 213.624 187.151 213.886 186.978C214.147 186.805 214.455 186.713 214.77 186.713C215.191 186.715 215.594 186.882 215.892 187.176C216.19 187.47 216.358 187.869 216.36 188.285Z" fill="#263238"/>
<path d="M198.115 218.627C198.115 218.938 198.022 219.242 197.847 219.5C197.672 219.759 197.424 219.96 197.133 220.079C196.842 220.198 196.523 220.229 196.214 220.169C195.905 220.108 195.622 219.958 195.4 219.738C195.177 219.518 195.026 219.238 194.964 218.933C194.903 218.628 194.934 218.312 195.055 218.025C195.175 217.738 195.379 217.492 195.641 217.32C195.902 217.147 196.21 217.055 196.524 217.055C196.946 217.055 197.351 217.22 197.649 217.515C197.948 217.81 198.115 218.21 198.115 218.627Z" fill="#263238"/>
<path d="M215.747 218.627C215.747 218.938 215.654 219.242 215.479 219.5C215.304 219.759 215.056 219.96 214.765 220.079C214.474 220.198 214.154 220.229 213.846 220.169C213.537 220.108 213.254 219.958 213.031 219.738C212.809 219.518 212.657 219.238 212.596 218.933C212.535 218.628 212.566 218.312 212.687 218.025C212.807 217.738 213.011 217.492 213.272 217.32C213.534 217.147 213.842 217.055 214.156 217.055C214.365 217.055 214.572 217.095 214.765 217.174C214.958 217.253 215.133 217.369 215.281 217.515C215.429 217.661 215.546 217.834 215.626 218.025C215.706 218.216 215.747 218.42 215.747 218.627Z" fill="#263238"/>
<path d="M197.503 253.027C197.503 253.338 197.41 253.642 197.235 253.9C197.06 254.159 196.812 254.36 196.521 254.479C196.23 254.598 195.91 254.63 195.602 254.569C195.293 254.508 195.01 254.359 194.787 254.139C194.565 253.919 194.413 253.639 194.352 253.334C194.29 253.029 194.322 252.713 194.442 252.426C194.563 252.138 194.767 251.893 195.028 251.72C195.29 251.547 195.597 251.455 195.912 251.455C196.334 251.455 196.739 251.621 197.037 251.916C197.335 252.21 197.503 252.61 197.503 253.027Z" fill="#263238"/>
<path d="M215.133 253.027C215.133 253.338 215.04 253.642 214.865 253.9C214.69 254.159 214.442 254.36 214.151 254.479C213.861 254.598 213.541 254.63 213.232 254.569C212.924 254.508 212.64 254.359 212.418 254.139C212.195 253.919 212.044 253.639 211.982 253.334C211.921 253.029 211.952 252.713 212.073 252.426C212.193 252.138 212.397 251.893 212.659 251.72C212.92 251.547 213.228 251.455 213.542 251.455C213.751 251.455 213.958 251.496 214.151 251.575C214.344 251.654 214.52 251.77 214.667 251.916C214.815 252.061 214.932 252.235 215.012 252.426C215.092 252.616 215.133 252.821 215.133 253.027Z" fill="#263238"/>
<path d="M122.078 132.992C122.078 132.992 115.706 132.992 113.502 133.712C111.298 134.432 103.22 149.204 101.06 154.527C99.7257 157.996 99.2208 161.723 99.5851 165.417L111.343 159.849L114.773 175.341C114.773 175.341 133.383 160.823 135.836 156.02C138.288 151.216 132.654 137.62 132.654 137.62L122.078 132.992Z" fill="#263238" stroke="#263238" stroke-width="0.959325" stroke-linecap="round" stroke-linejoin="round"/>
<path d="M203.875 142.668C203.875 142.668 192.117 145.812 190.891 151.626C189.664 157.44 199.707 166.626 201.671 168.312C203.635 169.999 221.747 166.372 229.834 164.439C237.921 162.507 248.692 157.414 248.443 153.303C248.195 149.193 243.298 147.498 241.831 144.108C240.365 140.718 239.379 138.786 234.971 138.303C230.576 137.878 226.154 137.796 221.747 138.057C220.023 138.312 203.875 142.668 203.875 142.668Z" fill="#263238" stroke="#263238" stroke-width="0.959325" stroke-linecap="round" stroke-linejoin="round"/>
<path d="M203.385 167.593C203.385 167.593 202.159 165.178 197.502 165.415C192.845 165.652 189.175 170.737 189.175 170.737C189.175 170.737 198.24 172.678 203.385 167.593Z" fill="#263238" stroke="#263238" stroke-width="0.959325" stroke-linecap="round" stroke-linejoin="round"/>
<path d="M203.386 167.592C203.386 167.592 205.341 163.965 209.26 167.838C213.179 171.711 215.623 178.228 215.623 178.228C215.623 178.228 210.486 180.406 205.59 175.321C200.693 170.236 203.386 167.592 203.386 167.592Z" fill="#263238" stroke="#263238" stroke-width="0.959325" stroke-linecap="round" stroke-linejoin="round"/>
<path d="M241.352 147.021C241.352 147.021 241.601 151.623 232.776 156.217C226.473 159.364 219.937 162.033 213.224 164.2" stroke="white" stroke-width="0.959325" stroke-linecap="round" stroke-linejoin="round"/>
<path d="M226.439 153.128C226.439 153.128 233.015 148.956 233.993 146.102C234.971 143.248 232.038 141.711 232.038 141.711" stroke="white" stroke-width="0.959325" stroke-linecap="round" stroke-linejoin="round"/>
<path d="M203.874 166.628C203.874 166.628 197.991 159.602 197.991 154.332C197.991 149.063 200.195 148.281 200.195 148.281" stroke="white" stroke-width="0.959325" stroke-linecap="round" stroke-linejoin="round"/>
<path d="M204.204 86.6989C202.047 84.1663 200.204 81.3891 198.711 78.4259C196.623 74.0348 193.743 66.7981 199.236 62.4069C204.728 58.0158 225.897 55.1703 236.117 56.4613C246.337 57.7523 254.949 68.0891 263.054 82.5624C271.159 97.0358 273.781 108.154 271.941 113.064C270.101 117.973 262.787 123.4 254.167 123.146C245.546 122.891 240.57 113.836 235.602 109.191C230.634 104.545 215.161 94.9719 213.108 92.8993C210.69 90.7846 208.157 88.8027 205.519 86.9624L204.204 86.6989Z" fill="white"/>
<mask id="mask1_2156_11080" style="mask-type:luminance" maskUnits="userSpaceOnUse" x="196" y="56" width="77" height="68">
<path d="M204.204 86.7009C202.048 84.1682 200.204 81.3911 198.712 78.4279C196.623 74.0367 193.744 66.8001 199.236 62.4089C204.728 58.0177 225.897 55.1722 236.118 56.4632C246.338 57.7542 254.949 68.0911 263.054 82.5644C271.16 97.0377 273.781 108.156 271.942 113.066C270.102 117.975 262.788 123.402 254.167 123.148C245.547 122.893 240.57 113.838 235.602 109.192C230.634 104.547 215.162 94.9739 213.109 92.9012C210.691 90.7865 208.157 88.8046 205.519 86.9644L204.204 86.7009Z" fill="white"/>
</mask>
<g mask="url(#mask1_2156_11080)">
<path d="M242.569 58.5703C246.568 63.383 255.98 75.5554 256.842 84.6188C257.935 96.1588 235.664 90.3888 235.664 90.3888C235.664 90.3888 250.265 81.7294 245.884 82.8096C241.502 83.8898 237.885 81.3693 231.282 81.3693C224.679 81.3693 216.316 72.7099 216.316 75.5993C216.316 78.4887 217.045 79.2088 218.876 81.7469C220.707 84.285 217.045 81.7469 225.808 94.0422C228.474 97.8099 230.536 102.227 232.553 106.715C233.762 107.646 234.81 108.472 235.593 109.236C240.56 113.882 245.528 122.927 254.158 123.191C262.787 123.454 270.155 118.018 271.932 113.109C273.709 108.199 271.141 97.0809 263.045 82.6076C256.708 71.2433 250.052 62.4785 242.569 58.5703Z" fill="#6E479F"/>
<path opacity="0.5" d="M242.569 58.5703C246.568 63.383 255.98 75.5554 256.842 84.6188C257.935 96.1588 235.664 90.3888 235.664 90.3888C235.664 90.3888 250.265 81.7294 245.884 82.8096C241.502 83.8898 237.885 81.3693 231.282 81.3693C224.679 81.3693 216.316 72.7099 216.316 75.5993C216.316 78.4887 217.045 79.2088 218.876 81.7469C220.707 84.285 217.045 81.7469 225.808 94.0422C228.474 97.8099 230.536 102.227 232.553 106.715C233.762 107.646 234.81 108.472 235.593 109.236C240.56 113.882 245.528 122.927 254.158 123.191C262.787 123.454 270.155 118.018 271.932 113.109C273.709 108.199 271.141 97.0809 263.045 82.6076C256.708 71.2433 250.052 62.4785 242.569 58.5703Z" fill="white"/>
</g>
<path d="M204.204 86.6989C202.047 84.1663 200.204 81.3891 198.711 78.4259C196.623 74.0348 193.743 66.7981 199.236 62.4069C204.728 58.0158 225.897 55.1703 236.117 56.4613C246.337 57.7523 254.949 68.0891 263.054 82.5624C271.159 97.0358 273.781 108.154 271.941 113.064C270.101 117.973 262.787 123.4 254.167 123.146C245.546 122.891 240.57 113.836 235.602 109.191C230.634 104.545 215.161 94.9719 213.108 92.8993C210.69 90.7846 208.157 88.8027 205.519 86.9624L204.204 86.6989Z" stroke="#263238" stroke-width="0.959325" stroke-linecap="round" stroke-linejoin="round"/>
<path d="M212.025 77.7243C212.025 77.7243 209.43 76.3015 205.102 70.8828" stroke="#263238" stroke-width="0.959325" stroke-linecap="round" stroke-linejoin="round"/>
<path d="M214.388 69.2043C214.259 68.4411 214.235 67.6641 214.317 66.8945" stroke="#263238" stroke-width="0.959325" stroke-linecap="round" stroke-linejoin="round"/>
<path d="M218.645 78.8657C217.18 76.6539 215.987 74.2776 215.09 71.7871" stroke="#263238" stroke-width="0.959325" stroke-linecap="round" stroke-linejoin="round"/>
<path d="M239.708 90.2754C239.708 90.2754 246.924 91.6981 253.269 90.5652" stroke="#263238" stroke-width="0.959325" stroke-linecap="round" stroke-linejoin="round"/>
<path d="M261.934 103.641C262.592 103.641 263.267 103.641 263.943 103.641" stroke="#263238" stroke-width="0.959325" stroke-linecap="round" stroke-linejoin="round"/>
<path d="M249.804 101.961C252.748 102.69 255.747 103.183 258.771 103.436" stroke="#263238" stroke-width="0.959325" stroke-linecap="round" stroke-linejoin="round"/>
<path d="M248.408 107.373C248.408 107.373 255.58 115.084 260.77 116.507" stroke="#263238" stroke-width="0.959325" stroke-linecap="round" stroke-linejoin="round"/>
<path d="M242.916 111.481C242.916 110.708 238.988 101.663 232.189 95.1988C225.391 88.735 212.309 87.1893 207.865 87.444C203.422 87.6987 201.324 89.7713 201.324 89.7713C201.324 89.7713 196.623 106.835 194.268 112.781C192.396 117.901 192.327 123.496 194.072 128.66C195.7 133.252 197.872 137.639 200.542 141.728C204.47 147.928 204.47 164.992 204.47 164.992C204.47 164.992 224.084 156.21 226.439 153.101C228.794 149.992 227.479 139.146 228.528 133.973C228.743 132.918 229.058 131.886 229.47 130.89C230.739 129.522 231.751 127.939 232.456 126.218C232.456 126.218 242.916 112.289 242.916 111.481Z" fill="white"/>
<mask id="mask2_2156_11080" style="mask-type:luminance" maskUnits="userSpaceOnUse" x="192" y="87" width="51" height="78">
<path d="M242.915 111.481C242.915 110.708 238.987 101.663 232.189 95.1988C225.39 88.735 212.308 87.1893 207.865 87.444C203.421 87.6987 201.324 89.7713 201.324 89.7713C201.324 89.7713 196.622 106.835 194.267 112.781C192.395 117.901 192.326 123.496 194.072 128.66C195.7 133.252 197.871 137.639 200.542 141.728C204.47 147.928 204.47 164.992 204.47 164.992C204.47 164.992 224.084 156.21 226.439 153.101C228.794 149.992 227.478 139.146 228.527 133.973C228.742 132.918 229.058 131.886 229.469 130.89C230.739 129.522 231.75 127.939 232.455 126.218C232.455 126.218 242.915 112.289 242.915 111.481Z" fill="white"/>
</mask>
<g mask="url(#mask2_2156_11080)">
<path d="M237.05 100.827L231.282 100.484C229.664 107.821 227.586 115.051 225.061 122.133C221.409 131.873 216.299 137.643 211.189 139.452C206.078 141.261 200.24 138.732 202.426 141.612C203.723 143.325 211.597 150.64 220.369 157.201C223.311 155.585 225.701 154.083 226.421 153.126C228.776 150.026 227.461 139.171 228.509 133.998C228.725 132.943 229.04 131.911 229.452 130.915C230.721 129.547 231.733 127.964 232.438 126.243C232.438 126.243 242.898 112.288 242.898 111.506C242.915 110.944 240.818 105.982 237.05 100.827Z" fill="#6E479F"/>
<path opacity="0.5" d="M237.05 100.827L231.282 100.484C229.664 107.821 227.586 115.051 225.061 122.133C221.409 131.873 216.299 137.643 211.189 139.452C206.078 141.261 200.24 138.732 202.426 141.612C203.723 143.325 211.597 150.64 220.369 157.201C223.311 155.585 225.701 154.083 226.421 153.126C228.776 150.026 227.461 139.171 228.509 133.998C228.725 132.943 229.04 131.911 229.452 130.915C230.721 129.547 231.733 127.964 232.438 126.243C232.438 126.243 242.898 112.288 242.898 111.506C242.915 110.944 240.818 105.982 237.05 100.827Z" fill="white"/>
</g>
<path d="M242.916 111.481C242.916 110.708 238.988 101.663 232.189 95.1988C225.391 88.735 212.309 87.1893 207.865 87.444C203.422 87.6987 201.324 89.7713 201.324 89.7713C201.324 89.7713 196.623 106.835 194.268 112.781C192.396 117.901 192.327 123.496 194.072 128.66C195.7 133.252 197.872 137.639 200.542 141.728C204.47 147.928 204.47 164.992 204.47 164.992C204.47 164.992 224.084 156.21 226.439 153.101C228.794 149.992 227.479 139.146 228.528 133.973C228.743 132.918 229.058 131.886 229.47 130.89C230.739 129.522 231.751 127.939 232.456 126.218C232.456 126.218 242.916 112.289 242.916 111.481Z" stroke="#263238" stroke-width="0.959325" stroke-linecap="round" stroke-linejoin="round"/>
<path d="M209.696 105.574C209.696 105.574 208.914 108.674 206.301 109.702C203.688 110.729 200.284 110.484 201.324 112.293C202.364 114.102 206.301 115.129 206.301 115.129" stroke="#263238" stroke-width="0.959325" stroke-linecap="round" stroke-linejoin="round"/>
<path d="M202.64 121.59C202.64 121.59 207.083 123.399 209.696 122.108" stroke="#263238" stroke-width="0.959325" stroke-linecap="round" stroke-linejoin="round"/>
<path d="M218.591 108.154C218.591 108.154 218.067 112.545 223.559 111.773" stroke="#263238" stroke-width="0.959325" stroke-linecap="round" stroke-linejoin="round"/>
<path d="M201.066 104.016C201.066 104.016 203.679 108.152 207.341 105.57" stroke="#263238" stroke-width="0.959325" stroke-linecap="round" stroke-linejoin="round"/>
<path d="M219.898 102.208C219.898 102.208 224.609 100.653 226.697 106.344" stroke="#263238" stroke-width="0.959325" stroke-linecap="round" stroke-linejoin="round"/>
<path d="M209.695 100.144C209.695 100.144 206.558 95.4894 202.115 98.8443" stroke="#263238" stroke-width="0.959325" stroke-linecap="round" stroke-linejoin="round"/>
<path d="M209.962 119.527C209.962 119.527 210.22 123.4 212.308 124.182" stroke="#263238" stroke-width="0.959325" stroke-linecap="round" stroke-linejoin="round"/>
<path d="M233.762 124.434C233.762 124.434 226.439 133.216 221.471 134.77" stroke="#263238" stroke-width="0.959325" stroke-linecap="round" stroke-linejoin="round"/>
<path d="M233.086 104.789C233.086 104.789 229.682 108.803 230.065 112.193C230.447 115.583 235.735 118.973 237.245 118.973C238.756 118.973 242.915 112.825 242.915 112.825C242.915 112.825 236.908 106.335 233.086 104.789Z" fill="#263238" stroke="#263238" stroke-width="0.959325" stroke-linecap="round" stroke-linejoin="round"/>
<path d="M209.749 93.2959C209.749 93.2959 206.807 96.2029 199.706 96.2029C195.686 96.2339 191.671 95.9106 187.708 95.2368C187.708 95.2368 203.625 91.3638 209.749 93.2959Z" fill="#263238" stroke="#263238" stroke-width="0.959325" stroke-linecap="round" stroke-linejoin="round"/>
<path d="M160.097 139.527C160.986 142.801 163.086 145.627 165.982 147.446C168.878 149.265 172.359 149.944 175.737 149.349C179.115 148.754 182.144 146.929 184.226 144.234C186.308 141.539 187.291 138.17 186.981 134.793L160.097 139.527Z" fill="white"/>
<mask id="mask3_2156_11080" style="mask-type:luminance" maskUnits="userSpaceOnUse" x="160" y="134" width="28" height="16">
<path d="M160.097 139.529C160.986 142.803 163.086 145.629 165.982 147.448C168.878 149.267 172.359 149.946 175.737 149.351C179.115 148.756 182.144 146.931 184.226 144.236C186.308 141.541 187.291 138.172 186.981 134.795L160.097 139.529Z" fill="white"/>
</mask>
<g mask="url(#mask3_2156_11080)">
<path opacity="0.42" d="M160.097 139.529C160.986 142.803 163.086 145.629 165.982 147.448C168.878 149.267 172.359 149.946 175.737 149.351C179.115 148.756 182.144 146.931 184.226 144.236C186.308 141.541 187.291 138.172 186.981 134.795L160.097 139.529Z" fill="black"/>
</g>
<path d="M160.097 139.527C160.986 142.801 163.086 145.627 165.982 147.446C168.878 149.265 172.359 149.944 175.737 149.349C179.115 148.754 182.144 146.929 184.226 144.234C186.308 141.539 187.291 138.17 186.981 134.793L160.097 139.527Z" stroke="#263238" stroke-width="0.959325" stroke-linecap="round" stroke-linejoin="round"/>
<path d="M143.38 104.457C144.251 102.808 144.751 100.992 144.846 99.1346C144.846 96.4999 143.868 92.1087 142.402 92.6005C140.936 93.0924 140.936 96.7107 141.176 97.9227C141.281 98.9765 141.199 100.04 140.936 101.067C140.936 101.067 139.709 103.245 140.687 104.94C141.664 106.635 143.38 104.457 143.38 104.457Z" fill="white" stroke="#263238" stroke-width="0.959325" stroke-linecap="round" stroke-linejoin="round"/>
<path d="M160.096 139.524L133.559 83.2463C133.401 82.9141 133.179 82.6158 132.905 82.3688C132.63 82.1217 132.309 81.9306 131.96 81.8066C131.611 81.6825 131.24 81.6279 130.869 81.6459C130.498 81.6639 130.135 81.7541 129.8 81.9114C129.461 82.069 129.158 82.2919 128.908 82.5669C128.658 82.8419 128.466 83.1636 128.343 83.5129C128.221 83.8622 128.17 84.2323 128.194 84.6012C128.219 84.9702 128.317 85.3306 128.484 85.6614L129.648 87.9712" stroke="#263238" stroke-width="0.959325" stroke-linecap="round" stroke-linejoin="round"/>
<path d="M133.338 95.4708C133.338 95.4708 133.338 98.3778 134.564 99.1067C135.791 99.8356 142.154 103.498 142.403 101.285C142.652 99.0716 137.959 96.1997 136.528 95.4708C135.098 94.7419 134.564 94.9878 133.338 95.4708Z" stroke="#263238" stroke-width="0.959325" stroke-linecap="round" stroke-linejoin="round"/>
<path d="M134.564 99.1074C134.564 99.1074 130.645 106.845 130.645 110.235V123.066C130.645 123.066 115.466 138.795 114.728 142.905C113.991 147.015 112.062 156.957 114.728 156.957C117.394 156.957 129.916 145.092 130.894 142.677C131.872 140.262 137.746 124.286 137.746 124.286C138.238 123.502 138.813 122.772 139.461 122.108C140.439 121.134 140.688 114.845 140.688 114.845C140.688 114.845 143.354 114.599 143.354 113.15V104.456C143.38 102.489 134.564 99.1074 134.564 99.1074Z" fill="white"/>
<mask id="mask4_2156_11080" style="mask-type:luminance" maskUnits="userSpaceOnUse" x="113" y="99" width="31" height="58">
<path d="M134.564 99.1074C134.564 99.1074 130.645 106.845 130.645 110.235V123.066C130.645 123.066 115.466 138.795 114.728 142.905C113.991 147.015 112.062 156.957 114.728 156.957C117.394 156.957 129.916 145.092 130.894 142.677C131.872 140.262 137.746 124.286 137.746 124.286C138.238 123.502 138.813 122.772 139.461 122.108C140.439 121.134 140.688 114.845 140.688 114.845C140.688 114.845 143.354 114.599 143.354 113.15V104.456C143.38 102.489 134.564 99.1074 134.564 99.1074Z" fill="white"/>
</mask>
<g mask="url(#mask4_2156_11080)">
<path d="M130.895 142.672C131.872 140.248 137.747 124.282 137.747 124.282C138.239 123.498 138.814 122.768 139.462 122.104C140.44 121.129 140.688 114.841 140.688 114.841C140.688 114.841 143.355 114.595 143.355 113.146V104.46C143.355 104.038 142.937 103.582 142.288 103.055L140.511 110.959L133.463 111.653C134.572 113.263 135.403 115.044 135.925 116.922C136.636 119.706 135.578 124.58 133.819 129.103C132.157 133.371 115.458 153.421 113.565 155.696C113.769 156.513 114.134 157.013 114.738 157.013C117.422 156.952 129.917 145.087 130.895 142.672Z" fill="#6E479F"/>
<path opacity="0.5" d="M130.895 142.672C131.872 140.248 137.747 124.282 137.747 124.282C138.239 123.498 138.814 122.768 139.462 122.104C140.44 121.129 140.688 114.841 140.688 114.841C140.688 114.841 143.355 114.595 143.355 113.146V104.46C143.355 104.038 142.937 103.582 142.288 103.055L140.511 110.959L133.463 111.653C134.572 113.263 135.403 115.044 135.925 116.922C136.636 119.706 135.578 124.58 133.819 129.103C132.157 133.371 115.458 153.421 113.565 155.696C113.769 156.513 114.134 157.013 114.738 157.013C117.422 156.952 129.917 145.087 130.895 142.672Z" fill="white"/>
</g>
<path d="M134.564 99.1074C134.564 99.1074 130.645 106.845 130.645 110.235V123.066C130.645 123.066 115.466 138.795 114.728 142.905C113.991 147.015 112.062 156.957 114.728 156.957C117.394 156.957 129.916 145.092 130.894 142.677C131.872 140.262 137.746 124.286 137.746 124.286C138.238 123.502 138.813 122.772 139.461 122.108C140.439 121.134 140.688 114.845 140.688 114.845C140.688 114.845 143.354 114.599 143.354 113.15V104.456C143.38 102.489 134.564 99.1074 134.564 99.1074Z" stroke="#263238" stroke-width="0.959325" stroke-linecap="round" stroke-linejoin="round"/>
<path d="M140.687 114.837L139.949 112.896L137.505 113.142" stroke="#263238" stroke-width="0.959325" stroke-linecap="round" stroke-linejoin="round"/>
<path d="M134.075 108.787L142.402 109.024" stroke="#263238" stroke-width="0.959325" stroke-linecap="round" stroke-linejoin="round"/>
<path d="M134.563 104.184L142.642 106.124" stroke="#263238" stroke-width="0.959325" stroke-linecap="round" stroke-linejoin="round"/>
<path d="M301.34 202.686C301.34 202.686 280.011 206.313 282.242 210.915L282.979 214.305C282.979 214.305 267.551 233.626 268.28 234.39C269.009 235.154 296.719 251.332 297.67 251.332C298.621 251.332 316.039 220.593 319.71 214.542C323.38 208.491 323.878 202.932 319.221 200.025C314.564 197.118 309.445 194.457 309.445 194.457" fill="white"/>
<mask id="mask5_2156_11080" style="mask-type:luminance" maskUnits="userSpaceOnUse" x="268" y="194" width="55" height="58">
<path d="M301.34 202.686C301.34 202.686 280.011 206.313 282.242 210.915L282.979 214.305C282.979 214.305 267.551 233.626 268.28 234.39C269.009 235.154 296.719 251.332 297.67 251.332C298.621 251.332 316.039 220.593 319.71 214.542C323.38 208.491 323.878 202.932 319.221 200.025C314.564 197.118 309.445 194.457 309.445 194.457" fill="white"/>
</mask>
<g mask="url(#mask5_2156_11080)">
<path d="M319.22 200.025C314.563 197.118 309.444 194.457 309.444 194.457L306.467 197.487C309.488 200.034 314.643 204.732 314.901 207.27C315.265 210.88 309.791 218.099 309.062 219.566C308.333 221.032 301.757 209.466 295.553 209.466C289.35 209.466 295.82 211.749 299.108 215.298C302.396 218.846 302.814 224.616 300.255 228.225C297.855 231.615 271.994 229.911 276.659 239.528C285.12 244.525 297.002 251.358 297.642 251.358C298.619 251.358 316.012 220.62 319.682 214.569C323.352 208.518 323.877 202.932 319.22 200.025Z" fill="#6E479F"/>
<path opacity="0.5" d="M319.22 200.025C314.563 197.118 309.444 194.457 309.444 194.457L306.467 197.487C309.488 200.034 314.643 204.732 314.901 207.27C315.265 210.88 309.791 218.099 309.062 219.566C308.333 221.032 301.757 209.466 295.553 209.466C289.35 209.466 295.82 211.749 299.108 215.298C302.396 218.846 302.814 224.616 300.255 228.225C297.855 231.615 271.994 229.911 276.659 239.528C285.12 244.525 297.002 251.358 297.642 251.358C298.619 251.358 316.012 220.62 319.682 214.569C323.352 208.518 323.877 202.932 319.22 200.025Z" fill="white"/>
</g>
<path d="M301.34 202.686C301.34 202.686 280.011 206.313 282.242 210.915L282.979 214.305C282.979 214.305 267.551 233.626 268.28 234.39C269.009 235.154 296.719 251.332 297.67 251.332C298.621 251.332 316.039 220.593 319.71 214.542C323.38 208.491 323.878 202.932 319.221 200.025C314.564 197.118 309.445 194.457 309.445 194.457" stroke="#263238" stroke-width="0.959325" stroke-linecap="round" stroke-linejoin="round"/>
<path d="M286.161 212.848C286.161 212.848 293.75 209.95 299.136 215.272C304.521 220.594 305.508 222.772 305.508 222.772C305.319 220.6 304.677 218.491 303.623 216.576C302.57 214.661 301.126 212.982 299.385 211.645" stroke="#263238" stroke-width="0.959325" stroke-linecap="round" stroke-linejoin="round"/>
<path d="M257.998 246.01C257.998 246.01 255.545 249.154 253.101 250.401C249.429 252.455 246.318 255.361 244.036 258.867C241.094 263.259 237.424 267.096 239.592 268.791C240.861 269.797 242.413 270.389 244.036 270.486C244.036 270.486 245.502 273.876 247.466 274.114C248.442 274.25 249.424 274.332 250.408 274.359C250.408 274.359 252.114 276.054 253.074 276.054H255.571C255.571 276.054 256.549 277.266 258.753 276.054C260.957 274.843 263.197 267.579 263.899 265.164C264.601 262.749 264.636 257.655 264.636 257.655L268.067 252.816L260.228 245.07L257.998 246.01Z" fill="white"/>
<mask id="mask6_2156_11080" style="mask-type:luminance" maskUnits="userSpaceOnUse" x="238" y="245" width="31" height="32">
<path d="M257.998 246.006C257.998 246.006 255.545 249.15 253.101 250.397C249.429 252.451 246.318 255.357 244.036 258.864C241.094 263.255 237.424 267.093 239.592 268.788C240.861 269.793 242.413 270.385 244.036 270.483C244.036 270.483 245.502 273.873 247.466 274.11C248.442 274.246 249.424 274.328 250.408 274.356C250.408 274.356 252.114 276.051 253.074 276.051H255.571C255.571 276.051 256.549 277.263 258.753 276.051C260.957 274.839 263.197 267.576 263.899 265.16C264.601 262.745 264.636 257.652 264.636 257.652L268.067 252.812L260.228 245.066L257.998 246.006Z" fill="white"/>
</mask>
<g mask="url(#mask6_2156_11080)">
<path d="M257.997 246.008C257.398 246.751 256.754 247.458 256.069 248.125L259.57 256.108C259.57 256.108 256.904 268.93 254.994 272.469C254.22 273.918 252.612 274.472 250.977 274.832C251.557 275.417 252.293 275.828 253.101 276.017H255.571C255.571 276.017 256.549 277.229 258.753 276.017C260.957 274.805 263.196 267.542 263.898 265.127C264.601 262.712 264.636 257.618 264.636 257.618L268.066 252.779L260.228 245.033L257.997 246.008Z" fill="#6E479F"/>
<path opacity="0.5" d="M257.997 246.008C257.398 246.751 256.754 247.458 256.069 248.125L259.57 256.108C259.57 256.108 256.904 268.93 254.994 272.469C254.22 273.918 252.612 274.472 250.977 274.832C251.557 275.417 252.293 275.828 253.101 276.017H255.571C255.571 276.017 256.549 277.229 258.753 276.017C260.957 274.805 263.196 267.542 263.898 265.127C264.601 262.712 264.636 257.618 264.636 257.618L268.066 252.779L260.228 245.033L257.997 246.008Z" fill="white"/>
</g>
<path d="M257.998 246.01C257.998 246.01 255.545 249.154 253.101 250.401C249.429 252.455 246.318 255.361 244.036 258.867C241.094 263.259 237.424 267.096 239.592 268.791C240.861 269.797 242.413 270.389 244.036 270.486C244.036 270.486 245.502 273.876 247.466 274.114C248.442 274.25 249.424 274.332 250.408 274.359C250.408 274.359 252.114 276.054 253.074 276.054H255.571C255.571 276.054 256.549 277.266 258.753 276.054C260.957 274.843 263.197 267.579 263.899 265.164C264.601 262.749 264.636 257.655 264.636 257.655L268.067 252.816L260.228 245.07L257.998 246.01Z" stroke="#263238" stroke-width="0.959325" stroke-linecap="round" stroke-linejoin="round"/>
<path d="M267.55 231.484C267.55 231.484 296.442 246.493 298.158 247.459C299.873 248.426 300.61 251.332 300.122 254.485C299.633 257.638 303.054 269.494 299.384 269.494C295.714 269.494 279.788 264.655 270.483 259.57C261.178 254.485 256.521 246.985 256.521 246.019C256.521 245.053 267.55 231.484 267.55 231.484Z" fill="#263238" stroke="#263238" stroke-width="0.959325" stroke-linecap="round" stroke-linejoin="round"/>
<path d="M241.351 114.355L248.417 107.329C252.194 103.596 245.564 96.3508 243.164 93.6722C237.536 87.4588 230.41 82.752 222.448 79.9893C217.623 78.2855 207.136 75.0536 204.479 81.4911L199.769 92.8555C199.769 92.8555 212.584 91.8279 223.568 97.5101C234.553 103.192 241.351 114.355 241.351 114.355Z" fill="white"/>
<mask id="mask7_2156_11080" style="mask-type:luminance" maskUnits="userSpaceOnUse" x="199" y="77" width="51" height="38">
<path d="M241.351 114.353L248.416 107.327C252.193 103.594 245.563 96.3489 243.164 93.6703C237.536 87.4568 230.41 82.7501 222.448 79.9874C217.622 78.2836 207.135 75.0517 204.478 81.4892L199.768 92.8535C199.768 92.8535 212.583 91.826 223.568 97.5082C234.552 103.19 241.351 114.353 241.351 114.353Z" fill="white"/>
</mask>
<g mask="url(#mask7_2156_11080)">
<path d="M222.439 80.0316C218.343 78.5825 210.149 76.0532 206.149 79.2763C209.375 79.1885 214.468 80.0931 222.146 83.8959C238.214 91.8 238.578 94.3557 237.476 98.3253C237.023 99.9764 234.935 102.119 232.642 104.06C235.965 107.122 238.89 110.579 241.351 114.353L248.416 107.327C252.194 103.595 245.564 96.3492 243.164 93.6706C237.529 87.472 230.4 82.7805 222.439 80.0316Z" fill="#6E479F"/>
<path opacity="0.5" d="M222.439 80.0316C218.343 78.5825 210.149 76.0532 206.149 79.2763C209.375 79.1885 214.468 80.0931 222.146 83.8959C238.214 91.8 238.578 94.3557 237.476 98.3253C237.023 99.9764 234.935 102.119 232.642 104.06C235.965 107.122 238.89 110.579 241.351 114.353L248.416 107.327C252.194 103.595 245.564 96.3492 243.164 93.6706C237.529 87.472 230.4 82.7805 222.439 80.0316Z" fill="white"/>
</g>
<path d="M241.351 114.355L248.417 107.329C252.194 103.596 245.564 96.3508 243.164 93.6722C237.536 87.4588 230.41 82.752 222.448 79.9893C217.623 78.2855 207.136 75.0536 204.479 81.4911L199.769 92.8555C199.769 92.8555 212.584 91.8279 223.568 97.5101C234.553 103.192 241.351 114.355 241.351 114.355Z" stroke="#263238" stroke-width="0.959325" stroke-linecap="round" stroke-linejoin="round"/>
<path d="M233.761 118.233C233.761 118.233 241.866 111.77 244.221 115.643C246.576 119.516 241.084 124.952 236.898 124.952C232.712 124.952 230.624 123.397 230.624 123.397" fill="white"/>
<mask id="mask8_2156_11080" style="mask-type:luminance" maskUnits="userSpaceOnUse" x="230" y="114" width="15" height="11">
<path d="M233.761 118.231C233.761 118.231 241.866 111.768 244.221 115.641C246.576 119.514 241.084 124.95 236.898 124.95C232.712 124.95 230.624 123.395 230.624 123.395" fill="white"/>
</mask>
<g mask="url(#mask8_2156_11080)">
<path d="M233.761 118.231C233.761 118.231 241.866 111.768 244.221 115.641C246.576 119.514 241.084 124.95 236.898 124.95C232.712 124.95 230.624 123.395 230.624 123.395" fill="#6E479F"/>
<path opacity="0.5" d="M233.761 118.231C233.761 118.231 241.866 111.768 244.221 115.641C246.576 119.514 241.084 124.95 236.898 124.95C232.712 124.95 230.624 123.395 230.624 123.395" fill="white"/>
</g>
<path d="M233.761 118.233C233.761 118.233 241.866 111.77 244.221 115.643C246.576 119.516 241.084 124.952 236.898 124.952C232.712 124.952 230.624 123.397 230.624 123.397" stroke="#263238" stroke-width="0.959325" stroke-linecap="round" stroke-linejoin="round"/>
</svg>
