<?xml version="1.0" standalone="no"?> <!DOCTYPE svg PUBLIC "-//W3C//DTD SVG 1.0//EN" "http://www.w3.org/TR/2001/REC-SVG-20010904/DTD/svg10.dtd" > <svg xmlns="http://www.w3.org/2000/svg" width="100%" height="100%">
<defs >
<font horiz-adv-x="512" ><font-face
    font-family="SeoulHangang CBL"
    units-per-em="1024"
    panose-1="2 2 6 3 2 1 1 2 1 1"
    ascent="879"
    descent="-145"
    alphabetic="0" />
<missing-glyph horiz-adv-x="1024" d="M102 -43V777H922V-43H102ZM154 9H870V725H154V9Z" />
<glyph unicode=" " glyph-name="null" horiz-adv-x="307" />
<glyph unicode="!" glyph-name="null" horiz-adv-x="299" d="M230 61Q230 28 207 5T150 -19Q116 -19 93 4T69 61Q69 94 92 117T150 141Q183 141 206 118T230 61ZM77 810H222L195 233Q194 216 183 206T150 196Q130 196 118 205T105 233L77 810Z" />
<glyph unicode="&quot;" glyph-name="null" horiz-adv-x="379" d="M49 831H176L162 589Q161 570 148 559T115 548Q91 547 79 559T67 590L49 831ZM203 831H330L312 590Q312 571 300 560T264 548Q242 548 230 559T218 590L203 831Z" />
<glyph unicode="#" glyph-name="null" horiz-adv-x="574" d="M503 735L458 538H567L548 462H440L413 338H527L505 263H395L344 37H243L294 263H222L171 37H69L120 263H12L34 338H136L165 462H54L77 538H182L226 735H329L285 538H356L400 735H503ZM310 338L339
462H267L239 338H310Z" />
<glyph unicode="$" glyph-name="null" horiz-adv-x="497" d="M197 23Q128 30 86 60Q31 99 24 177H147Q147 133 174 112Q184 103 197 98V372Q118 403 80 442Q34 489 34 566Q34 643 89 696Q131 735 197 744V819H282V745Q342 738 382 711Q433 674 450 595H325Q323
640 300 662Q292 669 282 673V423Q375 387 416 345Q464 295 464 222Q464 127 400 74Q351 33 282 24V-56H197V23ZM282 99Q302 108 317 126Q347 162 347 214Q347 270 318 306Q304 324 282 337V99ZM197 671Q184 664 175 652Q148 621 148 560Q148 505 175 477Q184 466
197 458V671Z" />
<glyph unicode="%" glyph-name="null" horiz-adv-x="784" d="M485 743H584L299 22H200L485 743ZM11 510Q11 603 56 660T177 717Q252 717 297 660T343 510Q343 418 298 361T177 304Q101 304 56 361T11 510ZM234 510Q234 572 218 610T178 648Q155 648 139 610T122
510Q122 449 138 411T178 373Q202 373 218 411T234 510ZM441 251Q441 343 486 400T607 458Q682 458 727 401T773 251Q773 159 728 102T607 44Q531 44 486 101T441 251ZM665 251Q665 313 649 351T608 389Q585 389 569 351T552 251Q552 190 568 152T608 114Q632 114
648 152T665 251Z" />
<glyph unicode="&amp;" glyph-name="null" horiz-adv-x="762" d="M310 267Q288 302 250 371Q217 347 198 320Q163 271 167 214Q171 154 201 124T267 92Q299 89 339 108Q365 119 395 148Q344 212 310 267ZM207 452Q166 539 165 601Q164 673 211 721T346 766Q416
764 458 722T501 616Q501 549 457 504Q420 466 342 424Q378 359 398 326Q425 282 462 230Q471 246 479 265Q502 314 502 341Q502 361 496 369T459 378Q440 378 440 409T458 440H666Q689 440 689 409T664 378Q632 378 624 374T609 335Q582 233 520 149Q562 102 600
96Q610 94 625 97T657 108Q702 134 723 106T717 56Q700 44 668 31T590 17Q518 17 456 75Q374 0 267 0Q167 0 109 61T51 209Q51 298 105 365Q144 413 207 452ZM302 502Q352 531 373 553Q400 584 400 611Q400 643 383 662T340 682Q313 682 295 663T276 600Q276 561
302 502Z" />
<glyph unicode="&apos;" glyph-name="null" horiz-adv-x="298" d="M83 831H215L201 589Q200 570 186 559T151 548Q128 547 114 558T98 590L83 831Z" />
<glyph unicode="(" glyph-name="null" horiz-adv-x="348" d="M71 351Q71 525 129 646T268 818Q309 843 326 817T324 770Q255 705 222 600T190 351Q189 206 222 101T324 -69Q344 -89 327 -115T268 -116Q188 -68 130 54T71 351Z" />
<glyph unicode=")" glyph-name="null" horiz-adv-x="348" d="M278 351Q278 177 219 55T79 -116Q38 -142 21 -116T23 -70Q92 -4 125 101T158 351Q159 495 126 600T23 770Q3 790 20 816T79 818Q160 768 219 647T278 351Z" />
<glyph unicode="*" glyph-name="null" horiz-adv-x="348" d="M174 547Q173 541 169 518Q163 484 150 464Q138 445 122 438T85 443Q68 454 66 472T75 509Q84 528 111 550Q133 570 136 573Q132 571 105 562Q72 549 47 549Q27 549 13 560T-1 594Q-1 615 13 627T47
639Q72 639 104 628Q131 619 135 617Q131 620 111 638Q85 661 75 676Q63 698 65 716T86 745Q104 755 121 749T150 722Q163 705 169 671Q173 648 174 641L179 672Q185 705 198 721Q208 743 225 749T259 745Q279 735 282 717T272 676Q263 661 238 638Q216 620 213
617Q216 619 243 628Q275 639 298 639Q322 639 336 627T350 594Q350 571 336 560T298 549Q275 549 243 562Q218 570 213 572Q217 569 238 550Q263 528 272 509Q285 490 282 472T261 443Q242 430 225 437T198 464Q185 484 179 518Q175 541 174 547Z" />
<glyph unicode="+" glyph-name="null" horiz-adv-x="528" d="M213 360H31V443H213V650H312V443H496V360H312V136H213V360Z" />
<glyph unicode="," glyph-name="null" horiz-adv-x="281" d="M59 61Q59 94 82 117T140 141Q173 141 197 118T225 65Q232 11 205 -42T127 -123Q98 -139 81 -123T91 -85Q105 -73 115 -57T129 -21Q130 -13 122 -13Q101 -12 80 9T59 61Z" />
<glyph unicode="-" glyph-name="null" horiz-adv-x="379" d="M32 449H347V354H32V449Z" />
<glyph unicode="." glyph-name="null" horiz-adv-x="281" d="M221 61Q221 28 198 5T140 -19Q106 -19 83 4T59 61Q59 94 82 117T140 141Q174 141 197 118T221 61Z" />
<glyph unicode="/" glyph-name="null" horiz-adv-x="375" d="M270 828H376L104 -129H-1L270 828Z" />
<glyph unicode="0" glyph-name="null" horiz-adv-x="461" d="M4 382Q4 556 60 659T229 762Q342 762 399 659T457 382Q457 209 400 107T229 5Q117 5 61 107T4 382ZM134 382Q134 226 165 159T229 91Q264 91 295 158T327 382Q327 540 296 608T229 676Q196 676 165
608T134 382Z" />
<glyph unicode="1" glyph-name="null" horiz-adv-x="461" d="M164 617L145 610Q97 586 82 618T91 664L242 759H314V12H189V578Q189 613 182 616T164 617Z" />
<glyph unicode="2" glyph-name="null" horiz-adv-x="461" d="M18 79Q35 98 53 121Q114 186 205 324T297 551Q297 614 272 645T205 676Q175 676 152 653T121 569H9Q17 668 73 716T206 764Q314 764 370 705T426 547Q426 462 350 338T175 106H280Q311 106 331 113T361
166Q368 198 405 193T442 161L432 18H18V79Z" />
<glyph unicode="3" glyph-name="null" horiz-adv-x="461" d="M344 400Q382 385 411 333T438 216Q435 131 372 68T182 5Q140 5 94 18T11 61V165Q74 114 113 105T178 96Q231 96 270 129T310 233Q310 277 295 302T262 338Q247 349 227 353T179 358Q143 358 143 400T190
443Q206 443 215 443T233 445Q259 452 281 481T305 562Q308 618 279 646T208 675Q179 675 155 657T121 589H14Q26 674 78 718T212 762Q314 762 371 707T429 565Q429 499 400 454T344 400Z" />
<glyph unicode="4" glyph-name="null" horiz-adv-x="461" d="M263 215H-5V289L256 762H380V302H467V215H380V17H263V215ZM115 302H263V564L115 302Z" />
<glyph unicode="5" glyph-name="null" horiz-adv-x="461" d="M156 454Q182 467 207 472T263 475Q341 469 395 412T450 258Q450 151 383 82T200 8Q150 6 101 21T17 62V153Q88 105 136 99T207 97Q258 108 292 150T326 264Q326 325 298 355T232 390Q205 391 182 380T141
337H33L49 751H407V663H165L156 454Z" />
<glyph unicode="6" glyph-name="null" horiz-adv-x="461" d="M141 428Q181 470 255 472Q355 472 408 405T462 239Q462 136 403 71T228 3Q122 2 66 80T10 336Q10 481 36 566T110 697Q166 757 259 761T422 712V623Q367 663 332 669T279 676Q224 673 181 604Q150
551 141 428ZM138 299Q142 178 170 136Q201 86 234 86Q272 86 303 123T334 235Q334 317 308 351T249 386Q205 386 163 339Q150 324 138 299Z" />
<glyph unicode="7" glyph-name="null" horiz-adv-x="461" d="M310 661H148Q130 661 115 650T93 598Q87 565 50 566T13 603L14 746H451V689L224 11H98L310 661Z" />
<glyph unicode="8" glyph-name="null" horiz-adv-x="461" d="M22 564Q22 655 76 708T229 762Q329 762 384 707T439 560Q439 476 384 424Q373 413 359 405Q379 392 395 375Q455 312 455 222Q455 119 395 61T229 3Q126 3 66 61T6 222Q6 312 66 375Q82 393 102 405Q88
414 77 426Q22 480 22 564ZM133 222Q133 154 163 121T229 88Q265 88 296 121T328 222Q328 290 297 325T229 361Q194 361 164 326T133 222ZM147 564Q147 505 173 476T229 446Q260 446 286 473T313 560Q313 619 286 648T229 677Q200 677 174 650T147 564Z" />
<glyph unicode="9" glyph-name="null" horiz-adv-x="461" d="M322 337Q318 335 316 333Q275 296 210 296Q111 296 58 362T5 528Q5 630 61 696T227 763Q330 765 387 676T445 396Q445 281 417 193T338 61Q281 12 193 7T36 57V145Q86 109 121 103T177 97Q237 97 280
161Q314 213 322 337ZM322 453Q316 569 291 618Q259 678 220 680Q185 681 159 640T133 531Q133 449 161 416T218 382Q261 382 303 426Q313 437 322 453Z" />
<glyph unicode=":" glyph-name="null" horiz-adv-x="298" d="M229 536Q229 503 206 480T150 457Q116 457 93 480T70 536Q70 569 93 592T150 615Q183 615 206 592T229 536ZM229 163Q229 130 206 107T150 84Q116 84 93 107T70 163Q70 196 93 219T150 242Q183 242
206 219T229 163Z" />
<glyph unicode=";" glyph-name="null" horiz-adv-x="298" d="M229 536Q229 503 206 480T150 457Q116 457 93 480T70 536Q70 569 93 592T150 615Q183 615 206 592T229 536ZM69 161Q69 194 92 217T150 241Q182 241 206 218T234 165Q242 111 215 58T136 -23Q108 -39
91 -23T100 16Q115 27 125 44T138 79Q139 87 131 87Q111 88 90 109T69 161Z" />
<glyph unicode="&lt;" glyph-name="null" horiz-adv-x="528" d="M80 339V417L501 796V676L173 378L501 80V-40L80 339Z" />
<glyph unicode="=" glyph-name="null" horiz-adv-x="528" d="M31 345H498V256H31V345ZM31 546H498V457H31V546Z" />
<glyph unicode="&gt;" glyph-name="null" horiz-adv-x="528" d="M449 339L28 -40V80L353 378L28 676V796L449 417V339Z" />
<glyph unicode="?" glyph-name="null" horiz-adv-x="465" d="M283 61Q283 28 260 5T202 -19Q168 -19 145 4T121 61Q121 94 144 117T202 141Q236 141 259 118T283 61ZM150 304Q150 352 166 386T214 457L269 522Q290 548 303 569T317 635Q317 688 291 712T228 737Q201
737 178 713T154 635H29Q29 712 82 762T226 813Q327 813 381 762T436 630Q436 581 421 546T364 463Q293 390 279 373T257 341Q252 329 250 318T247 276V217Q247 203 233 192T197 181Q175 181 163 192T150 217V304Z" />
<glyph unicode="@" glyph-name="null" horiz-adv-x="911" d="M774 -17Q723 -74 644 -109T462 -145Q249 -145 149 -19T56 272Q68 478 188 623T490 768Q663 768 762 661T854 366Q851 250 791 154T642 20Q585 -4 540 12T487 56Q476 46 447 34T383 21Q307 21 269 70T232
194Q238 312 312 428T500 547Q541 547 570 531T606 507L612 526H679Q726 526 713 479L602 152Q588 107 602 105T642 116Q686 143 718 213T754 362Q763 524 685 603T503 682Q386 683 290 583T171 320Q147 139 233 38T463 -64Q534 -64 597 -40T708 30Q741 64 770
39T774 -17ZM342 201Q337 144 354 126T393 108Q423 108 453 138T509 234Q532 293 544 340T557 407Q557 436 539 449T499 461Q457 458 404 375T342 201Z" />
<glyph unicode="A" glyph-name="null" horiz-adv-x="546" d="M438 18L365 248H170L98 18H-23L171 621Q187 671 184 677T170 686Q148 692 138 699T128 725Q128 755 168 755H327L571 18H438ZM337 334L266 557L197 334H337Z" />
<glyph unicode="B" glyph-name="null" horiz-adv-x="562" d="M191 638V450H279Q330 450 360 475T391 562Q391 616 357 644T272 672H227Q191 672 191 638ZM191 136Q191 101 228 101H275Q338 101 380 132T423 225Q423 299 383 331T281 364H191V136ZM292 18H67V632Q67
663 62 673T47 686Q28 692 19 700T9 724Q9 755 43 755H283Q395 755 457 707T520 571Q520 509 489 466T429 414Q472 404 512 355T552 225Q552 133 488 76T292 18Z" />
<glyph unicode="C" glyph-name="null" horiz-adv-x="582" d="M560 65Q536 46 488 31T386 11Q212 0 111 112T9 400Q9 561 89 664T330 768Q433 768 502 713T572 583H437Q435 630 404 654T325 679Q254 679 198 608T141 417Q141 238 223 167T396 102Q428 105 452 113T497
130Q523 147 546 142T577 119Q583 105 578 90T560 65Z" />
<glyph unicode="D" glyph-name="null" horiz-adv-x="596" d="M67 632Q67 664 61 674T47 688Q29 692 20 699T11 724Q11 755 48 755H182Q224 755 275 752T360 743Q463 723 525 637T587 382Q587 266 557 197T475 87Q427 50 365 34T213 18H67V632ZM256 101Q340 101
399 168T458 382Q458 526 409 599T269 672H229Q193 672 193 636V136Q193 101 229 101H256Z" />
<glyph unicode="E" glyph-name="null" horiz-adv-x="532" d="M193 441H291Q338 441 356 453T374 498Q374 517 414 517T454 498V298Q454 281 414 281T374 298Q374 332 355 346T290 360H193V136Q193 101 231 101H352Q391 101 403 119T421 161Q427 194 468 190T509
157L502 18H67V632Q67 664 62 673T48 686Q31 692 21 699T11 724Q11 755 46 755H486L492 624Q492 592 450 591T406 623Q403 639 391 655T336 672H229Q193 672 193 636V441Z" />
<glyph unicode="F" glyph-name="null" horiz-adv-x="497" d="M193 445H290Q338 445 356 457T374 502Q374 521 414 521T454 502V302Q454 285 414 285T374 302Q374 336 355 350T289 364H193V18H67V632Q67 664 61 674T47 688Q32 692 22 699T11 724Q11 755 46 755H486L492
624Q492 592 453 591T406 621Q398 649 387 661T336 673H229Q193 673 193 634V445Z" />
<glyph unicode="G" glyph-name="null" horiz-adv-x="600" d="M570 376V73Q493 20 375 13T176 54Q102 99 56 183T8 393Q8 560 89 664T330 768Q433 768 502 713T572 583H439Q437 629 404 654T325 679Q256 679 198 612T139 409Q139 262 201 185T353 103Q372 103 397
105T444 114V262Q444 315 426 327T356 341Q326 341 326 376T349 412H532Q570 412 570 376Z" />
<glyph unicode="H" glyph-name="null" horiz-adv-x="608" d="M193 18H67V631Q67 662 62 672T49 685Q32 692 18 696T4 720Q4 754 46 754H152Q193 754 193 721V450H431V755H557V18H431V364H193V18Z" />
<glyph unicode="I" glyph-name="null" horiz-adv-x="246" d="M194 18H68V632Q68 664 64 673T48 686Q32 692 19 698T5 721Q5 755 47 755H153Q194 755 194 722V18Z" />
<glyph unicode="J" glyph-name="null" horiz-adv-x="409" d="M232 221V634Q232 664 228 673T213 685Q200 690 185 696T170 723Q170 755 212 755H317Q358 755 358 722V217Q358 111 306 62T163 12Q66 12 19 53T-28 174H99Q100 123 117 110T161 97Q189 97 210 123T232 221Z" />
<glyph unicode="K" glyph-name="null" horiz-adv-x="514" d="M195 18H69V631Q69 663 64 673T52 685Q36 691 21 697T6 720Q6 754 48 754H154Q195 754 195 721V484L398 754H477Q499 754 505 737T500 706L267 418L567 18H424L195 340V18Z" />
<glyph unicode="L" glyph-name="null" horiz-adv-x="478" d="M194 147Q194 108 231 108H345Q380 108 393 121T413 177Q418 209 459 206T501 173L494 18H68V631Q68 663 64 672T52 684Q33 689 19 696T5 722Q5 754 47 754H153Q194 754 194 722V147Z" />
<glyph unicode="M" glyph-name="null" horiz-adv-x="758" d="M228 755L380 209L541 754L710 755V18H592V526L447 65Q439 40 424 29T385 18H317L176 542V18H65V633Q65 664 61 673T48 686Q31 693 22 700T13 721Q13 755 56 755H228Z" />
<glyph unicode="N" glyph-name="null" horiz-adv-x="608" d="M206 755L439 254V755H557V65Q557 18 494 18H423L179 545V18H67V633Q67 664 64 673T52 686Q34 692 22 698T10 721Q10 755 52 755H206Z" />
<glyph unicode="O" glyph-name="null" horiz-adv-x="653" d="M9 390Q9 555 91 661T326 768Q478 768 561 662T644 390Q644 225 561 119T326 12Q174 12 92 118T9 390ZM139 390Q139 250 194 176T326 101Q403 101 458 175T514 390Q514 530 459 605T326 680Q249 680
194 605T139 390Z" />
<glyph unicode="P" glyph-name="null" horiz-adv-x="525" d="M49 686Q27 692 18 700T8 724Q8 755 38 755H279Q398 755 464 697T530 546Q530 440 459 384T256 328H221Q196 328 196 370T218 412H244Q319 412 360 445T401 547Q402 606 363 639T276 673H228Q187 673
187 634V18H67V632Q67 664 61 674T49 686Z" />
<glyph unicode="Q" glyph-name="null" horiz-adv-x="653" d="M412 22Q425 -1 453 -13Q494 -32 600 -14V-84Q559 -95 536 -97T484 -99Q390 -99 331 -65Q283 -39 254 19Q154 38 92 118Q9 225 9 390Q9 555 91 661T326 768Q478 768 561 662T644 390Q644 225 561 118Q504
44 412 22ZM139 390Q139 250 194 176T326 101Q403 101 458 175T514 390Q514 530 459 605T326 680Q249 680 194 605T139 390Z" />
<glyph unicode="R" glyph-name="null" horiz-adv-x="525" d="M278 673H228Q187 673 187 634V18H67V632Q67 664 61 674T50 685Q27 692 18 700T8 724Q8 755 38 755H279Q398 755 464 698T530 548Q530 448 468 391T336 332L538 18H391L201 342Q186 367 195 389T228
412H249Q319 412 360 446T401 549Q402 608 363 640T278 673Z" />
<glyph unicode="S" glyph-name="null" horiz-adv-x="461" d="M317 225Q314 267 282 299T179 370Q97 410 54 461T12 590Q14 666 72 717T228 768Q281 768 324 760T409 737V632Q352 662 308 672T232 682Q200 682 171 658T142 586Q142 544 177 512T291 437Q370 395
409 344T449 223Q449 138 389 77T210 10Q166 8 117 18T37 49Q17 61 11 78T11 115Q20 135 44 141T99 129Q120 119 152 111T207 103Q263 108 293 141T317 225Z" />
<glyph unicode="T" glyph-name="null" horiz-adv-x="520" d="M141 672Q97 672 84 646T69 592Q68 566 26 567T-17 599L-12 755H532L538 599Q538 568 495 567T450 598Q449 621 435 646T375 672H323V18H197V672H141Z" />
<glyph unicode="U" glyph-name="null" horiz-adv-x="611" d="M67 290V632Q67 662 62 672T50 684Q33 689 19 697T4 721Q4 754 46 754H152Q193 754 193 721V311Q193 203 223 153T315 102Q374 102 410 146T446 309V755H566V305Q566 146 500 79T315 12Q198 12 133 81T67 290Z" />
<glyph unicode="V" glyph-name="null" horiz-adv-x="568" d="M18 688Q4 693 -4 699T-12 724Q-12 755 31 755H138L311 219L479 755H549Q577 755 585 740T589 705L356 16H254L51 617Q38 656 32 670T18 688Z" />
<glyph unicode="W" glyph-name="null" horiz-adv-x="778" d="M665 16H546L421 543L293 16H165L52 618Q44 656 36 672T18 691Q6 695 -2 702T-11 726Q-11 755 31 755H156L242 245L357 755H487L602 247L684 755H763Q781 755 790 745T798 718L665 16Z" />
<glyph unicode="X" glyph-name="null" horiz-adv-x="497" d="M184 398L69 616Q49 655 37 670T17 688Q3 692 -6 699T-15 724Q-15 755 27 755H137L254 522L382 755H456Q480 755 488 738T488 704L319 408L527 18H387L249 278L113 18H-17L184 398Z" />
<glyph unicode="Y" glyph-name="null" horiz-adv-x="527" d="M281 481L441 755H511Q537 755 543 738T542 706L340 364V18H214V364L62 616Q39 655 31 669T14 689Q4 696 -4 701T-12 722Q-12 755 31 755H126L281 481Z" />
<glyph unicode="Z" glyph-name="null" horiz-adv-x="523" d="M6 81L344 671H176Q136 671 127 654T112 600Q106 570 63 570T20 603L26 755H493V692L147 102H342Q390 102 400 125T414 181Q416 212 461 212T506 179L502 18H6V81Z" />
<glyph unicode="[" glyph-name="null" horiz-adv-x="326" d="M185 6Q185 -53 234 -53H276Q302 -53 302 -92Q302 -130 272 -130H110Q76 -130 76 -100V799Q76 829 110 829H272Q302 829 302 791Q302 752 276 752H234Q185 752 185 694V6Z" />
<glyph unicode="\" glyph-name="null" horiz-adv-x="911" d="M694 19H584L501 356H422L338 19H218L156 356H29V443H139L112 590Q103 626 96 640T80 658Q67 662 57 669T47 694Q47 721 89 721H212L258 443H337L401 721H526L591 443H667L711 721H787Q802 721 812
712T821 685L775 443H889V356H759L694 19ZM479 443L462 514L444 443H479ZM272 356L291 245L316 356H272ZM611 356L636 248L653 356H611Z" />
<glyph unicode="]" glyph-name="null" horiz-adv-x="326" d="M140 6V694Q140 752 91 752H49Q24 752 24 791Q24 829 52 829H214Q250 829 250 799V-100Q250 -130 217 -130H66Q24 -128 24 -90Q24 -53 49 -53H91Q140 -53 140 6Z" />
<glyph unicode="^" glyph-name="null" horiz-adv-x="433" d="M171 779H264L413 512H302L218 668L131 512H18L171 779Z" />
<glyph unicode="_" glyph-name="null" horiz-adv-x="461" d="M-15 -16H477V-98H-15V-16Z" />
<glyph unicode="`" glyph-name="null" horiz-adv-x="281" d="M66 700Q50 725 58 746T80 778Q99 789 123 787T163 760L216 617Q226 584 196 570T145 584L66 700Z" />
<glyph unicode="a" glyph-name="null" horiz-adv-x="483" d="M328 53Q315 43 282 27T189 11Q118 11 72 52T26 159Q26 247 104 300T295 353H327V374Q327 420 301 446T239 473Q207 473 185 456T162 390H32Q32 469 89 512T242 555Q344 555 397 505T451 369V18H328V53ZM327
268Q246 270 198 243T150 169Q150 129 169 115T212 100Q254 100 290 131T327 206V268Z" />
<glyph unicode="b" glyph-name="null" d="M374 277Q374 369 343 418T267 468Q230 468 202 432T174 332V237Q174 156 203 125T268 93Q307 93 340 140T374 277ZM173 519Q216 555 283 555Q389 555 444 480T499 280Q499 165 441 88T274 11Q199 11 157 52Q133 18 74
18H50V655Q50 685 45 696T32 710Q15 716 7 721T-1 744Q-1 778 41 778H130Q173 778 173 745V519Z" />
<glyph unicode="c" glyph-name="null" horiz-adv-x="483" d="M437 49Q413 31 369 20T262 11Q157 17 85 92T13 300Q13 416 78 485T257 555Q349 555 404 511T464 391H337Q337 435 314 454T252 473Q212 473 177 429T142 300Q142 208 184 153T290 93Q312 91 337 94T387
110Q413 123 429 119T454 101Q459 87 455 73T437 49Z" />
<glyph unicode="d" glyph-name="null" d="M138 277Q138 187 171 141T240 94Q280 94 309 136T338 267V331Q338 398 309 433T236 468Q200 468 169 422T138 277ZM339 49Q298 11 236 11Q125 11 69 88T13 280Q13 404 69 479T227 555Q296 555 339 524V655Q339 685 334
696T323 710Q306 714 297 720T287 746Q287 778 330 778H419Q462 778 462 745V18H339V49Z" />
<glyph unicode="e" glyph-name="null" horiz-adv-x="483" d="M142 257Q146 197 186 148T290 93Q312 91 337 94T386 110Q416 124 431 119T455 97Q459 84 455 70T436 46Q409 30 364 19T262 11Q157 18 85 93T13 300Q13 418 78 486T255 555Q351 555 411 492T471 300V257H142ZM142
341H346Q346 408 317 440T252 473Q212 473 179 436T142 341Z" />
<glyph unicode="f" glyph-name="null" horiz-adv-x="344" d="M76 461H-8V542H76V645Q76 708 115 746T230 785Q310 785 349 746T388 640H265Q264 677 256 692T230 708Q216 707 208 692T200 635V542H335V461H200V18H76V461Z" />
<glyph unicode="g" glyph-name="null" d="M137 278Q137 199 169 159T238 118Q281 118 310 153T339 267V331Q339 398 309 433T236 468Q198 468 168 424T137 278ZM340 68Q299 35 236 35Q127 35 70 108T13 280Q13 404 70 479T227 555Q300 555 343 515Q354 542 395
542H469Q513 542 513 510Q513 493 497 487T469 478Q468 477 466 471T463 425V49Q463 -43 409 -98T240 -153Q130 -153 84 -112T35 6H159Q161 -37 182 -55T245 -73Q284 -73 312 -44T340 49V68Z" />
<glyph unicode="h" glyph-name="null" d="M174 18H50V655Q50 685 45 695T33 709Q17 715 8 721T-1 744Q-1 778 41 778H131Q174 778 174 745V487Q185 499 200 510Q250 550 312 550Q384 550 428 501T473 336V18H349V338Q349 408 331 431T289 455Q247 455 200 397Q185
378 174 351V18Z" />
<glyph unicode="i" glyph-name="null" horiz-adv-x="230" d="M183 18H58V419Q58 450 53 461T42 475Q24 480 15 487T6 508Q6 542 49 542H140Q183 542 183 506V18ZM187 697Q187 665 165 643T110 620Q78 620 56 642T34 697Q34 729 56 752T110 776Q142 776 164 753T187 697Z" />
<glyph unicode="j" glyph-name="null" horiz-adv-x="263" d="M217 39Q217 -67 175 -110T51 -153Q-33 -153 -72 -114T-112 -1H14Q14 -53 26 -65T51 -77Q70 -77 81 -56T92 39V421Q92 451 89 461T79 473Q60 479 50 485T40 510Q40 542 83 542H174Q217 542 217 508V39ZM224
697Q224 665 202 643T146 620Q115 620 93 642T71 697Q71 729 93 752T146 776Q179 776 201 753T224 697Z" />
<glyph unicode="k" glyph-name="null" horiz-adv-x="456" d="M174 18H50V655Q50 686 46 696T34 710Q20 714 8 720T-4 746Q-4 778 38 778H131Q174 778 174 745V378L333 542H476L247 318L495 18H351L174 240V18Z" />
<glyph unicode="l" glyph-name="null" horiz-adv-x="230" d="M183 18H58V655Q58 686 54 696T41 710Q25 716 16 722T6 747Q6 778 49 778H140Q183 778 183 745V18Z" />
<glyph unicode="m" glyph-name="null" horiz-adv-x="731" d="M173 18H50V419Q50 450 45 461T34 475Q15 479 7 486T-1 510Q-1 542 41 542H130Q173 542 173 506V498Q177 502 181 507Q220 548 287 550Q361 550 397 500Q406 488 413 472Q422 488 435 502Q479 550 545
550Q621 550 656 500T692 340V18H569V337Q569 406 557 432T522 458Q493 458 454 403Q440 385 433 362V18H310V337Q310 407 298 432T265 458Q236 457 195 403Q181 386 173 363V18Z" />
<glyph unicode="n" glyph-name="null" d="M173 18H51V419Q51 451 48 460T36 473Q18 480 7 486T-4 510Q-4 542 38 542H130Q173 542 173 506V488Q184 500 199 511Q246 550 312 550Q384 550 428 501T473 336V18H349V338Q349 408 331 431T291 455Q246 454 202 398Q185
376 173 348V18Z" />
<glyph unicode="o" glyph-name="null" d="M11 282Q11 402 73 478T255 555Q375 555 438 479T501 282Q501 163 438 87T255 11Q136 11 74 87T11 282ZM142 282Q142 184 177 139T255 93Q299 93 334 138T370 282Q370 381 335 427T255 473Q212 473 177 427T142 282Z" />
<glyph unicode="p" glyph-name="null" d="M50 419Q50 450 45 460T33 475Q17 480 8 487T-1 509Q-1 542 41 542H130Q168 542 172 517Q215 555 283 555Q389 555 444 480T499 280Q499 165 441 88T274 11Q212 11 173 40V-153H50V419ZM374 277Q374 369 343 418T267 468Q230
468 202 432T174 332V237Q174 159 201 126T268 93Q306 93 340 140T374 277Z" />
<glyph unicode="q" glyph-name="null" d="M138 277Q138 179 170 139T237 98Q273 99 304 138T335 259V332Q335 395 307 431T237 468Q196 468 167 423T138 277ZM338 53Q297 11 229 11Q120 11 67 88T13 280Q13 404 69 479T229 555Q305 555 348 511Q351 519 356 527Q376
555 407 555H462V-153H338V53Z" />
<glyph unicode="r" glyph-name="null" horiz-adv-x="361" d="M61 419Q61 451 57 461T45 475Q29 479 19 486T8 510Q8 542 51 542H139Q183 542 183 506V498Q190 505 198 511Q243 550 316 550H367V438Q271 459 213 415Q196 403 183 381V18H61V419Z" />
<glyph unicode="s" glyph-name="null" horiz-adv-x="418" d="M184 253Q111 278 67 316T22 410Q22 477 70 517T212 561Q253 563 293 555T373 527V406Q315 456 280 467T216 478Q183 478 164 464T142 421Q141 396 170 376T254 334Q335 304 370 266T406 177Q406 100
351 56T195 11Q146 11 104 24T40 57Q18 76 17 91T23 118Q38 139 61 140T104 124Q122 111 148 103T195 94Q244 96 266 120T283 179Q281 196 261 215T184 253Z" />
<glyph unicode="t" glyph-name="null" horiz-adv-x="326" d="M189 745V542H324V461H190V151Q190 115 202 104T241 93Q255 93 268 93T333 107V23Q299 12 268 10T219 8Q168 8 135 19T88 53Q72 73 70 103T67 167V461H-5V542H67V619L189 745Z" />
<glyph unicode="u" glyph-name="null" d="M471 18H347V69L337 59Q288 11 211 11Q142 11 96 59T50 216V420Q50 451 46 461T36 473Q20 479 10 485T-1 510Q-1 542 41 542H131Q174 542 174 509V222Q174 152 192 129T236 105Q284 105 324 153Q337 169 347 195V419Q347
451 343 461T328 476Q313 480 304 487T295 508Q295 542 338 542H428Q471 542 471 506V18Z" />
<glyph unicode="v" glyph-name="null" horiz-adv-x="466" d="M256 211L369 542H431Q465 542 472 525T475 491L297 15H211L34 446Q27 462 25 470T13 482Q2 485 -5 491T-13 515Q-13 542 30 542H130L256 211Z" />
<glyph unicode="w" glyph-name="null" horiz-adv-x="636" d="M515 15H417L323 327L238 15H140L28 446Q23 461 20 470T10 483Q1 488 -7 494T-15 513Q-15 542 26 542H126L194 238L269 537H382L464 236L538 542H605Q625 542 634 531T642 501L515 15Z" />
<glyph unicode="x" glyph-name="null" horiz-adv-x="442" d="M434 496L294 294L475 18H340L224 193L102 18H-19L161 289L69 429Q58 445 46 462T29 481Q11 490 5 495T-1 517Q-1 542 43 542H132L230 393L330 542H407Q429 542 435 526T434 496Z" />
<glyph unicode="y" glyph-name="null" horiz-adv-x="436" d="M81 -149Q26 -140 -3 -102T-32 11H87Q87 -22 89 -35T96 -55Q103 -65 112 -66T125 -67Q136 -66 146 -49T168 5L186 61L53 404Q43 436 34 457T17 481Q3 485 -5 492T-14 513Q-14 542 29 542H135L246 237L348
542H420Q443 542 451 527T456 495L276 -19Q244 -112 194 -136T81 -149Z" />
<glyph unicode="z" glyph-name="null" horiz-adv-x="446" d="M354 141Q357 152 364 164T395 176Q421 176 430 165T439 138L432 19H8V79L279 463H161Q133 463 121 456T100 426Q97 417 90 405T51 393Q34 393 27 403T19 429L24 543H425V483L153 100H273Q313 100 330
110T354 141Z" />
<glyph unicode="{" glyph-name="null" horiz-adv-x="416" d="M82 374Q135 385 158 407T182 480Q182 507 165 585T174 714Q201 761 245 790T350 825Q379 826 385 798T356 758Q332 751 310 733T280 679Q268 640 277 585T287 503Q287 445 266 406T214 350Q245 333
266 294T287 196Q287 168 278 114T280 20Q288 -15 310 -34T356 -59Q391 -71 385 -99T350 -126Q289 -120 245 -92T174 -15Q148 35 165 112T182 217Q182 270 159 292T82 325V374Z" />
<glyph unicode="|" glyph-name="null" horiz-adv-x="310" d="M106 816H204V-116H106V816Z" />
<glyph unicode="}" glyph-name="null" horiz-adv-x="416" d="M334 325Q281 314 257 292T233 217Q233 190 250 113T239 -15Q215 -64 171 -92T65 -126Q37 -127 31 -99T57 -59Q83 -54 104 -35T136 20Q147 59 138 113T129 196Q129 254 150 293T202 350Q171 366 150
405T129 503Q129 529 138 584T136 679Q126 714 105 732T57 758Q25 770 31 798T65 825Q127 820 171 791T239 714Q267 664 250 586T233 480Q233 429 257 407T334 374V325Z" />
<glyph unicode="~" glyph-name="null" horiz-adv-x="545" d="M512 512Q512 399 474 348T371 296Q335 296 305 310T242 365Q213 401 200 409T178 417Q161 417 148 395T133 295H34Q34 409 74 460T176 512Q213 512 242 497T304 444Q327 414 341 403T367 392Q386 392
399 414T412 512H512Z" />
</font>
</defs>
</svg>
