<svg width="20" height="19" viewBox="0 0 20 19" fill="none" xmlns="http://www.w3.org/2000/svg">
<path d="M14.5 0.472656C12.76 0.472656 11.09 1.28266 10 2.56266C8.91 1.28266 7.24 0.472656 5.5 0.472656C2.42 0.472656 0 2.89266 0 5.97266C0 9.75266 3.4 12.8327 8.55 17.5127L10 18.8227L11.45 17.5027C16.6 12.8327 20 9.75266 20 5.97266C20 2.89266 17.58 0.472656 14.5 0.472656ZM10.1 16.0227L10 16.1227L9.9 16.0227C5.14 11.7127 2 8.86266 2 5.97266C2 3.97266 3.5 2.47266 5.5 2.47266C7.04 2.47266 8.54 3.46266 9.07 4.83266H10.94C11.46 3.46266 12.96 2.47266 14.5 2.47266C16.5 2.47266 18 3.97266 18 5.97266C18 8.86266 14.86 11.7127 10.1 16.0227Z" fill="#484848"/>
</svg>
