<svg width="181" height="35" viewBox="0 0 181 35" fill="none" xmlns="http://www.w3.org/2000/svg">
<path d="M21.5297 4.75921C20.7606 3.63905 18.2269 1.92247 15.5787 2.00272C12.2684 2.10303 11.2652 3.22029 10.7159 3.65976C9.71278 4.46226 9.12763 5.69945 8.96044 6.21773C7.75669 6.2846 4.95805 7.322 3.83455 9.56901C3.16902 10.9001 2.88954 12.0927 2.77227 13.0215C2.64708 14.0132 2.7629 15.0318 3.13872 15.958C3.45751 16.7436 3.97165 17.6383 4.88963 18.5142C6.45333 20.0062 9.35039 20.7128 10.1823 20.5802C10.2336 20.572 10.2865 20.5864 10.3226 20.6237C10.7067 21.0208 11.3964 21.586 12.2206 21.9708L13.5912 24.7467C13.6006 24.7657 13.6054 24.7866 13.6054 24.8078V29.8241C13.6054 30.0275 13.7704 30.1924 13.9738 30.1924H20.4391C20.6426 30.1924 20.8075 30.0275 20.8075 29.8241V24.8069C20.8075 24.7863 20.8121 24.7659 20.821 24.7473L21.9597 22.3681C25.3769 21.8547 26.591 19.4014 26.7709 18.239C28.7893 17.5509 32.8525 14.1604 30.9265 8.82375C29.0005 3.48713 23.8369 3.67249 21.5297 4.75921Z" fill="#CEFE8F"/>
<path d="M21.5297 4.75921C20.7606 3.63905 18.2269 1.92247 15.5787 2.00272C12.2684 2.10303 11.2652 3.22029 10.7159 3.65976C9.71278 4.46226 9.12763 5.69945 8.96044 6.21773M21.5297 4.75921C23.8369 3.67249 29.0005 3.48713 30.9265 8.82375C32.8525 14.1604 28.7893 17.5509 26.7709 18.239M21.5297 4.75921C20.9719 4.89831 19.6795 5.54123 18.9726 7.00013M8.96044 6.21773C7.75669 6.2846 4.95805 7.322 3.83455 9.56901C3.16902 10.9001 2.88954 12.0927 2.77227 13.0215C2.64708 14.0132 2.7629 15.0318 3.13872 15.958C3.45751 16.7436 3.97165 17.6383 4.88963 18.5142C6.45333 20.0062 9.35039 20.7128 10.1823 20.5802C10.2336 20.572 10.2865 20.5864 10.3226 20.6237C10.7067 21.0208 11.3964 21.586 12.2206 21.9708M8.96044 6.21773C8.81886 6.84927 8.60532 7.77997 8.96044 8.82375M14.3773 22.3681C16.534 22.0671 17.7378 21.3649 18.0889 21.1643C18.2743 21.0584 18.8235 21.7358 19.9359 22.1254M14.3773 22.3681C13.6308 22.4722 12.8823 22.2797 12.2206 21.9708M14.3773 22.3681L15.5787 24.3201M26.7709 18.239C26.2122 18.4806 24.2112 18.2298 21.6791 17.5509M26.7709 18.239C26.591 19.4014 25.3769 21.8547 21.9597 22.3681M21.9597 22.3681L20.821 24.7473C20.8121 24.7659 20.8075 24.7863 20.8075 24.8069V29.8241C20.8075 30.0275 20.6426 30.1924 20.4391 30.1924H13.9738C13.7704 30.1924 13.6054 30.0275 13.6054 29.8241V24.8078C13.6054 24.7866 13.6006 24.7657 13.5912 24.7467L12.2206 21.9708M21.9597 22.3681C21.1393 22.4341 20.4721 22.3132 19.9359 22.1254M5.71534 15.349C6.15002 16.8369 6.78196 18.239 9.84388 18.239M19.9359 22.1254L17.6881 26.2667" stroke="#CEFE8F" stroke-width="0.230203" stroke-linecap="round"/>
<path d="M6.78965 12.4017C6.78965 12.763 7.0825 13.0558 7.44374 13.0558C7.80498 13.0558 8.09783 12.763 8.09783 12.4017C8.09783 12.0405 7.80498 11.7476 7.44374 11.7476C7.0825 11.7476 6.78965 12.0405 6.78965 12.4017Z" fill="#CEFE8F" stroke="#CEFE8F" stroke-width="0.0460407"/>
<path d="M7.24106 14.4319C7.24106 14.6685 7.43285 14.8603 7.66944 14.8603C7.90603 14.8603 8.09783 14.6685 8.09783 14.4319C8.09783 14.1953 7.90603 14.0035 7.66944 14.0035C7.43285 14.0035 7.24106 14.1953 7.24106 14.4319Z" fill="#CEFE8F" stroke="#CEFE8F" stroke-width="0.0460407"/>
<path d="M5.33505 13.5295C5.33505 13.7661 5.52685 13.9579 5.76344 13.9579C6.00003 13.9579 6.19182 13.7661 6.19182 13.5295C6.19182 13.2929 6.00003 13.1011 5.76344 13.1011C5.52685 13.1011 5.33505 13.2929 5.33505 13.5295Z" fill="#CEFE8F" stroke="#CEFE8F" stroke-width="0.0460407"/>
<path d="M19.7239 4.75273C18.9578 3.6352 16.4338 1.92265 13.7957 2.00271C10.4981 2.10279 9.4988 3.21743 8.95157 3.65586C7.9523 4.45647 7.36938 5.69076 7.20284 6.20782M19.7239 4.75273C22.0222 3.66856 27.166 3.48364 29.0847 8.80772C31.0033 14.1318 26.9687 16.6618 24.6953 17.6377M19.7239 4.75273C19.1682 4.8915 17.8808 5.53292 17.1766 6.98839M7.20284 6.20782C6.0037 6.27454 3.2158 7.3095 2.09661 9.55123C1.46427 10.8178 1.19637 11.8565 1.08296 12.6742C0.945846 13.6628 1.08086 14.6757 1.39827 15.622C1.69953 16.5201 2.19814 17.5681 3.14764 18.4754C4.7051 19.9636 7.59036 20.6686 8.4196 20.5366C8.471 20.5284 8.5239 20.5428 8.56006 20.5803C8.94271 20.9764 9.62964 21.5401 10.4505 21.9239M7.20284 6.20782C7.06181 6.83788 6.84908 7.76639 7.20284 8.80772M12.5989 22.3202C14.7474 22.02 15.9465 21.3194 16.2963 21.1193C16.481 21.0136 17.028 21.6895 18.1362 22.0781M12.5989 22.3202C11.8552 22.4241 11.1097 22.232 10.4505 21.9239M12.5989 22.3202L13.2923 23.8757M24.6953 17.6377C24.1388 17.8788 22.3951 18.1917 19.8727 17.5143M24.6953 17.6377C24.607 18.9089 23.5747 21.625 20.1522 22.3202M20.1522 22.3202L19.0179 24.6938C19.009 24.7124 19.0044 24.7328 19.0044 24.7534V29.7579C19.0044 29.9613 18.8395 30.1262 18.6361 30.1262H12.1984C11.9949 30.1262 11.83 29.9613 11.83 29.7579V24.7543C11.83 24.7331 11.8252 24.7122 11.8158 24.6932L10.4505 21.9239M20.1522 22.3202C19.335 22.3861 18.6704 22.2655 18.1362 22.0781M3.97018 15.3176C4.4032 16.8021 5.03272 18.2008 8.08289 18.2008M18.1362 22.0781L17.1766 24.7221" stroke="black" stroke-opacity="0.91" stroke-width="0.7" stroke-linecap="round"/>
<ellipse cx="0.832306" cy="0.832306" rx="0.832306" ry="0.832306" transform="matrix(-1 0 0 1 7.64282 12.543)" fill="black" fill-opacity="0.91"/>
<path d="M6.32821 13.3753C6.32821 13.6416 6.54415 13.8576 6.81052 13.8576C7.07689 13.8576 7.29282 13.6416 7.29282 13.3753C7.29282 13.1089 7.07689 12.893 6.81052 12.893C6.54415 12.893 6.32821 13.1089 6.32821 13.3753Z" stroke="black" stroke-opacity="0.91" stroke-width="0.7"/>
<mask id="path-9-inside-1_2621_8830" fill="white">
<ellipse cx="0.554871" cy="0.554871" rx="0.554871" ry="0.554871" transform="matrix(-1 0 0 1 7.9502 14.7031)"/>
</mask>
<ellipse cx="0.554871" cy="0.554871" rx="0.554871" ry="0.554871" transform="matrix(-1 0 0 1 7.9502 14.7031)" fill="black" fill-opacity="0.91"/>
<path d="M7.54045 15.258C7.54045 15.1778 7.47548 15.1129 7.39532 15.1129V16.5129C6.70228 16.5129 6.14045 15.951 6.14045 15.258H7.54045ZM7.39532 15.1129C7.31517 15.1129 7.2502 15.1778 7.2502 15.258H8.6502C8.6502 15.951 8.08837 16.5129 7.39532 16.5129V15.1129ZM7.2502 15.258C7.2502 15.3381 7.31517 15.4031 7.39532 15.4031V14.0031C8.08837 14.0031 8.6502 14.565 8.6502 15.258H7.2502ZM7.39532 15.4031C7.47548 15.4031 7.54045 15.3381 7.54045 15.258H6.14045C6.14045 14.565 6.70228 14.0031 7.39532 14.0031V15.4031Z" fill="black" fill-opacity="0.91" mask="url(#path-9-inside-1_2621_8830)"/>
<mask id="path-11-inside-2_2621_8830" fill="white">
<ellipse cx="0.554871" cy="0.554871" rx="0.554871" ry="0.554871" transform="matrix(-1 0 0 1 5.60767 13.5938)"/>
</mask>
<ellipse cx="0.554871" cy="0.554871" rx="0.554871" ry="0.554871" transform="matrix(-1 0 0 1 5.60767 13.5938)" fill="black" fill-opacity="0.91"/>
<path d="M5.19792 14.1486C5.19792 14.0685 5.13295 14.0035 5.0528 14.0035V15.4035C4.35975 15.4035 3.79792 14.8417 3.79792 14.1486H5.19792ZM5.0528 14.0035C4.97264 14.0035 4.90767 14.0685 4.90767 14.1486H6.30767C6.30767 14.8417 5.74584 15.4035 5.0528 15.4035V14.0035ZM4.90767 14.1486C4.90767 14.2288 4.97264 14.2937 5.0528 14.2937V12.8938C5.74584 12.8938 6.30767 13.4556 6.30767 14.1486H4.90767ZM5.0528 14.2937C5.13295 14.2937 5.19792 14.2288 5.19792 14.1486H3.79792C3.79792 13.4556 4.35975 12.8938 5.0528 12.8938V14.2937Z" fill="black" fill-opacity="0.91" mask="url(#path-11-inside-2_2621_8830)"/>
<path d="M46.5752 29.0977H43.7715V9.56836C43.7715 8.92383 43.6963 8.46191 43.5459 8.18262C43.3955 7.88184 43.1484 7.69922 42.8047 7.63477C42.418 7.54883 42.0957 7.46289 41.8379 7.37695C41.6016 7.26953 41.4834 7.06543 41.4834 6.76465C41.4834 6.27051 41.7842 6.02344 42.3857 6.02344H45.5117C46.2207 6.02344 46.5752 6.36719 46.5752 7.05469V15.8203H55.5342V5.99121H58.3379V29.0977H55.5342V17.9473H46.5752V29.0977ZM76.4763 29.0977L74.0915 21.6855H66.7439L64.3913 29.0977H61.7165L67.904 10.0195C68.2478 8.90234 68.3659 8.25781 68.2585 8.08594C68.1511 7.89258 67.8611 7.74219 67.3884 7.63477C67.0232 7.54883 66.7331 7.45215 66.5183 7.34473C66.3249 7.2373 66.2282 7.0332 66.2282 6.73242C66.2282 6.23828 66.529 5.99121 67.1306 5.99121H71.739L79.4734 29.0977H76.4763ZM73.3825 19.5586L70.3532 10.084L67.3884 19.5586H73.3825ZM97.0265 15.6592C97.4132 15.4873 97.8322 15.1436 98.2834 14.6279C98.9279 13.9619 99.6261 12.748 100.378 10.9863C101.237 9.0957 102 7.83887 102.666 7.21582C103.332 6.59277 104.138 6.28125 105.083 6.28125C106.458 6.28125 107.468 6.73242 108.112 7.63477C108.778 8.53711 109.111 9.66504 109.111 11.0186H105.921C105.921 10.3955 105.824 9.93359 105.631 9.63281C105.438 9.33203 105.191 9.18164 104.89 9.18164C104.589 9.18164 104.299 9.41797 104.02 9.89062C103.74 10.3418 103.289 11.2227 102.666 12.5332C102.258 13.4141 101.785 14.2627 101.248 15.0791C100.711 15.874 100.174 16.4326 99.6369 16.7549L108.854 29.0977H105.244L97.0265 17.915V29.0977H94.2228V9.53613C94.2228 8.8916 94.1476 8.42969 93.9972 8.15039C93.8468 7.84961 93.5998 7.66699 93.256 7.60254C92.8693 7.5166 92.547 7.41992 92.2892 7.3125C92.0529 7.20508 91.9347 7.01172 91.9347 6.73242C91.9347 6.23828 92.2355 5.99121 92.8371 5.99121H95.963C96.672 5.99121 97.0265 6.33496 97.0265 7.02246V15.6592ZM113.199 29.0332C112.189 28.8398 111.394 28.3564 110.814 27.583C110.234 26.8096 109.944 25.7783 109.944 24.4893H112.619C112.619 24.9619 112.651 25.3594 112.716 25.6816C112.802 25.9824 112.888 26.1973 112.974 26.3262C113.102 26.5195 113.307 26.6914 113.586 26.8418C113.887 26.9922 114.198 27.0352 114.52 26.9707C114.95 26.9062 115.305 26.6592 115.584 26.2295C115.863 25.7998 116.132 25.1982 116.39 24.4248L117.227 21.75L112.716 10.0195C112.479 9.33203 112.243 8.74121 112.007 8.24707C111.77 7.75293 111.502 7.46289 111.201 7.37695C110.943 7.3125 110.718 7.2373 110.524 7.15137C110.331 7.06543 110.234 6.89355 110.234 6.63574C110.234 6.20605 110.524 5.99121 111.104 5.99121H114.166L118.484 17.7539L122.158 5.99121H123.673C123.995 5.99121 124.221 6.09863 124.349 6.31348C124.478 6.52832 124.489 6.78613 124.382 7.08691L118.613 25.0049C117.926 26.96 117.12 28.1738 116.196 28.6465C115.272 29.0977 114.273 29.2266 113.199 29.0332ZM133.11 17.1738L129.404 10.0518C128.996 9.19238 128.63 8.59082 128.308 8.24707C127.986 7.88184 127.664 7.65625 127.341 7.57031C127.062 7.50586 126.837 7.41992 126.665 7.3125C126.493 7.20508 126.407 7.00098 126.407 6.7002C126.407 6.22754 126.697 5.99121 127.277 5.99121H130.467L134.754 14.5635L139.362 5.99121H141.005C141.349 5.99121 141.586 6.12012 141.714 6.37793C141.865 6.63574 141.843 6.91504 141.65 7.21582L136.236 16.8193L142.778 29.0977H139.523L134.592 19.623L129.662 29.0977H126.697L133.11 17.1738ZM149.283 29.0977H146.479V9.56836C146.479 8.92383 146.404 8.46191 146.253 8.18262C146.103 7.88184 145.856 7.69922 145.512 7.63477C145.125 7.54883 144.803 7.46289 144.545 7.37695C144.309 7.26953 144.191 7.06543 144.191 6.76465C144.191 6.27051 144.492 6.02344 145.093 6.02344H148.219C148.928 6.02344 149.283 6.36719 149.283 7.05469V15.8203H158.242V5.99121H161.045V29.0977H158.242V17.9473H149.283V29.0977ZM170.031 16.1426H174.189C175.155 16.1426 175.864 15.9707 176.315 15.627C176.767 15.2832 176.992 14.7783 176.992 14.1123C176.992 13.79 177.229 13.6289 177.701 13.6289C178.195 13.6289 178.442 13.79 178.442 14.1123V20.1709C178.442 20.5146 178.195 20.6865 177.701 20.6865C177.229 20.6865 176.992 20.5146 176.992 20.1709C176.992 19.5264 176.756 19.0215 176.283 18.6562C175.832 18.2695 175.134 18.0762 174.189 18.0762H170.031V25.875C170.031 26.6699 170.515 27.0674 171.481 27.0674H176.122C177.089 27.0674 177.723 26.8203 178.023 26.3262C178.324 25.8105 178.518 25.2949 178.604 24.7793C178.689 24.3066 178.98 24.0918 179.474 24.1348C179.968 24.1777 180.215 24.4141 180.215 24.8438L179.989 29.0977H167.228V9.53613C167.228 8.87012 167.142 8.39746 166.97 8.11816C166.819 7.83887 166.583 7.66699 166.261 7.60254C165.874 7.49512 165.595 7.3877 165.423 7.28027C165.272 7.15137 165.197 6.95801 165.197 6.7002C165.197 6.22754 165.477 5.99121 166.035 5.99121H179.506L179.667 9.95508C179.667 10.4277 179.409 10.6748 178.894 10.6963C178.399 10.6963 178.142 10.4492 178.12 9.95508C178.099 9.56836 177.916 9.14941 177.572 8.69824C177.25 8.24707 176.573 8.02148 175.542 8.02148H171.481C170.515 8.02148 170.031 8.41895 170.031 9.21387V16.1426Z" fill="black" fill-opacity="0.91"/>
</svg>
