<svg width="125" height="125" viewBox="0 0 125 125" fill="none" xmlns="http://www.w3.org/2000/svg">
<circle cx="62.5" cy="62.5" r="62.5" fill="#6E479F"/>
<path d="M78.892 62.3636C78.892 66.5057 78.1442 70.0852 76.6484 73.1023C75.1527 76.1193 73.1009 78.446 70.4929 80.0824C67.8849 81.7188 64.9063 82.5369 61.5568 82.5369C58.2074 82.5369 55.2287 81.7188 52.6207 80.0824C50.0128 78.446 47.9609 76.1193 46.4652 73.1023C44.9695 70.0852 44.2216 66.5057 44.2216 62.3636C44.2216 58.2216 44.9695 54.642 46.4652 51.625C47.9609 48.608 50.0128 46.2812 52.6207 44.6449C55.2287 43.0085 58.2074 42.1903 61.5568 42.1903C64.9063 42.1903 67.8849 43.0085 70.4929 44.6449C73.1009 46.2812 75.1527 48.608 76.6484 51.625C78.1442 54.642 78.892 58.2216 78.892 62.3636ZM74.2898 62.3636C74.2898 58.9631 73.7209 56.093 72.5831 53.7536C71.4581 51.4141 69.9304 49.6435 68 48.4418C66.0824 47.2401 63.9347 46.6392 61.5568 46.6392C59.179 46.6392 57.0249 47.2401 55.0945 48.4418C53.1768 49.6435 51.6491 51.4141 50.5114 53.7536C49.3864 56.093 48.8239 58.9631 48.8239 62.3636C48.8239 65.7642 49.3864 68.6342 50.5114 70.9737C51.6491 73.3132 53.1768 75.0838 55.0945 76.2855C57.0249 77.4872 59.179 78.0881 61.5568 78.0881C63.9347 78.0881 66.0824 77.4872 68 76.2855C69.9304 75.0838 71.4581 73.3132 72.5831 70.9737C73.7209 68.6342 74.2898 65.7642 74.2898 62.3636Z" fill="white"/>
<circle cx="105" cy="105" r="20" fill="white"/>
<path d="M102.057 97.625L99.807 99.875H95.5V113.375H113.5V99.875H109.193L106.943 97.625H102.057ZM101.125 95.375H107.875L110.125 97.625H114.625C115.246 97.625 115.75 98.1287 115.75 98.75V114.5C115.75 115.121 115.246 115.625 114.625 115.625H94.375C93.7537 115.625 93.25 115.121 93.25 114.5V98.75C93.25 98.1287 93.7537 97.625 94.375 97.625H98.875L101.125 95.375ZM104.5 112.25C101.083 112.25 98.3125 109.48 98.3125 106.062C98.3125 102.645 101.083 99.875 104.5 99.875C107.917 99.875 110.688 102.645 110.688 106.062C110.688 109.48 107.917 112.25 104.5 112.25ZM104.5 110C106.675 110 108.438 108.237 108.438 106.062C108.438 103.888 106.675 102.125 104.5 102.125C102.325 102.125 100.562 103.888 100.562 106.062C100.562 108.237 102.325 110 104.5 110Z" fill="#363636"/>
</svg>
