<svg width="358" height="354" viewBox="0 0 358 354" fill="none" xmlns="http://www.w3.org/2000/svg">
<path d="M17.3628 297.846H358.286" stroke="#263238" stroke-linecap="round" stroke-linejoin="round"/>
<path d="M17.3628 305.662H358.286" stroke="#263238" stroke-linecap="round" stroke-linejoin="round"/>
<path d="M41.6739 166.828H22.1229C20.2445 166.828 18.7217 168.351 18.7217 170.229V189.78C18.7217 191.659 20.2445 193.182 22.1229 193.182H41.6739C43.5524 193.182 45.0752 191.659 45.0752 189.78V170.229C45.0752 168.351 43.5524 166.828 41.6739 166.828Z" stroke="#263238" stroke-linecap="round" stroke-linejoin="round"/>
<path d="M70.2594 166.828H50.7084C48.8299 166.828 47.3071 168.351 47.3071 170.229V189.78C47.3071 191.659 48.8299 193.182 50.7084 193.182H70.2594C72.1378 193.182 73.6606 191.659 73.6606 189.78V170.229C73.6606 168.351 72.1378 166.828 70.2594 166.828Z" stroke="#263238" stroke-linecap="round" stroke-linejoin="round"/>
<path d="M98.8443 166.828H79.2933C77.4149 166.828 75.8921 168.351 75.8921 170.229V189.78C75.8921 191.659 77.4149 193.182 79.2933 193.182H98.8443C100.723 193.182 102.246 191.659 102.246 189.78V170.229C102.246 168.351 100.723 166.828 98.8443 166.828Z" stroke="#263238" stroke-linecap="round" stroke-linejoin="round"/>
<path d="M127.421 166.828H107.87C105.992 166.828 104.469 168.351 104.469 170.229V189.78C104.469 191.659 105.992 193.182 107.87 193.182H127.421C129.3 193.182 130.823 191.659 130.823 189.78V170.229C130.823 168.351 129.3 166.828 127.421 166.828Z" stroke="#263238" stroke-linecap="round" stroke-linejoin="round"/>
<path d="M156.007 166.828H136.456C134.577 166.828 133.055 168.351 133.055 170.229V189.78C133.055 191.659 134.577 193.182 136.456 193.182H156.007C157.885 193.182 159.408 191.659 159.408 189.78V170.229C159.408 168.351 157.885 166.828 156.007 166.828Z" stroke="#263238" stroke-linecap="round" stroke-linejoin="round"/>
<path d="M184.592 166.828H165.041C163.163 166.828 161.64 168.351 161.64 170.229V189.78C161.64 191.659 163.163 193.182 165.041 193.182H184.592C186.471 193.182 187.994 191.659 187.994 189.78V170.229C187.994 168.351 186.471 166.828 184.592 166.828Z" stroke="#263238" stroke-linecap="round" stroke-linejoin="round"/>
<path d="M213.169 166.828H193.618C191.74 166.828 190.217 168.351 190.217 170.229V189.78C190.217 191.659 191.74 193.182 193.618 193.182H213.169C215.048 193.182 216.57 191.659 216.57 189.78V170.229C216.57 168.351 215.048 166.828 213.169 166.828Z" stroke="#263238" stroke-linecap="round" stroke-linejoin="round"/>
<path d="M241.755 166.828H222.203C220.325 166.828 218.802 168.351 218.802 170.229V189.78C218.802 191.659 220.325 193.182 222.203 193.182H241.755C243.633 193.182 245.156 191.659 245.156 189.78V170.229C245.156 168.351 243.633 166.828 241.755 166.828Z" stroke="#263238" stroke-linecap="round" stroke-linejoin="round"/>
<path d="M270.34 166.828H250.789C248.91 166.828 247.388 168.351 247.388 170.229V189.78C247.388 191.659 248.91 193.182 250.789 193.182H270.34C272.218 193.182 273.741 191.659 273.741 189.78V170.229C273.741 168.351 272.218 166.828 270.34 166.828Z" stroke="#263238" stroke-linecap="round" stroke-linejoin="round"/>
<path d="M298.917 166.828H279.366C277.488 166.828 275.965 168.351 275.965 170.229V189.78C275.965 191.659 277.488 193.182 279.366 193.182H298.917C300.796 193.182 302.318 191.659 302.318 189.78V170.229C302.318 168.351 300.796 166.828 298.917 166.828Z" stroke="#263238" stroke-linecap="round" stroke-linejoin="round"/>
<path d="M327.503 166.828H307.952C306.073 166.828 304.55 168.351 304.55 170.229V189.78C304.55 191.659 306.073 193.182 307.952 193.182H327.503C329.381 193.182 330.904 191.659 330.904 189.78V170.229C330.904 168.351 329.381 166.828 327.503 166.828Z" stroke="#263238" stroke-linecap="round" stroke-linejoin="round"/>
<path d="M356.088 166.828H336.537C334.658 166.828 333.135 168.351 333.135 170.229V189.78C333.135 191.659 334.658 193.182 336.537 193.182H356.088C357.966 193.182 359.489 191.659 359.489 189.78V170.229C359.489 168.351 357.966 166.828 356.088 166.828Z" stroke="#263238" stroke-linecap="round" stroke-linejoin="round"/>
<path d="M41.6739 194.992H22.1229C20.2445 194.992 18.7217 196.515 18.7217 198.393V217.944C18.7217 219.823 20.2445 221.346 22.1229 221.346H41.6739C43.5524 221.346 45.0752 219.823 45.0752 217.944V198.393C45.0752 196.515 43.5524 194.992 41.6739 194.992Z" stroke="#263238" stroke-linecap="round" stroke-linejoin="round"/>
<path d="M70.2594 194.992H50.7084C48.8299 194.992 47.3071 196.515 47.3071 198.393V217.944C47.3071 219.823 48.8299 221.346 50.7084 221.346H70.2594C72.1378 221.346 73.6606 219.823 73.6606 217.944V198.393C73.6606 196.515 72.1378 194.992 70.2594 194.992Z" stroke="#263238" stroke-linecap="round" stroke-linejoin="round"/>
<path d="M98.8443 194.992H79.2933C77.4149 194.992 75.8921 196.515 75.8921 198.393V217.944C75.8921 219.823 77.4149 221.346 79.2933 221.346H98.8443C100.723 221.346 102.246 219.823 102.246 217.944V198.393C102.246 196.515 100.723 194.992 98.8443 194.992Z" stroke="#263238" stroke-linecap="round" stroke-linejoin="round"/>
<path d="M127.421 194.992H107.87C105.992 194.992 104.469 196.515 104.469 198.393V217.944C104.469 219.823 105.992 221.346 107.87 221.346H127.421C129.3 221.346 130.823 219.823 130.823 217.944V198.393C130.823 196.515 129.3 194.992 127.421 194.992Z" stroke="#263238" stroke-linecap="round" stroke-linejoin="round"/>
<path d="M156.007 194.992H136.456C134.577 194.992 133.055 196.515 133.055 198.393V217.944C133.055 219.823 134.577 221.346 136.456 221.346H156.007C157.885 221.346 159.408 219.823 159.408 217.944V198.393C159.408 196.515 157.885 194.992 156.007 194.992Z" stroke="#263238" stroke-linecap="round" stroke-linejoin="round"/>
<path d="M184.592 194.992H165.041C163.163 194.992 161.64 196.515 161.64 198.393V217.944C161.64 219.823 163.163 221.346 165.041 221.346H184.592C186.471 221.346 187.994 219.823 187.994 217.944V198.393C187.994 196.515 186.471 194.992 184.592 194.992Z" stroke="#263238" stroke-linecap="round" stroke-linejoin="round"/>
<path d="M213.169 194.992H193.618C191.74 194.992 190.217 196.515 190.217 198.393V217.944C190.217 219.823 191.74 221.346 193.618 221.346H213.169C215.048 221.346 216.57 219.823 216.57 217.944V198.393C216.57 196.515 215.048 194.992 213.169 194.992Z" stroke="#263238" stroke-linecap="round" stroke-linejoin="round"/>
<path d="M241.755 194.992H222.203C220.325 194.992 218.802 196.515 218.802 198.393V217.944C218.802 219.823 220.325 221.346 222.203 221.346H241.755C243.633 221.346 245.156 219.823 245.156 217.944V198.393C245.156 196.515 243.633 194.992 241.755 194.992Z" stroke="#263238" stroke-linecap="round" stroke-linejoin="round"/>
<path d="M270.34 194.992H250.789C248.91 194.992 247.388 196.515 247.388 198.393V217.944C247.388 219.823 248.91 221.346 250.789 221.346H270.34C272.218 221.346 273.741 219.823 273.741 217.944V198.393C273.741 196.515 272.218 194.992 270.34 194.992Z" stroke="#263238" stroke-linecap="round" stroke-linejoin="round"/>
<path d="M298.917 194.992H279.366C277.488 194.992 275.965 196.515 275.965 198.393V217.944C275.965 219.823 277.488 221.346 279.366 221.346H298.917C300.796 221.346 302.318 219.823 302.318 217.944V198.393C302.318 196.515 300.796 194.992 298.917 194.992Z" stroke="#263238" stroke-linecap="round" stroke-linejoin="round"/>
<path d="M327.503 194.992H307.952C306.073 194.992 304.55 196.515 304.55 198.393V217.944C304.55 219.823 306.073 221.346 307.952 221.346H327.503C329.381 221.346 330.904 219.823 330.904 217.944V198.393C330.904 196.515 329.381 194.992 327.503 194.992Z" stroke="#263238" stroke-linecap="round" stroke-linejoin="round"/>
<path d="M356.088 194.992H336.537C334.658 194.992 333.135 196.515 333.135 198.393V217.944C333.135 219.823 334.658 221.346 336.537 221.346H356.088C357.966 221.346 359.489 219.823 359.489 217.944V198.393C359.489 196.515 357.966 194.992 356.088 194.992Z" stroke="#263238" stroke-linecap="round" stroke-linejoin="round"/>
<path d="M41.6739 223.158H22.1229C20.2445 223.158 18.7217 224.681 18.7217 226.559V246.11C18.7217 247.989 20.2445 249.512 22.1229 249.512H41.6739C43.5524 249.512 45.0752 247.989 45.0752 246.11V226.559C45.0752 224.681 43.5524 223.158 41.6739 223.158Z" stroke="#263238" stroke-linecap="round" stroke-linejoin="round"/>
<path d="M70.2594 223.158H50.7084C48.8299 223.158 47.3071 224.681 47.3071 226.559V246.11C47.3071 247.989 48.8299 249.512 50.7084 249.512H70.2594C72.1378 249.512 73.6606 247.989 73.6606 246.11V226.559C73.6606 224.681 72.1378 223.158 70.2594 223.158Z" stroke="#263238" stroke-linecap="round" stroke-linejoin="round"/>
<path d="M98.8443 223.158H79.2933C77.4149 223.158 75.8921 224.681 75.8921 226.559V246.11C75.8921 247.989 77.4149 249.512 79.2933 249.512H98.8443C100.723 249.512 102.246 247.989 102.246 246.11V226.559C102.246 224.681 100.723 223.158 98.8443 223.158Z" stroke="#263238" stroke-linecap="round" stroke-linejoin="round"/>
<path d="M127.421 223.158H107.87C105.992 223.158 104.469 224.681 104.469 226.559V246.11C104.469 247.989 105.992 249.512 107.87 249.512H127.421C129.3 249.512 130.823 247.989 130.823 246.11V226.559C130.823 224.681 129.3 223.158 127.421 223.158Z" stroke="#263238" stroke-linecap="round" stroke-linejoin="round"/>
<path d="M156.007 223.158H136.456C134.577 223.158 133.055 224.681 133.055 226.559V246.11C133.055 247.989 134.577 249.512 136.456 249.512H156.007C157.885 249.512 159.408 247.989 159.408 246.11V226.559C159.408 224.681 157.885 223.158 156.007 223.158Z" stroke="#263238" stroke-linecap="round" stroke-linejoin="round"/>
<path d="M184.592 223.158H165.041C163.163 223.158 161.64 224.681 161.64 226.559V246.11C161.64 247.989 163.163 249.512 165.041 249.512H184.592C186.471 249.512 187.994 247.989 187.994 246.11V226.559C187.994 224.681 186.471 223.158 184.592 223.158Z" stroke="#263238" stroke-linecap="round" stroke-linejoin="round"/>
<path d="M213.169 223.158H193.618C191.74 223.158 190.217 224.681 190.217 226.559V246.11C190.217 247.989 191.74 249.512 193.618 249.512H213.169C215.048 249.512 216.57 247.989 216.57 246.11V226.559C216.57 224.681 215.048 223.158 213.169 223.158Z" stroke="#263238" stroke-linecap="round" stroke-linejoin="round"/>
<path d="M241.755 223.158H222.203C220.325 223.158 218.802 224.681 218.802 226.559V246.11C218.802 247.989 220.325 249.512 222.203 249.512H241.755C243.633 249.512 245.156 247.989 245.156 246.11V226.559C245.156 224.681 243.633 223.158 241.755 223.158Z" stroke="#263238" stroke-linecap="round" stroke-linejoin="round"/>
<path d="M270.34 223.158H250.789C248.91 223.158 247.388 224.681 247.388 226.559V246.11C247.388 247.989 248.91 249.512 250.789 249.512H270.34C272.218 249.512 273.741 247.989 273.741 246.11V226.559C273.741 224.681 272.218 223.158 270.34 223.158Z" stroke="#263238" stroke-linecap="round" stroke-linejoin="round"/>
<path d="M298.917 223.158H279.366C277.488 223.158 275.965 224.681 275.965 226.559V246.11C275.965 247.989 277.488 249.512 279.366 249.512H298.917C300.796 249.512 302.318 247.989 302.318 246.11V226.559C302.318 224.681 300.796 223.158 298.917 223.158Z" stroke="#263238" stroke-linecap="round" stroke-linejoin="round"/>
<path d="M327.503 223.158H307.952C306.073 223.158 304.55 224.681 304.55 226.559V246.11C304.55 247.989 306.073 249.512 307.952 249.512H327.503C329.381 249.512 330.904 247.989 330.904 246.11V226.559C330.904 224.681 329.381 223.158 327.503 223.158Z" stroke="#263238" stroke-linecap="round" stroke-linejoin="round"/>
<path d="M356.088 223.158H336.537C334.658 223.158 333.135 224.681 333.135 226.559V246.11C333.135 247.989 334.658 249.512 336.537 249.512H356.088C357.966 249.512 359.489 247.989 359.489 246.11V226.559C359.489 224.681 357.966 223.158 356.088 223.158Z" stroke="#263238" stroke-linecap="round" stroke-linejoin="round"/>
<path d="M41.6739 251.324H22.1229C20.2445 251.324 18.7217 252.847 18.7217 254.725V274.276C18.7217 276.155 20.2445 277.678 22.1229 277.678H41.6739C43.5524 277.678 45.0752 276.155 45.0752 274.276V254.725C45.0752 252.847 43.5524 251.324 41.6739 251.324Z" stroke="#263238" stroke-linecap="round" stroke-linejoin="round"/>
<path d="M70.2594 251.324H50.7084C48.8299 251.324 47.3071 252.847 47.3071 254.725V274.276C47.3071 276.155 48.8299 277.678 50.7084 277.678H70.2594C72.1378 277.678 73.6606 276.155 73.6606 274.276V254.725C73.6606 252.847 72.1378 251.324 70.2594 251.324Z" stroke="#263238" stroke-linecap="round" stroke-linejoin="round"/>
<path d="M98.8443 251.324H79.2933C77.4149 251.324 75.8921 252.847 75.8921 254.725V274.276C75.8921 276.155 77.4149 277.678 79.2933 277.678H98.8443C100.723 277.678 102.246 276.155 102.246 274.276V254.725C102.246 252.847 100.723 251.324 98.8443 251.324Z" stroke="#263238" stroke-linecap="round" stroke-linejoin="round"/>
<path d="M127.421 251.324H107.87C105.992 251.324 104.469 252.847 104.469 254.725V274.276C104.469 276.155 105.992 277.678 107.87 277.678H127.421C129.3 277.678 130.823 276.155 130.823 274.276V254.725C130.823 252.847 129.3 251.324 127.421 251.324Z" stroke="#263238" stroke-linecap="round" stroke-linejoin="round"/>
<path d="M156.007 251.324H136.456C134.577 251.324 133.055 252.847 133.055 254.725V274.276C133.055 276.155 134.577 277.678 136.456 277.678H156.007C157.885 277.678 159.408 276.155 159.408 274.276V254.725C159.408 252.847 157.885 251.324 156.007 251.324Z" stroke="#263238" stroke-linecap="round" stroke-linejoin="round"/>
<path d="M184.592 251.324H165.041C163.163 251.324 161.64 252.847 161.64 254.725V274.276C161.64 276.155 163.163 277.678 165.041 277.678H184.592C186.471 277.678 187.994 276.155 187.994 274.276V254.725C187.994 252.847 186.471 251.324 184.592 251.324Z" stroke="#263238" stroke-linecap="round" stroke-linejoin="round"/>
<path d="M213.169 251.324H193.618C191.74 251.324 190.217 252.847 190.217 254.725V274.276C190.217 276.155 191.74 277.678 193.618 277.678H213.169C215.048 277.678 216.57 276.155 216.57 274.276V254.725C216.57 252.847 215.048 251.324 213.169 251.324Z" stroke="#263238" stroke-linecap="round" stroke-linejoin="round"/>
<path d="M241.755 251.324H222.203C220.325 251.324 218.802 252.847 218.802 254.725V274.276C218.802 276.155 220.325 277.678 222.203 277.678H241.755C243.633 277.678 245.156 276.155 245.156 274.276V254.725C245.156 252.847 243.633 251.324 241.755 251.324Z" stroke="#263238" stroke-linecap="round" stroke-linejoin="round"/>
<path d="M270.34 251.324H250.789C248.91 251.324 247.388 252.847 247.388 254.725V274.276C247.388 276.155 248.91 277.678 250.789 277.678H270.34C272.218 277.678 273.741 276.155 273.741 274.276V254.725C273.741 252.847 272.218 251.324 270.34 251.324Z" stroke="#263238" stroke-linecap="round" stroke-linejoin="round"/>
<path d="M298.917 251.324H279.366C277.488 251.324 275.965 252.847 275.965 254.725V274.276C275.965 276.155 277.488 277.678 279.366 277.678H298.917C300.796 277.678 302.318 276.155 302.318 274.276V254.725C302.318 252.847 300.796 251.324 298.917 251.324Z" stroke="#263238" stroke-linecap="round" stroke-linejoin="round"/>
<path d="M327.503 251.324H307.952C306.073 251.324 304.55 252.847 304.55 254.725V274.276C304.55 276.155 306.073 277.678 307.952 277.678H327.503C329.381 277.678 330.904 276.155 330.904 274.276V254.725C330.904 252.847 329.381 251.324 327.503 251.324Z" stroke="#263238" stroke-linecap="round" stroke-linejoin="round"/>
<path d="M356.088 251.324H336.537C334.658 251.324 333.135 252.847 333.135 254.725V274.276C333.135 276.155 334.658 277.678 336.537 277.678H356.088C357.966 277.678 359.489 276.155 359.489 274.276V254.725C359.489 252.847 357.966 251.324 356.088 251.324Z" stroke="#263238" stroke-linecap="round" stroke-linejoin="round"/>
<path d="M77.811 154.73V27.6484" stroke="#263238" stroke-linecap="round" stroke-linejoin="round"/>
<path d="M86.2444 119.77H81.7231V146.09H86.2444V119.77Z" fill="#263238" stroke="#263238" stroke-linecap="round" stroke-linejoin="round"/>
<path d="M73.9075 119.77H69.3862V146.09H73.9075V119.77Z" fill="#263238" stroke="#263238" stroke-linecap="round" stroke-linejoin="round"/>
<path d="M17.3628 154.73H358.286" stroke="#263238" stroke-width="2" stroke-linecap="round" stroke-linejoin="round"/>
<path d="M280.972 154.73V27.6484" stroke="#263238" stroke-linecap="round" stroke-linejoin="round"/>
<path d="M278.09 119.77H273.568V146.09H278.09V119.77Z" fill="#263238" stroke="#263238" stroke-linecap="round" stroke-linejoin="round"/>
<path d="M288.993 119.77H284.472V146.09H288.993V119.77Z" fill="#263238" stroke="#263238" stroke-linecap="round" stroke-linejoin="round"/>
<path d="M82.4147 262.293H92.5361C93.4294 262.293 94.2862 262.648 94.9178 263.28C95.5495 263.911 95.9044 264.768 95.9044 265.661V297.434H79.0464V265.661C79.0464 264.768 79.4013 263.911 80.0329 263.28C80.6646 262.648 81.5214 262.293 82.4147 262.293Z" fill="white" stroke="#263238" stroke-linecap="round" stroke-linejoin="round"/>
<path d="M82.4147 262.293H92.5361C93.4294 262.293 94.2862 262.648 94.9178 263.28C95.5495 263.911 95.9044 264.768 95.9044 265.661V271.476H79.0464V265.661C79.0464 264.768 79.4013 263.911 80.0329 263.28C80.6646 262.648 81.5214 262.293 82.4147 262.293Z" fill="white" stroke="#263238" stroke-linecap="round" stroke-linejoin="round"/>
<path d="M82.5874 272.793V293.999" stroke="#263238" stroke-linecap="round" stroke-linejoin="round"/>
<path d="M87.9326 272.793V293.999" stroke="#263238" stroke-linecap="round" stroke-linejoin="round"/>
<path d="M353.246 252.197H272.86C271.436 252.197 270.282 253.351 270.282 254.775V295.269C270.282 296.692 271.436 297.846 272.86 297.846H353.246C354.67 297.846 355.824 296.692 355.824 295.269V254.775C355.824 253.351 354.67 252.197 353.246 252.197Z" fill="white" stroke="#263238" stroke-linecap="round" stroke-linejoin="round"/>
<path d="M352.53 255.072H334.848V264.535H352.53V255.072Z" fill="#696969" stroke="#263238" stroke-linecap="round" stroke-linejoin="round"/>
<path d="M338.883 273.388C338.883 273.836 338.751 274.274 338.502 274.646C338.253 275.018 337.899 275.309 337.485 275.48C337.072 275.652 336.616 275.696 336.177 275.609C335.738 275.522 335.334 275.306 335.017 274.989C334.701 274.672 334.485 274.269 334.398 273.83C334.31 273.39 334.355 272.935 334.526 272.521C334.698 272.107 334.988 271.754 335.361 271.505C335.733 271.256 336.171 271.123 336.619 271.123C337.219 271.123 337.795 271.362 338.22 271.786C338.645 272.211 338.883 272.787 338.883 273.388Z" fill="white" stroke="#263238" stroke-linecap="round" stroke-linejoin="round"/>
<path d="M343.817 275.643C345.067 275.643 346.081 274.629 346.081 273.378C346.081 272.127 345.067 271.113 343.817 271.113C342.566 271.113 341.552 272.127 341.552 273.378C341.552 274.629 342.566 275.643 343.817 275.643Z" fill="white" stroke="#263238" stroke-linecap="round" stroke-linejoin="round"/>
<path d="M351.015 275.643C352.266 275.643 353.28 274.629 353.28 273.378C353.28 272.127 352.266 271.113 351.015 271.113C349.764 271.113 348.75 272.127 348.75 273.378C348.75 274.629 349.764 275.643 351.015 275.643Z" fill="white" stroke="#263238" stroke-linecap="round" stroke-linejoin="round"/>
<path d="M338.883 282.01C338.885 282.459 338.754 282.897 338.506 283.271C338.258 283.644 337.905 283.936 337.491 284.109C337.077 284.281 336.622 284.327 336.182 284.241C335.742 284.154 335.338 283.939 335.02 283.623C334.703 283.307 334.486 282.903 334.398 282.464C334.31 282.024 334.354 281.568 334.526 281.154C334.697 280.74 334.987 280.385 335.36 280.136C335.732 279.887 336.17 279.754 336.619 279.754C337.218 279.754 337.793 279.991 338.217 280.414C338.642 280.837 338.881 281.411 338.883 282.01Z" fill="white" stroke="#263238" stroke-linecap="round" stroke-linejoin="round"/>
<path d="M346.073 282.01C346.075 282.459 345.943 282.898 345.695 283.272C345.447 283.645 345.093 283.937 344.679 284.109C344.265 284.282 343.809 284.327 343.369 284.24C342.929 284.153 342.525 283.937 342.207 283.62C341.89 283.303 341.674 282.899 341.587 282.458C341.5 282.018 341.545 281.562 341.718 281.148C341.89 280.734 342.182 280.38 342.556 280.132C342.929 279.884 343.368 279.752 343.817 279.754C344.415 279.756 344.987 279.995 345.41 280.417C345.833 280.84 346.071 281.413 346.073 282.01Z" fill="white" stroke="#263238" stroke-linecap="round" stroke-linejoin="round"/>
<path d="M353.271 282.01C353.273 282.459 353.141 282.898 352.893 283.272C352.645 283.645 352.291 283.937 351.877 284.109C351.463 284.282 351.007 284.327 350.567 284.24C350.127 284.153 349.722 283.937 349.405 283.62C349.088 283.303 348.872 282.899 348.785 282.458C348.698 282.018 348.743 281.562 348.916 281.148C349.088 280.734 349.38 280.38 349.753 280.132C350.127 279.884 350.566 279.752 351.015 279.754C351.612 279.756 352.185 279.995 352.608 280.417C353.031 280.84 353.269 281.413 353.271 282.01Z" fill="white" stroke="#263238" stroke-linecap="round" stroke-linejoin="round"/>
<path d="M338.883 290.681C338.883 291.129 338.751 291.567 338.502 291.939C338.253 292.311 337.899 292.602 337.485 292.773C337.072 292.945 336.616 292.989 336.177 292.902C335.738 292.815 335.334 292.599 335.017 292.282C334.701 291.965 334.485 291.562 334.398 291.123C334.31 290.683 334.355 290.228 334.526 289.814C334.698 289.4 334.988 289.047 335.361 288.798C335.733 288.549 336.171 288.416 336.619 288.416C337.219 288.416 337.795 288.655 338.22 289.079C338.645 289.504 338.883 290.08 338.883 290.681Z" fill="white" stroke="#263238" stroke-linecap="round" stroke-linejoin="round"/>
<path d="M346.073 290.681C346.073 291.129 345.94 291.567 345.691 291.94C345.442 292.312 345.088 292.603 344.673 292.774C344.259 292.945 343.803 292.989 343.364 292.901C342.924 292.813 342.521 292.597 342.204 292.279C341.888 291.962 341.673 291.557 341.586 291.118C341.5 290.678 341.546 290.222 341.719 289.808C341.891 289.395 342.183 289.042 342.556 288.794C342.93 288.546 343.369 288.414 343.817 288.416C344.416 288.418 344.99 288.658 345.413 289.082C345.836 289.507 346.073 290.082 346.073 290.681Z" fill="white" stroke="#263238" stroke-linecap="round" stroke-linejoin="round"/>
<path d="M353.271 290.681C353.271 291.129 353.138 291.567 352.889 291.94C352.64 292.312 352.286 292.603 351.871 292.774C351.457 292.945 351.001 292.989 350.562 292.901C350.122 292.813 349.719 292.597 349.402 292.279C349.086 291.962 348.871 291.557 348.784 291.118C348.698 290.678 348.744 290.222 348.916 289.808C349.089 289.395 349.381 289.042 349.754 288.794C350.128 288.546 350.566 288.414 351.015 288.416C351.614 288.418 352.188 288.658 352.611 289.082C353.034 289.507 353.271 290.082 353.271 290.681Z" fill="white" stroke="#263238" stroke-linecap="round" stroke-linejoin="round"/>
<path d="M327.881 274.606C327.881 285.626 327.058 294.553 326.028 294.553C324.999 294.553 324.184 285.626 324.184 274.606C324.184 263.587 325.007 254.66 326.028 254.66C327.05 254.66 327.881 263.596 327.881 274.606Z" fill="#696969" stroke="#263238" stroke-linecap="round" stroke-linejoin="round"/>
<path d="M316.903 256.397C315.709 256.34 314.498 256.307 313.279 256.307C292.032 256.307 274.812 264.781 274.812 275.248C274.812 285.715 292.032 294.19 313.279 294.19C314.498 294.19 315.75 294.19 316.903 294.107V256.397Z" fill="#696969" stroke="#263238" stroke-linecap="round" stroke-linejoin="round"/>
<path d="M57.6672 256.719H37.9268V262.887H57.6672V256.719Z" fill="#263238" stroke="#263238" stroke-linecap="round" stroke-linejoin="round"/>
<path d="M30.8691 261.24H65.1286L72.4664 289.389H23.5312L30.8691 261.24Z" fill="white" stroke="#263238" stroke-linecap="round" stroke-linejoin="round"/>
<path d="M72.4664 289.174H23.5312V297.838H72.4664V289.174Z" fill="#263238" stroke="#263238" stroke-linecap="round" stroke-linejoin="round"/>
<path d="M65.2931 261.857L65.1284 261.215H30.8688L30.7041 261.857C33.1747 272.975 39.9855 280.955 47.9986 280.955C56.0117 280.955 62.8142 273 65.2931 261.857Z" fill="#696969" stroke="#263238" stroke-linecap="round" stroke-linejoin="round"/>
<path d="M39.5738 281.805H36.6914V287.149H39.5738V281.805Z" fill="white" stroke="#263238" stroke-linecap="round" stroke-linejoin="round"/>
<path d="M46.1539 281.805H43.2715V287.149H46.1539V281.805Z" fill="white" stroke="#263238" stroke-linecap="round" stroke-linejoin="round"/>
<path d="M52.734 281.805H49.8516V287.149H52.734V281.805Z" fill="white" stroke="#263238" stroke-linecap="round" stroke-linejoin="round"/>
<path d="M59.3145 281.805H56.4321V287.149H59.3145V281.805Z" fill="white" stroke="#263238" stroke-linecap="round" stroke-linejoin="round"/>
<path d="M159.054 45.3476C159.054 45.3476 141.406 51.3183 137.181 62.008C132.956 72.6976 143.646 79.6566 146.627 81.3943C149.608 83.1319 151.848 92.1004 149.361 103.515C146.874 114.929 139.421 119.162 134.2 118.684C128.978 118.207 127.982 117.688 127.982 117.688C127.982 117.688 128.731 131.112 141.908 137.074C155.085 143.037 160.825 140.797 160.825 140.797C160.825 140.797 183.44 147.756 194.879 145.738C206.318 143.72 211.761 140.311 211.761 140.311C211.761 140.311 217.979 143.045 226.931 138.318C235.883 133.591 239.111 126.385 239.111 126.385C239.111 126.385 226.182 126.138 229.163 112.714C232.144 99.2899 232.894 73.4388 218.457 57.7749C204.02 42.1111 176.481 33.9168 159.054 45.3476Z" fill="#263238"/>
<mask id="mask0_2160_10201" style="mask-type:luminance" maskUnits="userSpaceOnUse" x="127" y="40" width="113" height="107">
<path d="M159.054 45.3476C159.054 45.3476 141.406 51.3183 137.181 62.008C132.956 72.6976 143.646 79.6566 146.627 81.3943C149.608 83.1319 151.848 92.1004 149.361 103.515C146.874 114.929 139.421 119.162 134.2 118.684C128.978 118.207 127.982 117.688 127.982 117.688C127.982 117.688 128.731 131.112 141.908 137.074C155.085 143.037 160.825 140.797 160.825 140.797C160.825 140.797 183.44 147.756 194.879 145.738C206.318 143.72 211.761 140.311 211.761 140.311C211.761 140.311 217.979 143.045 226.931 138.318C235.883 133.591 239.111 126.385 239.111 126.385C239.111 126.385 226.182 126.138 229.163 112.714C232.144 99.2899 232.894 73.4388 218.457 57.7749C204.02 42.1111 176.481 33.9168 159.054 45.3476Z" fill="white"/>
</mask>
<g mask="url(#mask0_2160_10201)">
<path d="M176.934 51.5898C176.934 51.5898 184.346 77.2186 199.993 85.7588C215.64 94.299 226.346 104.7 226.346 113.982C226.346 123.263 226.717 137.387 243.797 131.441" stroke="#6E6E6E" stroke-linecap="round" stroke-linejoin="round"/>
<path d="M181.76 46.0156C181.76 46.0156 202.563 52.3322 212.956 67.5596C223.349 82.787 219.997 90.2154 224.115 98.7967C228.233 107.378 234.146 107.345 234.146 107.345" stroke="#6E6E6E" stroke-linecap="round" stroke-linejoin="round"/>
<path d="M179.536 48.6172C179.536 48.6172 197.358 57.528 204.045 70.9024" stroke="#6E6E6E" stroke-linecap="round" stroke-linejoin="round"/>
<path d="M170.584 57.5283C170.584 57.5283 169.102 45.6445 181.356 44.1621" stroke="#6E6E6E" stroke-linecap="round" stroke-linejoin="round"/>
<path d="M146.108 77.9599C146.108 77.9599 134.224 72.3845 140.903 63.4737C147.582 54.5629 168.014 55.3041 168.014 55.3041" stroke="#6E6E6E" stroke-linecap="round" stroke-linejoin="round"/>
<path d="M165.791 63.1035C165.791 63.1035 145.738 69.4201 145.367 70.9025C144.997 72.3849 147.591 72.3849 147.591 72.3849" stroke="#6E6E6E" stroke-linecap="round" stroke-linejoin="round"/>
<path d="M173.22 47.8757C173.22 47.8757 170.617 44.5321 159.475 46.7639" stroke="#6E6E6E" stroke-linecap="round" stroke-linejoin="round"/>
<path d="M129.407 130.33C129.407 130.33 148.719 134.447 156.518 111.018" stroke="#6E6E6E" stroke-linecap="round" stroke-linejoin="round"/>
<path d="M143.506 139.973C143.506 139.973 157.992 139.973 161.706 124.375" stroke="#6E6E6E" stroke-linecap="round" stroke-linejoin="round"/>
<path d="M208.129 114.732C208.129 114.732 205.527 142.214 222.953 145.204" stroke="#6E6E6E" stroke-linecap="round" stroke-linejoin="round"/>
</g>
<path d="M159.054 45.3476C159.054 45.3476 141.406 51.3183 137.181 62.008C132.956 72.6976 143.646 79.6566 146.627 81.3943C149.608 83.1319 151.848 92.1004 149.361 103.515C146.874 114.929 139.421 119.162 134.2 118.684C128.978 118.207 127.982 117.688 127.982 117.688C127.982 117.688 128.731 131.112 141.908 137.074C155.085 143.037 160.825 140.797 160.825 140.797C160.825 140.797 183.44 147.756 194.879 145.738C206.318 143.72 211.761 140.311 211.761 140.311C211.761 140.311 217.979 143.045 226.931 138.318C235.883 133.591 239.111 126.385 239.111 126.385C239.111 126.385 226.182 126.138 229.163 112.714C232.144 99.2899 232.894 73.4388 218.457 57.7749C204.02 42.1111 176.481 33.9168 159.054 45.3476Z" stroke="#263238" stroke-linecap="round" stroke-linejoin="round"/>
<path d="M145.919 156.708C145.919 156.708 133.286 155.653 126.977 162.761C120.669 169.868 90.3872 218.037 83.5435 227.821C76.6998 237.605 76.6998 254.932 89.3083 257.304C101.917 259.676 114.015 245.461 119.318 238.873C121.989 235.434 124.892 232.181 128.007 229.138C128.007 229.138 125.635 219.132 132.742 203.073C139.849 187.014 144.857 174.381 147.22 167.537C149.584 160.693 145.919 156.708 145.919 156.708Z" fill="white"/>
<mask id="mask1_2160_10201" style="mask-type:luminance" maskUnits="userSpaceOnUse" x="78" y="156" width="71" height="102">
<path d="M145.919 156.708C145.919 156.708 133.286 155.653 126.977 162.761C120.669 169.868 90.3872 218.037 83.5435 227.821C76.6998 237.605 76.6998 254.932 89.3083 257.304C101.917 259.676 114.015 245.461 119.318 238.873C121.989 235.434 124.892 232.181 128.007 229.138C128.007 229.138 125.635 219.132 132.742 203.073C139.849 187.014 144.857 174.381 147.22 167.537C149.584 160.693 145.919 156.708 145.919 156.708Z" fill="white"/>
</mask>
<g mask="url(#mask1_2160_10201)">
<path opacity="0.1" d="M135.995 195.604L139.759 170.074C139.759 170.074 111.553 223.835 103.572 235.011C98.7629 241.739 90.8815 250.584 88.3779 257.024C88.6826 257.107 88.9956 257.189 89.3168 257.247C101.958 259.618 114.023 245.404 119.327 238.816C121.998 235.377 124.901 232.124 128.015 229.081C128.015 229.081 125.643 219.075 132.751 203.016C133.893 200.458 134.974 197.987 135.995 195.604Z" fill="black"/>
</g>
<path d="M145.919 156.708C145.919 156.708 133.286 155.653 126.977 162.761C120.669 169.868 90.3872 218.037 83.5435 227.821C76.6998 237.605 76.6998 254.932 89.3083 257.304C101.917 259.676 114.015 245.461 119.318 238.873C121.989 235.434 124.892 232.181 128.007 229.138C128.007 229.138 125.635 219.132 132.742 203.073C139.849 187.014 144.857 174.381 147.22 167.537C149.584 160.693 145.919 156.708 145.919 156.708Z" stroke="#263238" stroke-linecap="round" stroke-linejoin="round"/>
<path d="M163.823 128.28C163.823 128.28 165.404 136.441 163.296 144.339C161.187 152.237 161.978 152.237 156.707 154.337C153.244 155.653 149.606 156.452 145.911 156.708C145.911 156.708 136.176 182.238 128.806 194.353C121.435 206.467 119.326 219.883 122.217 226.726C124.09 231.018 126.587 235.009 129.629 238.569C129.629 238.569 133.837 253.574 131.466 263.275C129.094 272.977 123.312 286.969 120.941 308.027C118.569 329.085 119.886 353.034 119.886 353.034H258.061C258.061 353.034 257.798 326.45 254.899 304.601C252 282.752 248.582 280.957 243.88 267.788C239.177 254.62 238.609 254.101 238.609 244.894C238.609 235.687 241.244 210.931 240.454 194.353C239.663 177.775 235.718 164.87 228.875 160.126C222.031 155.382 205.708 153.538 199.655 149.338C193.602 145.138 197.283 118.273 197.283 118.273C197.283 118.273 187.022 124.862 178.597 127.225C173.81 128.661 168.765 129.021 163.823 128.28Z" fill="white"/>
<mask id="mask2_2160_10201" style="mask-type:luminance" maskUnits="userSpaceOnUse" x="119" y="118" width="140" height="236">
<path d="M163.823 128.28C163.823 128.28 165.404 136.441 163.296 144.339C161.187 152.237 161.978 152.237 156.707 154.337C153.244 155.653 149.606 156.452 145.911 156.708C145.911 156.708 136.176 182.238 128.806 194.353C121.435 206.467 119.326 219.883 122.217 226.726C124.09 231.018 126.587 235.009 129.629 238.569C129.629 238.569 133.837 253.574 131.466 263.275C129.094 272.977 123.312 286.969 120.941 308.027C118.569 329.085 119.886 353.034 119.886 353.034H258.061C258.061 353.034 257.798 326.45 254.899 304.601C252 282.752 248.582 280.957 243.88 267.788C239.177 254.62 238.609 254.101 238.609 244.894C238.609 235.687 241.244 210.931 240.454 194.353C239.663 177.775 235.718 164.87 228.875 160.126C222.031 155.382 205.708 153.538 199.655 149.338C193.602 145.138 197.283 118.273 197.283 118.273C197.283 118.273 187.022 124.862 178.597 127.225C173.81 128.661 168.765 129.021 163.823 128.28Z" fill="white"/>
</mask>
<g mask="url(#mask2_2160_10201)">
<path opacity="0.1" d="M188.702 151.503C197.613 156.593 210.246 158.964 222.83 157.268C215.006 154.427 204.251 152.59 199.589 149.345C193.536 145.137 197.217 118.281 197.217 118.281C192.64 121.159 187.834 123.654 182.847 125.743L183.374 133.377C183.374 133.377 177.559 145.079 188.702 151.503Z" fill="black"/>
<path opacity="0.1" d="M225.457 203.09C225.457 203.09 222.797 222.781 227.582 226.511C232.367 230.242 235.035 228.636 235.035 216.398C235.035 204.16 226.519 200.43 225.457 203.09Z" fill="black"/>
</g>
<path d="M163.823 128.28C163.823 128.28 165.404 136.441 163.296 144.339C161.187 152.237 161.978 152.237 156.707 154.337C153.244 155.653 149.606 156.452 145.911 156.708C145.911 156.708 136.176 182.238 128.806 194.353C121.435 206.467 119.326 219.883 122.217 226.726C124.09 231.018 126.587 235.009 129.629 238.569C129.629 238.569 133.837 253.574 131.466 263.275C129.094 272.977 123.312 286.969 120.941 308.027C118.569 329.085 119.886 353.034 119.886 353.034H258.061C258.061 353.034 257.798 326.45 254.899 304.601C252 282.752 248.582 280.957 243.88 267.788C239.177 254.62 238.609 254.101 238.609 244.894C238.609 235.687 241.244 210.931 240.454 194.353C239.663 177.775 235.718 164.87 228.875 160.126C222.031 155.382 205.708 153.538 199.655 149.338C193.602 145.138 197.283 118.273 197.283 118.273C197.283 118.273 187.022 124.862 178.597 127.225C173.81 128.661 168.765 129.021 163.823 128.28Z" stroke="#263238" stroke-linecap="round" stroke-linejoin="round"/>
<path d="M164.226 138.953C169.147 141.133 174.72 141.33 179.783 139.504C183.267 138.277 191.675 132.266 196.295 128.848C196.6 123.034 197.251 118.273 197.251 118.273C197.251 118.273 186.989 124.862 178.564 127.225C173.788 128.656 168.754 129.016 163.823 128.28C164.404 131.806 164.54 135.392 164.226 138.953Z" fill="#263238" stroke="#263238" stroke-linecap="round" stroke-linejoin="round"/>
<path d="M254.899 304.682C253.729 295.87 252.477 290.319 251.086 285.963C195.908 305.621 145.21 296.669 123.765 291.127C122.507 296.731 121.556 302.4 120.916 308.108C118.544 329.166 119.862 353.115 119.862 353.115H258.061C258.061 353.115 257.797 326.49 254.899 304.682Z" fill="#263238" stroke="#263238" stroke-linecap="round" stroke-linejoin="round"/>
<path d="M189.945 350.341C189.945 350.341 201.829 323.493 222.887 312.754" stroke="#6E6E6E" stroke-linecap="round" stroke-linejoin="round"/>
<path d="M185.729 346.501C187.876 338.172 192.097 330.522 198 324.266" stroke="#6E6E6E" stroke-linecap="round" stroke-linejoin="round"/>
<path d="M135.872 311.609C135.872 311.609 142.773 325.791 155.81 333.845" stroke="#6E6E6E" stroke-linecap="round" stroke-linejoin="round"/>
<path d="M238.576 244.892C238.576 240.453 239.185 232.424 239.729 223.48C234.689 223.669 227.425 223.052 221.998 218.86C212.783 211.753 208.047 198.065 209.357 183.324C210.262 173.235 213.878 161.541 216.068 155.167C214.034 154.59 211.58 153.973 209.612 153.404C208.467 157.621 206.886 164.465 204.094 172.535C199.359 186.223 190.917 204.118 173.821 204.382C156.724 204.645 143.292 199.35 146.701 184.345C149.172 173.466 152.359 161.212 153.915 155.29C151.304 156.041 148.621 156.516 145.911 156.707C145.911 156.707 136.176 182.237 128.805 194.351C121.435 206.465 119.326 219.881 122.217 226.725C124.089 231.017 126.587 235.007 129.629 238.567C129.629 238.567 133.837 253.572 131.466 263.274C129.448 271.592 124.935 283.039 122.184 299.254C129.324 303.175 145.754 309.961 175.715 311.443C209.727 313.09 242.422 303.586 254.232 299.658C251.489 282.363 248.244 279.835 243.896 267.746C239.103 254.626 238.576 254.099 238.576 244.892Z" fill="#CEFE8F"/>
<mask id="mask3_2160_10201" style="mask-type:luminance" maskUnits="userSpaceOnUse" x="120" y="153" width="135" height="159">
<path d="M238.576 244.892C238.576 240.453 239.185 232.424 239.729 223.48C234.689 223.669 227.425 223.052 221.998 218.86C212.783 211.753 208.047 198.065 209.357 183.324C210.262 173.235 213.878 161.541 216.068 155.167C214.034 154.59 211.58 153.973 209.612 153.404C208.467 157.621 206.886 164.465 204.094 172.535C199.359 186.223 190.917 204.118 173.821 204.382C156.724 204.645 143.292 199.35 146.701 184.345C149.172 173.466 152.359 161.212 153.915 155.29C151.304 156.041 148.621 156.516 145.911 156.707C145.911 156.707 136.176 182.237 128.805 194.351C121.435 206.465 119.326 219.881 122.217 226.725C124.089 231.017 126.587 235.007 129.629 238.567C129.629 238.567 133.837 253.572 131.466 263.274C129.448 271.592 124.935 283.039 122.184 299.254C129.324 303.175 145.754 309.961 175.715 311.443C209.727 313.09 242.422 303.586 254.232 299.658C251.489 282.363 248.244 279.835 243.896 267.746C239.103 254.626 238.576 254.099 238.576 244.892Z" fill="white"/>
</mask>
<g mask="url(#mask3_2160_10201)">
<path opacity="0.1" d="M206.417 310.306C222.648 308.346 238.647 304.793 254.182 299.699C251.44 282.404 248.195 279.876 243.847 267.786C239.103 254.609 238.576 254.099 238.576 244.892C238.576 240.453 239.186 232.423 239.729 223.479C234.689 223.669 227.425 223.051 221.998 218.859C214.718 213.251 210.254 203.525 209.332 192.432C203.707 203.475 192.491 222.796 180.195 228.948C162.621 237.735 151.643 232.794 136.819 226.749C126.113 222.384 122.819 223.183 122.283 226.872C124.137 231.118 126.604 235.07 129.605 238.6C129.605 238.6 130.428 241.688 131.186 245.954C134.916 248.968 140.097 252.048 147.253 255.301C165.371 263.537 195.562 268.478 211.49 277.809C227.417 287.14 214.784 296.479 207.092 308.008C206.659 308.697 206.425 309.492 206.417 310.306Z" fill="black"/>
</g>
<path d="M238.576 244.892C238.576 240.453 239.185 232.424 239.729 223.48C234.689 223.669 227.425 223.052 221.998 218.86C212.783 211.753 208.047 198.065 209.357 183.324C210.262 173.235 213.878 161.541 216.068 155.167C214.034 154.59 211.58 153.973 209.612 153.404C208.467 157.621 206.886 164.465 204.094 172.535C199.359 186.223 190.917 204.118 173.821 204.382C156.724 204.645 143.292 199.35 146.701 184.345C149.172 173.466 152.359 161.212 153.915 155.29C151.304 156.041 148.621 156.516 145.911 156.707C145.911 156.707 136.176 182.237 128.805 194.351C121.435 206.465 119.326 219.881 122.217 226.725C124.089 231.016 126.587 235.007 129.629 238.567C129.629 238.567 133.837 253.572 131.466 263.274C129.448 271.592 124.935 283.039 122.184 299.254C129.324 303.175 145.754 309.961 175.715 311.443C209.727 313.09 242.422 303.586 254.232 299.658C251.489 282.363 248.244 279.835 243.896 267.746C239.103 254.626 238.576 254.099 238.576 244.892Z" stroke="#263238" stroke-linecap="round" stroke-linejoin="round"/>
<path d="M134.908 240.768C134.908 240.768 140.5 243.436 149.732 243.436" stroke="#263238" stroke-linecap="round" stroke-linejoin="round"/>
<path d="M95.4599 147.493C95.4599 147.493 94.9905 143.688 94.6363 137.66C94.2822 131.631 93.8128 126.879 96.7034 126.245C99.5941 125.611 100.665 128.461 100.665 131.796C100.665 135.131 102.254 142.42 103.959 147.336C105.664 152.253 107.451 154.954 104.782 156.222C102.114 157.491 96.2587 152.253 95.4599 147.493Z" fill="white" stroke="#263238" stroke-linecap="round" stroke-linejoin="round"/>
<path d="M151.642 139.404C151.642 139.404 146.536 142.443 145.877 146.701C145.218 150.959 147.623 153.998 154.286 153.207C160.948 152.416 160.627 148.266 160.627 148.266L151.642 139.404Z" fill="#CEFE8F" stroke="#263238" stroke-linecap="round" stroke-linejoin="round"/>
<path d="M154.871 144.092C154.871 144.092 150.695 146.077 149.501 148.267C148.307 150.458 146.52 152.245 150.695 150.853C154.871 149.461 156.468 143.919 154.871 144.092Z" fill="white" stroke="#263238" stroke-linecap="round" stroke-linejoin="round"/>
<path d="M147.13 147.385C142.238 148.571 139.578 147.089 136.909 147.682C136.328 147.816 135.74 147.915 135.147 147.978C131.359 146.669 128.246 144.462 124.902 142.065C123.617 141.143 122.283 140.188 120.867 139.257C112.425 133.682 98.6309 130.083 98.0709 129.935C97.8393 129.877 97.5945 129.914 97.3897 130.036C97.1849 130.159 97.0366 130.357 96.977 130.588C96.9174 130.819 96.9512 131.064 97.0712 131.27C97.1912 131.476 97.3876 131.626 97.6179 131.689C97.7579 131.689 111.684 135.353 119.854 140.748C121.237 141.662 122.563 142.609 123.831 143.523C130.288 148.143 139.438 153.191 147.607 150.564C147.792 150.535 147.962 150.448 148.095 150.316C148.228 150.185 148.317 150.016 148.348 149.831C149.608 148.209 147.13 147.385 147.13 147.385Z" fill="white" stroke="#263238" stroke-linecap="round" stroke-linejoin="round"/>
<path d="M148.019 148.455C145.549 149.33 142.892 149.534 140.318 149.048" stroke="#263238" stroke-linecap="round" stroke-linejoin="round"/>
<path d="M92.4872 147.756C92.4872 147.756 89.0612 151.182 89.8518 152.755" stroke="#263238" stroke-linecap="round" stroke-linejoin="round"/>
<path d="M115.406 163.289L112.244 159.607C112.244 159.607 114.517 149.824 115.67 146.966C116.217 145.739 116.634 144.458 116.913 143.145C117.737 141.498 118.165 138.615 117.053 137.503C116.073 136.523 114.855 137.717 114.583 138.022H114.542C114.634 137.723 114.655 137.407 114.601 137.098C114.547 136.79 114.421 136.499 114.233 136.249C114.045 135.999 113.8 135.797 113.519 135.66C113.237 135.523 112.927 135.455 112.614 135.461C110.078 135.296 107.838 137.33 107.838 137.33C107.838 137.33 107.385 135.461 105.96 135.461C104.535 135.461 101.678 137.997 100.566 139.422C100.484 139.529 100.41 139.636 100.327 139.76C97.6589 142.288 92.5117 147.773 92.5117 147.773C92.5117 147.773 93.8294 142.247 96.1929 139.875C98.5565 137.503 104.881 133.031 103.827 130.931C102.773 128.831 99.6189 130.931 99.6189 130.931C99.6189 130.931 85.4045 138.557 85.1409 141.72C84.8774 144.882 81.1879 158.306 82.5056 159.624C83.8233 160.941 101.447 171.73 101.447 171.73C101.447 171.73 88.5422 197.523 83.8068 208.847C79.0714 220.171 74.3278 231.742 73.8007 242.011C73.2736 252.281 79.5655 259.915 90.3869 259.915C101.208 259.915 105.919 252.545 107.5 238.33C109.081 224.116 116.707 181.464 117.235 174.093C117.762 166.723 118.544 166.978 115.406 163.289Z" fill="white"/>
<mask id="mask4_2160_10201" style="mask-type:luminance" maskUnits="userSpaceOnUse" x="73" y="129" width="45" height="131">
<path d="M115.406 163.289L112.244 159.607C112.244 159.607 114.517 149.824 115.67 146.966C116.217 145.739 116.634 144.458 116.913 143.145C117.737 141.498 118.165 138.615 117.053 137.503C116.073 136.523 114.855 137.717 114.583 138.022H114.542C114.634 137.723 114.655 137.407 114.601 137.098C114.547 136.79 114.421 136.499 114.233 136.249C114.045 135.999 113.8 135.797 113.519 135.66C113.237 135.523 112.927 135.455 112.614 135.461C110.078 135.296 107.838 137.33 107.838 137.33C107.838 137.33 107.385 135.461 105.96 135.461C104.535 135.461 101.678 137.997 100.566 139.422C100.484 139.529 100.41 139.636 100.327 139.76C97.6589 142.288 92.5117 147.773 92.5117 147.773C92.5117 147.773 93.8294 142.247 96.1929 139.875C98.5565 137.503 104.881 133.031 103.827 130.931C102.773 128.831 99.6189 130.931 99.6189 130.931C99.6189 130.931 85.4045 138.557 85.1409 141.72C84.8774 144.882 81.1879 158.306 82.5056 159.624C83.8233 160.941 101.447 171.73 101.447 171.73C101.447 171.73 88.5422 197.523 83.8068 208.847C79.0714 220.171 74.3278 231.742 73.8007 242.011C73.2736 252.281 79.5655 259.915 90.3869 259.915C101.208 259.915 105.919 252.545 107.5 238.33C109.081 224.116 116.707 181.464 117.235 174.093C117.762 166.723 118.544 166.978 115.406 163.289Z" fill="white"/>
</mask>
<g mask="url(#mask4_2160_10201)">
<path opacity="0.1" d="M107.492 238.314C109.073 224.1 116.699 181.448 117.226 174.078C117.753 166.707 118.544 166.97 115.39 163.281L112.227 159.6C112.227 159.6 114.5 149.816 115.653 146.958C116.201 145.732 116.618 144.451 116.897 143.137C117.525 141.823 117.781 140.362 117.638 138.912L117.416 139.217C117.416 139.217 108.357 158.908 108.9 162.638C109.32 165.595 89.8844 160.818 82.4478 159.542V159.6C83.7654 160.909 101.389 171.706 101.389 171.706C101.389 171.706 110.448 173.814 108.851 182.329C107.253 190.845 96.8434 244.367 89.275 257.272C88.7658 258.132 88.1815 258.945 87.529 259.702C88.457 259.83 89.3923 259.899 90.3291 259.908C101.175 259.899 105.911 252.529 107.492 238.314Z" fill="black"/>
</g>
<path d="M115.406 163.289L112.244 159.607C112.244 159.607 114.517 149.824 115.67 146.966C116.217 145.739 116.634 144.458 116.913 143.145C117.737 141.498 118.165 138.615 117.053 137.503C116.073 136.523 114.855 137.717 114.583 138.022H114.542C114.634 137.723 114.655 137.407 114.601 137.098C114.547 136.79 114.421 136.499 114.233 136.249C114.045 135.999 113.8 135.797 113.519 135.66C113.237 135.523 112.927 135.455 112.614 135.461C110.078 135.296 107.838 137.33 107.838 137.33C107.838 137.33 107.385 135.461 105.96 135.461C104.535 135.461 101.678 137.997 100.566 139.422C100.484 139.529 100.41 139.636 100.327 139.76C97.6589 142.288 92.5117 147.773 92.5117 147.773C92.5117 147.773 93.8294 142.247 96.1929 139.875C98.5565 137.503 104.881 133.031 103.827 130.931C102.773 128.831 99.6189 130.931 99.6189 130.931C99.6189 130.931 85.4045 138.557 85.1409 141.72C84.8774 144.882 81.1879 158.306 82.5056 159.624C83.8233 160.941 101.447 171.73 101.447 171.73C101.447 171.73 88.5422 197.523 83.8068 208.847C79.0714 220.171 74.3278 231.742 73.8007 242.011C73.2736 252.281 79.5655 259.915 90.3869 259.915C101.208 259.915 105.919 252.545 107.5 238.33C109.081 224.116 116.707 181.464 117.235 174.093C117.762 166.723 118.544 166.978 115.406 163.289Z" stroke="#263238" stroke-linecap="round" stroke-linejoin="round"/>
<path d="M107.813 137.312C107.813 137.312 101.81 145.91 100.541 148.29C99.7066 150.14 99.2208 152.128 99.1084 154.154" stroke="#263238" stroke-linecap="round" stroke-linejoin="round"/>
<path d="M106.405 156.534C106.634 154.117 107.277 151.758 108.307 149.559C109.897 146.067 114.558 138.029 114.558 138.029" stroke="#263238" stroke-linecap="round" stroke-linejoin="round"/>
<path d="M224.584 197.481C224.584 197.481 235.883 244.489 238.139 253.523C240.396 262.557 248.236 277.019 259.766 274.532C271.295 272.045 272.374 257.723 272.119 244.168C271.863 230.612 263.925 200.363 258.275 186.355C252.625 172.346 245.098 162.002 234.722 159.062C224.345 156.122 218.448 157.028 218.448 157.028" fill="white"/>
<mask id="mask5_2160_10201" style="mask-type:luminance" maskUnits="userSpaceOnUse" x="218" y="156" width="55" height="119">
<path d="M224.584 197.481C224.584 197.481 235.883 244.489 238.139 253.523C240.396 262.557 248.236 277.019 259.766 274.532C271.295 272.045 272.374 257.723 272.119 244.168C271.863 230.612 263.925 200.363 258.275 186.355C252.625 172.346 245.098 162.002 234.722 159.062C224.345 156.122 218.448 157.028 218.448 157.028" fill="white"/>
</mask>
<g mask="url(#mask5_2160_10201)">
<path opacity="0.1" d="M272.152 244.168C271.929 230.613 263.957 200.364 258.308 186.355C252.658 172.347 245.131 162.003 234.754 159.063C231.951 158.261 229.095 157.662 226.206 157.268C230.587 159.129 245.148 167.15 253.663 194.047C263.776 225.976 270.134 249.925 259.519 261.1C253.951 266.948 248.812 267.252 243.459 265.613C247.314 271.452 252.881 276.015 259.766 274.532C271.287 272.045 272.374 257.74 272.152 244.168Z" fill="black"/>
</g>
<path d="M224.584 197.481C224.584 197.481 235.883 244.489 238.139 253.523C240.396 262.557 248.236 277.019 259.766 274.532C271.295 272.045 272.374 257.723 272.119 244.168C271.864 230.612 263.925 200.363 258.275 186.355C252.625 172.346 245.098 162.002 234.722 159.062C224.345 156.122 218.448 157.028 218.448 157.028" stroke="#263238" stroke-linecap="round" stroke-linejoin="round"/>
<path d="M219.552 191.479L143.654 192.681L153.619 218.911H153.726C155.941 225.499 167.545 230.564 181.537 230.564C195.01 230.564 206.243 225.886 209.06 219.636H209.241L219.552 191.479Z" fill="white" stroke="#263238" stroke-linecap="round" stroke-linejoin="round"/>
<path d="M181.537 203.122C202.537 203.122 219.56 197.908 219.56 191.477C219.56 185.046 202.537 179.832 181.537 179.832C160.538 179.832 143.514 185.046 143.514 191.477C143.514 197.908 160.538 203.122 181.537 203.122Z" fill="white" stroke="#263238" stroke-linecap="round" stroke-linejoin="round"/>
<path d="M181.537 201.098C201.195 201.098 217.131 196.492 217.131 190.812C217.131 185.131 201.195 180.525 181.537 180.525C161.879 180.525 145.943 185.131 145.943 190.812C145.943 196.492 161.879 201.098 181.537 201.098Z" fill="white" stroke="#263238" stroke-linecap="round" stroke-linejoin="round"/>
<mask id="mask6_2160_10201" style="mask-type:luminance" maskUnits="userSpaceOnUse" x="144" y="170" width="78" height="31">
<path d="M221.232 170.848H144.115V192.145H146.858C149.238 197.086 163.856 200.858 181.554 200.858C198.28 200.858 212.256 197.473 215.747 192.943L216.571 191.996L220.079 190.242L221.232 170.848Z" fill="white"/>
</mask>
<g mask="url(#mask6_2160_10201)">
<path d="M146.52 190.736C146.52 190.736 144.873 184.757 146.067 184.56C147.261 184.362 149.197 187.203 151.115 185.284C153.034 183.366 154.484 180.714 157.127 180.953C159.771 181.191 159.532 184.082 161.245 184.082C162.958 184.082 165.091 180.953 166.055 184.321C167.018 187.689 164.408 192.738 162.686 194.656C160.965 196.575 157.16 196.098 151.873 196.098C146.586 196.098 146.52 190.736 146.52 190.736Z" fill="#CEFE8F" stroke="#263238" stroke-linecap="round" stroke-linejoin="round"/>
<path d="M151.84 196.098L150.177 189.164" stroke="#263238" stroke-linecap="round" stroke-linejoin="round"/>
<path d="M154.352 195.932L154.756 184.584" stroke="#263238" stroke-linecap="round" stroke-linejoin="round"/>
<path d="M175.056 184.782C175.056 184.782 172.865 181.595 174.661 179.404C176.456 177.214 177.246 179.009 180.631 179.404C184.016 179.8 183.621 176.621 187.598 177.815C191.576 179.009 192.82 181.974 193.973 181.974C195.126 181.974 197.753 180.376 200.141 182.797C202.529 185.218 201.928 186.586 203.122 186.586C204.316 186.586 206.112 184.988 206.507 187.78C206.902 190.572 205.684 192.359 203.724 192.359C201.763 192.359 198.148 188.974 194.368 189.369C190.588 189.764 189.188 191.362 186.404 190.761C183.621 190.16 183.415 188.776 182.221 188.373C181.027 187.969 177.279 188.57 175.632 187.549C173.985 186.528 175.83 184.757 175.83 184.757L175.056 184.782Z" fill="#CEFE8F" stroke="#263238" stroke-linecap="round" stroke-linejoin="round"/>
<path d="M185.243 185.202C185.243 185.202 183.053 182.015 184.848 179.824C186.643 177.634 187.434 179.429 190.819 179.824C194.204 180.22 193.808 177.041 197.786 178.235C201.764 179.429 202.966 182.418 204.16 182.418C205.354 182.418 207.94 180.821 210.329 183.242C212.717 185.663 212.124 187.03 213.318 187.03C214.512 187.03 216.299 185.433 216.703 188.224C217.106 191.016 215.879 192.803 213.911 192.803C211.943 192.803 208.336 189.418 204.556 189.814C200.775 190.209 199.384 191.807 196.592 191.206C193.8 190.604 193.611 189.221 192.416 188.817C191.222 188.414 187.475 189.015 185.828 187.994C184.181 186.973 186.026 185.202 186.026 185.202H185.243Z" fill="#CEFE8F" stroke="#263238" stroke-linecap="round" stroke-linejoin="round"/>
<path d="M205.519 183.785L203.724 192.35L207.133 192.918L210.296 185.58" fill="#CEFE8F"/>
<path d="M205.519 183.785L203.724 192.35L207.133 192.918L210.296 185.58" stroke="#263238" stroke-linecap="round" stroke-linejoin="round"/>
<path d="M195.562 181.002L195.958 185.581" stroke="#263238" stroke-linecap="round" stroke-linejoin="round"/>
<path d="M184.016 190.951C184.016 190.951 181.826 187.772 183.621 185.581C185.416 183.391 186.207 185.178 189.592 185.581C192.976 185.985 192.573 182.79 196.559 183.984C200.545 185.178 201.731 188.167 202.925 188.167C204.119 188.167 206.713 186.578 209.102 188.991C211.49 191.404 210.889 192.771 212.083 192.771C213.277 192.771 215.072 191.181 215.468 193.965C215.863 196.749 214.644 198.544 212.684 198.544C210.724 198.544 207.109 195.159 203.328 195.554C199.548 195.95 198.148 197.547 195.365 196.955C192.581 196.362 192.375 194.962 191.181 194.566C189.987 194.171 186.24 194.764 184.593 193.743C182.946 192.721 184.799 190.951 184.799 190.951H184.016Z" fill="#CEFE8F" stroke="#263238" stroke-linecap="round" stroke-linejoin="round"/>
<path d="M185.4 193.322C189.316 193.322 192.491 191.305 192.491 188.817C192.491 186.329 189.316 184.312 185.4 184.312C181.484 184.312 178.309 186.329 178.309 188.817C178.309 191.305 181.484 193.322 185.4 193.322Z" fill="#808080" stroke="#263238" stroke-linecap="round" stroke-linejoin="round"/>
<path d="M185.243 188.018C185.243 188.018 183.283 185.663 183.86 185.111C184.436 184.559 187.154 184.403 187.483 185.21C187.813 186.017 185.243 188.018 185.243 188.018Z" fill="white"/>
<path d="M184.395 188.34C184.395 188.34 180.277 187.936 179.899 187.319C179.52 186.701 180.961 185.218 182.172 185.523C183.382 185.828 184.395 188.34 184.395 188.34Z" fill="white"/>
<path d="M184.23 188.94C184.23 188.94 181.093 190.702 180.113 190.472C179.133 190.241 178.26 188.611 179.413 188.215C180.566 187.82 184.23 188.94 184.23 188.94Z" fill="white"/>
<path d="M184.848 189.385C184.848 189.385 184.955 192.045 184.024 192.374C183.094 192.704 180.582 192.078 180.845 191.262C181.109 190.447 184.848 189.385 184.848 189.385Z" fill="white"/>
<path d="M185.82 189.385C185.82 189.385 189.114 191.032 188.908 191.699C188.702 192.366 186.339 193.181 185.523 192.522C184.708 191.864 185.82 189.385 185.82 189.385Z" fill="white"/>
<path d="M186.438 188.933C186.438 188.933 190.555 188.406 191.206 188.933C191.856 189.461 191.338 191.132 190.036 191.116C188.735 191.099 186.438 188.933 186.438 188.933Z" fill="white"/>
<path d="M186.231 188.331C186.231 188.331 188.233 185.992 189.27 185.992C190.308 185.992 192.013 187.343 191.148 187.969C190.283 188.595 186.231 188.331 186.231 188.331Z" fill="white"/>
<path d="M206.103 197.308C210.02 197.308 213.194 195.292 213.194 192.804C213.194 190.316 210.02 188.299 206.103 188.299C202.187 188.299 199.013 190.316 199.013 192.804C199.013 195.292 202.187 197.308 206.103 197.308Z" fill="#808080" stroke="#263238" stroke-linecap="round" stroke-linejoin="round"/>
<path d="M205.947 191.997C205.947 191.997 203.987 189.65 204.564 189.098C205.14 188.546 207.858 188.39 208.187 189.189C208.517 189.988 205.947 191.997 205.947 191.997Z" fill="white"/>
<path d="M205.099 192.318C205.099 192.318 200.981 191.923 200.602 191.297C200.223 190.671 201.665 189.197 202.875 189.502C204.086 189.807 205.099 192.318 205.099 192.318Z" fill="white"/>
<path d="M204.934 192.919C204.934 192.919 201.788 194.681 200.816 194.459C199.845 194.236 198.963 192.589 200.116 192.194C201.269 191.799 204.934 192.919 204.934 192.919Z" fill="white"/>
<path d="M205.552 193.389C205.552 193.389 205.659 196.049 204.728 196.378C203.798 196.708 201.286 196.082 201.55 195.266C201.813 194.451 205.552 193.389 205.552 193.389Z" fill="white"/>
<path d="M206.523 193.389C206.523 193.389 209.818 195.036 209.612 195.695C209.406 196.353 207.042 197.177 206.227 196.518C205.412 195.859 206.523 193.389 206.523 193.389Z" fill="white"/>
<path d="M207.142 192.918C207.142 192.918 211.259 192.391 211.91 192.918C212.561 193.445 212.042 195.125 210.74 195.1C209.439 195.076 207.142 192.918 207.142 192.918Z" fill="white"/>
<path d="M206.968 192.317C206.968 192.317 208.969 189.979 210.007 189.979C211.045 189.979 212.75 191.329 211.885 191.947C211.02 192.564 206.968 192.317 206.968 192.317Z" fill="white"/>
<path d="M179.643 189.543C179.643 189.543 181.373 183.564 180.113 183.366C178.852 183.169 176.818 186.01 174.858 184.091C172.898 182.172 171.408 179.504 168.608 179.759C165.808 180.015 166.137 182.889 164.358 182.889C162.579 182.889 160.347 179.759 159.343 183.128C158.338 186.496 161.097 191.544 162.851 193.463C164.605 195.382 168.616 194.904 174.117 194.904C179.618 194.904 179.643 189.543 179.643 189.543Z" fill="#CEFE8F" stroke="#263238" stroke-linecap="round" stroke-linejoin="round"/>
<path d="M174.117 194.903L175.855 187.969" stroke="#263238" stroke-linecap="round" stroke-linejoin="round"/>
<path d="M171.498 194.739L171.086 183.391" stroke="#263238" stroke-linecap="round" stroke-linejoin="round"/>
<path d="M162.513 197.9C166.429 197.9 169.604 195.883 169.604 193.395C169.604 190.907 166.429 188.891 162.513 188.891C158.597 188.891 155.422 190.907 155.422 193.395C155.422 195.883 158.597 197.9 162.513 197.9Z" fill="#808080" stroke="#263238" stroke-linecap="round" stroke-linejoin="round"/>
<path d="M162.349 192.598C162.349 192.598 160.38 190.243 160.957 189.691C161.533 189.139 164.251 188.983 164.58 189.79C164.91 190.597 162.349 192.598 162.349 192.598Z" fill="white"/>
<path d="M161.525 192.91C161.525 192.91 157.407 192.514 157.028 191.897C156.65 191.279 158.091 189.797 159.301 190.101C160.512 190.406 161.525 192.91 161.525 192.91Z" fill="white"/>
<path d="M161.336 193.503C161.336 193.503 158.198 195.265 157.218 195.034C156.238 194.804 155.365 193.173 156.518 192.778C157.671 192.383 161.336 193.503 161.336 193.503Z" fill="white"/>
<path d="M161.962 193.99C161.962 193.99 162.069 196.65 161.138 196.98C160.207 197.309 157.696 196.683 157.959 195.868C158.223 195.053 161.962 193.99 161.962 193.99Z" fill="white"/>
<path d="M162.925 193.98C162.925 193.98 166.219 195.628 166.014 196.295C165.808 196.962 163.444 197.777 162.637 197.118C161.83 196.459 162.925 193.98 162.925 193.98Z" fill="white"/>
<path d="M163.543 193.504C163.543 193.504 167.661 192.977 168.311 193.504C168.962 194.031 168.451 195.703 167.142 195.686C165.832 195.67 163.543 193.504 163.543 193.504Z" fill="white"/>
<path d="M163.37 192.911C163.37 192.911 165.371 190.572 166.417 190.572C167.463 190.572 169.159 191.923 168.286 192.549C167.413 193.175 163.37 192.911 163.37 192.911Z" fill="white"/>
<path d="M165.017 193.306C165.017 193.306 168.311 188.365 176.448 187.541C176.448 187.541 180.434 188.735 178.836 188.933C177.238 189.13 171.276 188.529 166.483 193.512C161.69 198.494 165.017 193.306 165.017 193.306Z" fill="white" stroke="#263238" stroke-linecap="round" stroke-linejoin="round"/>
<path d="M184.139 195.06C184.139 197.366 180.969 199.244 177.049 199.244C173.129 199.244 169.958 197.366 169.958 195.06C169.958 192.754 173.129 190.885 177.049 190.885C180.969 190.885 184.139 192.754 184.139 195.06Z" fill="#808080" stroke="#263238" stroke-linecap="round" stroke-linejoin="round"/>
<path d="M176.893 194.326C176.893 194.326 174.924 192.144 175.501 191.633C176.077 191.123 178.795 190.983 179.124 191.724C179.454 192.465 176.893 194.326 176.893 194.326Z" fill="white"/>
<path d="M176.036 194.614C176.036 194.614 171.918 194.244 171.548 193.667C171.177 193.091 172.602 191.724 173.821 192.02C175.039 192.317 176.036 194.614 176.036 194.614Z" fill="white"/>
<path d="M175.871 195.151C175.871 195.151 172.734 196.798 171.754 196.576C170.774 196.354 169.901 194.847 171.045 194.476C172.19 194.105 175.871 195.151 175.871 195.151Z" fill="white"/>
<path d="M176.497 195.611C176.497 195.611 176.604 198.082 175.674 198.378C174.743 198.675 172.24 198.107 172.503 197.349C172.767 196.591 176.497 195.611 176.497 195.611Z" fill="white"/>
<path d="M177.461 195.604C177.461 195.604 180.755 197.144 180.557 197.745C180.359 198.346 177.988 199.12 177.172 198.519C176.357 197.918 177.461 195.604 177.461 195.604Z" fill="white"/>
<path d="M178.079 195.15C178.079 195.15 182.196 194.664 182.855 195.15C183.514 195.635 182.987 197.192 181.678 197.175C180.368 197.159 178.079 195.15 178.079 195.15Z" fill="white"/>
<path d="M177.905 194.607C177.905 194.607 179.915 192.441 180.952 192.449C181.99 192.457 183.695 193.701 182.83 194.278C181.965 194.854 177.905 194.607 177.905 194.607Z" fill="white"/>
<path d="M199.466 195.257C199.466 197.572 196.295 199.441 192.375 199.441C188.455 199.441 185.284 197.572 185.284 195.257C185.284 192.943 188.463 191.082 192.375 191.082C196.287 191.082 199.466 192.951 199.466 195.257Z" fill="#808080" stroke="#263238" stroke-linecap="round" stroke-linejoin="round"/>
<path d="M192.219 194.517C192.219 194.517 190.25 192.334 190.835 191.832C191.42 191.329 194.129 191.173 194.459 191.914C194.788 192.655 192.219 194.517 192.219 194.517Z" fill="white"/>
<path d="M191.371 194.814C191.371 194.814 187.253 194.451 186.874 193.867C186.495 193.282 187.928 191.923 189.147 192.22C190.366 192.516 191.371 194.814 191.371 194.814Z" fill="white"/>
<path d="M191.173 195.372C191.173 195.372 188.027 197.019 187.055 196.797C186.083 196.574 185.202 195.067 186.355 194.697C187.508 194.326 191.173 195.372 191.173 195.372Z" fill="white"/>
<path d="M191.824 195.809C191.824 195.809 191.931 198.279 191 198.576C190.069 198.872 187.566 198.304 187.829 197.546C188.093 196.789 191.824 195.809 191.824 195.809Z" fill="white"/>
<path d="M192.82 195.809C192.82 195.809 196.114 197.34 195.916 197.95C195.719 198.559 193.347 199.317 192.532 198.716C191.716 198.115 192.82 195.809 192.82 195.809Z" fill="white"/>
<path d="M193.405 195.372C193.405 195.372 197.523 194.878 198.181 195.372C198.84 195.866 198.313 197.414 197.012 197.398C195.711 197.381 193.405 195.372 193.405 195.372Z" fill="white"/>
<path d="M193.24 194.812C193.24 194.812 195.241 192.638 196.279 192.647C197.316 192.655 199.021 193.898 198.156 194.475C197.292 195.051 193.24 194.812 193.24 194.812Z" fill="white"/>
<path d="M183.934 188.932C183.934 188.932 181.858 194.482 174.051 197.085C174.051 197.085 169.933 196.813 171.416 196.261C172.898 195.71 178.877 194.952 182.418 189.031C185.96 183.109 183.934 188.932 183.934 188.932Z" fill="white" stroke="#263238" stroke-linecap="round" stroke-linejoin="round"/>
<path d="M202.826 191.033C202.826 191.033 200.751 196.584 192.944 199.186C192.944 199.186 188.826 198.915 190.308 198.363C191.791 197.811 197.77 197.054 201.311 191.14C204.852 185.227 202.826 191.033 202.826 191.033Z" fill="white" stroke="#263238" stroke-linecap="round" stroke-linejoin="round"/>
<path d="M153.001 197.522C153.001 197.522 148.423 195.133 152.013 194.335C155.604 193.536 157.383 197.917 158.182 195.735C158.98 193.552 160.092 192.276 162.621 192.91C165.149 193.544 162.621 195.661 165.264 196.295C167.908 196.929 165.511 192.078 170.304 194.499C175.097 196.921 173.705 199.91 176.3 200.108C178.894 200.305 178.482 195.331 181.867 195.932C185.252 196.534 183.662 197.324 185.853 197.719C188.043 198.115 188.439 195.932 190.629 197.324C192.82 198.716 194.212 200.108 195.406 199.317C196.6 198.526 196.229 197.522 198.395 197.126C200.561 196.731 200.784 195.932 202.373 193.939C203.963 191.946 206.359 194.763 208.747 194.763C211.136 194.763 211.333 194.763 212.527 192.375C212.857 191.693 213.363 191.112 213.993 190.692C214.623 190.272 215.354 190.028 216.11 189.986C216.11 189.986 218.103 191.971 215.517 194.359C212.931 196.748 202.768 202.323 194.813 203.122C186.858 203.921 175.698 204.909 165.948 203.517C156.197 202.125 153.001 197.522 153.001 197.522Z" fill="#CEFE8F" stroke="#263238" stroke-linecap="round" stroke-linejoin="round"/>
<path d="M188.908 191.716C188.908 191.716 192.202 186.775 200.339 185.951C200.339 185.951 204.325 187.145 202.727 187.343C201.129 187.541 195.167 186.948 190.374 191.922C185.581 196.896 188.908 191.716 188.908 191.716Z" fill="white" stroke="#263238" stroke-linecap="round" stroke-linejoin="round"/>
</g>
<path d="M170.823 59.9902C170.823 59.9902 152.005 68.3904 149.411 75.0447C146.816 81.6989 148.258 88.3697 145.935 95.8969C143.613 103.424 138.696 107.188 142.46 117.902C146.223 128.616 159.26 133.245 164.473 135.567C169.418 137.775 175.027 137.982 180.121 136.144C185.062 134.406 199.812 123.115 199.812 123.115C199.812 123.115 201.261 125.141 207.627 122.827C213.993 120.513 217.51 108.925 215.739 103.712C213.968 98.4993 206.178 102.263 206.178 102.263C206.178 102.263 168.509 79.9695 170.823 59.9902Z" fill="white"/>
<mask id="mask7_2160_10201" style="mask-type:luminance" maskUnits="userSpaceOnUse" x="141" y="59" width="76" height="79">
<path d="M170.823 59.9902C170.823 59.9902 152.005 68.3904 149.411 75.0447C146.816 81.6989 148.258 88.3697 145.935 95.8969C143.613 103.424 138.696 107.188 142.46 117.902C146.223 128.616 159.26 133.245 164.473 135.567C169.418 137.775 175.027 137.982 180.121 136.144C185.062 134.406 199.812 123.115 199.812 123.115C199.812 123.115 201.261 125.141 207.627 122.827C213.993 120.513 217.51 108.925 215.739 103.712C213.968 98.4993 206.178 102.263 206.178 102.263C206.178 102.263 168.509 79.9695 170.823 59.9902Z" fill="white"/>
</mask>
<g mask="url(#mask7_2160_10201)">
<path opacity="0.1" d="M206.145 102.264C199.727 98.3214 193.645 93.8564 187.961 88.9141C189.534 94.7365 192.737 108.07 191.922 117.401C190.86 129.638 179.684 134.431 170.106 135.519C168.822 135.659 168.196 136.12 168.064 136.803C172.049 137.768 176.229 137.545 180.088 136.161C185.029 134.423 199.779 123.132 199.779 123.132C199.779 123.132 201.228 125.158 207.594 122.844C213.96 120.53 217.477 108.943 215.706 103.73C213.936 98.5166 206.145 102.264 206.145 102.264Z" fill="black"/>
</g>
<path d="M170.823 59.9902C170.823 59.9902 152.005 68.3904 149.411 75.0447C146.816 81.6989 148.258 88.3697 145.935 95.8969C143.613 103.424 138.696 107.188 142.46 117.902C146.223 128.616 159.26 133.245 164.473 135.567C169.418 137.775 175.027 137.982 180.121 136.144C185.062 134.406 199.812 123.115 199.812 123.115C199.812 123.115 201.261 125.141 207.627 122.827C213.993 120.513 217.51 108.925 215.739 103.712C213.968 98.4993 206.178 102.263 206.178 102.263C206.178 102.263 168.509 79.9695 170.823 59.9902Z" stroke="#263238" stroke-linecap="round" stroke-linejoin="round"/>
<path d="M163.296 91.5488C162.879 93.6878 161.757 95.6252 160.108 97.0501C157.506 99.0761 155.48 100.525 158.083 102.815C160.685 105.104 162.719 104.256 162.719 104.256" stroke="#263238" stroke-linecap="round" stroke-linejoin="round"/>
<path d="M159.82 112.114C159.82 112.114 164.457 115.292 171.111 110.664" stroke="#263238" stroke-linecap="round" stroke-linejoin="round"/>
<path d="M170.534 108.35C170.534 108.35 169.958 109.791 172.56 112.401" stroke="#263238" stroke-linecap="round" stroke-linejoin="round"/>
<path d="M151.132 91.8372C152.342 91.0245 153.779 90.6154 155.236 90.6687C156.693 90.7219 158.096 91.2347 159.244 92.1337" stroke="#263238" stroke-linecap="round" stroke-linejoin="round"/>
<path d="M171.408 92.7092C171.408 92.7092 174.883 89.5221 180.096 93.2857" stroke="#263238" stroke-linecap="round" stroke-linejoin="round"/>
<path d="M151.42 83.7334C151.42 83.7334 155.48 78.5204 160.685 80.8345" stroke="#263238" stroke-width="3" stroke-linecap="round" stroke-linejoin="round"/>
<path d="M168.509 81.1311C168.509 81.1311 174.01 77.944 178.935 83.7335" stroke="#263238" stroke-width="3" stroke-linecap="round" stroke-linejoin="round"/>
<path d="M264.806 257.592C262.614 253.889 259.633 250.714 256.074 248.294C252.516 245.875 248.467 244.269 244.217 243.592C229.534 241.121 215.747 240.652 210.773 238.165C205.799 235.678 203.32 230.259 200.602 226.635C197.403 222.726 193.586 219.365 189.303 216.687C185.919 214.652 184.107 216.242 184.782 218.498C185.457 220.755 187.953 222.114 189.723 224.823C190.888 226.702 191.724 228.766 192.194 230.926C192.194 230.926 187.903 231.601 179.083 225.507C170.263 219.413 163.724 215.105 162.818 217.14C162.276 218.263 162.117 219.533 162.365 220.755C162.365 220.755 158.066 218.045 157.424 220.986C156.781 223.926 162.167 230.045 162.167 230.045C162.167 230.045 163.757 232.309 166.236 235.472C169.526 239.984 174.255 243.243 179.643 244.712C187.104 246.968 193.429 249.003 197.498 250.814C201.566 252.626 226.421 270.925 242.471 275.9C258.522 280.874 265.976 274.088 268.907 268.438C270.68 264.871 271.386 260.867 270.941 256.909" fill="white"/>
<mask id="mask8_2160_10201" style="mask-type:luminance" maskUnits="userSpaceOnUse" x="157" y="215" width="115" height="63">
<path d="M264.806 257.592C262.614 253.889 259.633 250.714 256.074 248.294C252.516 245.875 248.467 244.269 244.217 243.592C229.534 241.121 215.747 240.652 210.773 238.165C205.799 235.678 203.32 230.259 200.602 226.635C197.403 222.726 193.586 219.365 189.303 216.687C185.919 214.652 184.107 216.242 184.782 218.498C185.457 220.755 187.953 222.114 189.723 224.823C190.888 226.702 191.724 228.766 192.194 230.926C192.194 230.926 187.903 231.601 179.083 225.507C170.263 219.413 163.724 215.105 162.818 217.14C162.276 218.263 162.117 219.533 162.365 220.755C162.365 220.755 158.066 218.045 157.424 220.986C156.781 223.926 162.167 230.045 162.167 230.045C162.167 230.045 163.757 232.309 166.236 235.472C169.526 239.984 174.255 243.243 179.643 244.712C187.104 246.968 193.429 249.003 197.498 250.814C201.566 252.626 226.421 270.925 242.471 275.9C258.522 280.874 265.976 274.088 268.907 268.438C270.68 264.871 271.386 260.867 270.941 256.909" fill="white"/>
</mask>
<g mask="url(#mask8_2160_10201)">
<path opacity="0.1" d="M270.908 256.917L264.806 257.592C264.342 256.73 263.813 255.904 263.225 255.121C262.396 257.332 261.136 259.356 259.519 261.076C248.87 272.251 239.655 263.192 228.117 258.951C216.579 254.71 193.528 242.982 181.817 243.518C179.871 243.605 177.922 243.542 175.986 243.328C177.163 243.861 178.373 244.315 179.61 244.687C187.071 246.943 193.396 248.978 197.464 250.789C201.533 252.601 226.387 270.9 242.438 275.875C258.489 280.849 265.942 274.063 268.874 268.413C270.64 264.855 271.346 260.865 270.908 256.917Z" fill="black"/>
</g>
<path d="M264.806 257.592C262.614 253.889 259.633 250.714 256.074 248.294C252.516 245.875 248.467 244.269 244.217 243.592C229.534 241.121 215.747 240.652 210.773 238.165C205.799 235.678 203.32 230.259 200.602 226.635C197.403 222.726 193.586 219.365 189.303 216.687C185.919 214.652 184.107 216.242 184.782 218.498C185.457 220.755 187.953 222.114 189.723 224.823C190.888 226.702 191.724 228.766 192.194 230.926C192.194 230.926 187.903 231.601 179.083 225.507C170.263 219.413 163.724 215.105 162.818 217.14C162.276 218.263 162.117 219.533 162.365 220.755C162.365 220.755 158.066 218.045 157.424 220.986C156.781 223.926 162.167 230.045 162.167 230.045C162.167 230.045 163.757 232.309 166.236 235.472C169.526 239.984 174.255 243.243 179.643 244.712C187.104 246.968 193.429 249.003 197.498 250.814C201.566 252.626 226.421 270.925 242.471 275.9C258.522 280.874 265.976 274.088 268.907 268.438C270.68 264.871 271.386 260.867 270.941 256.909" stroke="#263238" stroke-linecap="round" stroke-linejoin="round"/>
<path d="M162.439 220.754C162.439 220.754 172.074 228.866 174.265 230.809C175.871 232.13 177.671 233.194 179.602 233.964" stroke="#263238" stroke-linecap="round" stroke-linejoin="round"/>
<path d="M159.441 224.98C159.441 224.98 168.673 235.687 174.751 238.338" stroke="#263238" stroke-linecap="round" stroke-linejoin="round"/>
</svg>
